<svg width="20" height="30" viewBox="0 0 36 53" fill="none" xmlns="http://www.w3.org/2000/svg">
<path d="M31.588 9.18003C32.5959 9.18187 33.5621 9.5826 34.2754 10.2946C34.9888 11.0067 35.3913 11.9721 35.395 12.98V49.204C35.3913 50.2119 34.9888 51.1774 34.2754 51.8894C33.5621 52.6015 32.5959 53.0022 31.588 53.004H3.80798C2.80008 53.0022 1.83388 52.6015 1.12053 51.8894C0.407177 51.1774 0.00467457 50.2119 0.000976562 49.204V12.98C0.00467457 11.9721 0.407177 11.0067 1.12053 10.2946C1.83388 9.5826 2.80008 9.18187 3.80798 9.18003H5.23098V12.98H3.80798L3.80098 12.987V49.197L3.80798 49.204H31.584L31.591 49.197V12.987L31.584 12.98H30.164V9.18003H31.591H31.588ZM28.227 23.159H6.79098V26.959H28.227V23.159ZM28.227 31.174H6.79098V34.974H28.227V31.174ZM28.227 39.189H6.79098V42.989H28.227V39.189ZM26.364 8.54503V12.832C26.364 13.2644 26.1925 13.6792 25.8871 13.9853C25.5817 14.2915 25.1674 14.464 24.735 14.465H10.66C10.2276 14.464 9.81324 14.2915 9.50786 13.9853C9.20247 13.6792 9.03098 13.2644 9.03098 12.832V8.54903C9.03098 8.11662 9.20247 7.70187 9.50786 7.39574C9.81324 7.0896 10.2276 6.91709 10.66 6.91603H13.05V2.46503C13.05 2.03262 13.2215 1.61787 13.5269 1.31174C13.8322 1.0056 14.2466 0.83309 14.679 0.832031H20.715C21.1467 0.833087 21.5604 1.00505 21.8657 1.31032C22.171 1.61559 22.3429 2.02932 22.344 2.46103V6.92003H24.734C25.1652 6.92108 25.5784 7.09264 25.8836 7.39726C26.1888 7.70188 26.3611 8.11484 26.363 8.54603L26.364 8.54503ZM19.584 5.20803C19.584 4.83225 19.4725 4.4649 19.2638 4.15245C19.055 3.83999 18.7583 3.59647 18.4111 3.45266C18.0639 3.30885 17.6819 3.27123 17.3133 3.34454C16.9447 3.41785 16.6062 3.59881 16.3405 3.86453C16.0748 4.13025 15.8938 4.46879 15.8205 4.83736C15.7472 5.20592 15.7848 5.58795 15.9286 5.93513C16.0724 6.28231 16.3159 6.57905 16.6284 6.78782C16.9408 6.9966 17.3082 7.10803 17.684 7.10803C18.1879 7.10803 18.6712 6.90785 19.0275 6.55153C19.3838 6.19522 19.584 5.71194 19.584 5.20803Z" fill="#1FBEF9"/>
</svg>
