<svg width="30" height="31" viewBox="0 0 50 51" fill="none" xmlns="http://www.w3.org/2000/svg">
<path d="M25.3151 22.827C23.5811 22.8088 21.8911 22.278 20.4581 21.3014C19.0251 20.3248 17.913 18.9461 17.262 17.3387C16.6109 15.7314 16.45 13.9674 16.7994 12.2688C17.1488 10.5702 17.9929 9.01298 19.2255 7.79314C20.4581 6.5733 22.0241 5.74542 23.7262 5.41372C25.4284 5.08202 27.1906 5.26134 28.7911 5.92911C30.3915 6.59687 31.7586 7.72321 32.7202 9.16633C33.6819 10.6095 34.195 12.3048 34.1951 14.039C34.1952 15.2008 33.9649 16.3511 33.5175 17.4234C33.0701 18.4956 32.4146 19.4685 31.5888 20.2858C30.7629 21.1031 29.7833 21.7484 28.7064 22.1846C27.6296 22.6208 26.4769 22.8392 25.3151 22.827ZM25.3151 8.33499C24.1923 8.35469 23.1002 8.70566 22.1761 9.34384C21.252 9.98202 20.537 10.879 20.1209 11.9221C19.7047 12.9652 19.606 14.108 19.8371 15.207C20.0682 16.3061 20.6188 17.3123 21.4198 18.0995C22.2208 18.8867 23.2365 19.4197 24.3394 19.6317C25.4423 19.8436 26.5832 19.7251 27.6189 19.2909C28.6546 18.8567 29.539 18.1262 30.161 17.1911C30.783 16.256 31.115 15.158 31.1151 14.035C31.0977 12.5113 30.4779 11.0565 29.3911 9.98841C28.3043 8.92035 26.8389 8.3259 25.3151 8.33499Z" fill="#1FBEF9"/>
<path d="M25.3151 22.827C23.5811 22.8088 21.8911 22.278 20.4581 21.3014C19.0251 20.3248 17.913 18.9461 17.262 17.3387C16.6109 15.7314 16.45 13.9674 16.7994 12.2688C17.1488 10.5702 17.9929 9.01298 19.2255 7.79314C20.4581 6.5733 22.0241 5.74542 23.7262 5.41372C25.4284 5.08202 27.1906 5.26134 28.7911 5.92911C30.3915 6.59687 31.7586 7.72321 32.7202 9.16633C33.6819 10.6095 34.195 12.3048 34.1951 14.039C34.1952 15.2008 33.9649 16.3511 33.5175 17.4234C33.0701 18.4956 32.4146 19.4685 31.5888 20.2858C30.7629 21.1031 29.7833 21.7484 28.7064 22.1846C27.6296 22.6208 26.4769 22.8392 25.3151 22.827ZM25.3151 8.33499C24.1923 8.35469 23.1002 8.70566 22.1761 9.34384C21.252 9.98202 20.537 10.879 20.1209 11.9221C19.7047 12.9652 19.606 14.108 19.8371 15.207C20.0682 16.3061 20.6188 17.3123 21.4198 18.0995C22.2208 18.8867 23.2365 19.4197 24.3394 19.6317C25.4423 19.8436 26.5832 19.7251 27.6189 19.2909C28.6546 18.8567 29.539 18.1262 30.161 17.1911C30.783 16.256 31.115 15.158 31.1151 14.035C31.0977 12.5113 30.4779 11.0565 29.3911 9.98841C28.3043 8.92035 26.8389 8.3259 25.3151 8.33499Z" fill="#1FBEF9"/>
<path d="M30.6952 24.8929C23.8574 23.7023 16.8177 24.7845 10.6532 27.9739C10.2162 28.2173 9.85441 28.5762 9.6075 29.0112C9.3606 29.4463 9.23804 29.9409 9.25321 30.4409V35.9289C9.24797 36.1347 9.28397 36.3394 9.35908 36.531C9.43419 36.7226 9.5469 36.8972 9.69056 37.0446C9.83422 37.1919 10.0059 37.3091 10.1956 37.389C10.3852 37.469 10.5889 37.5102 10.7947 37.5102C11.0005 37.5102 11.2042 37.469 11.3939 37.389C11.5835 37.3091 11.7552 37.1919 11.8989 37.0446C12.0425 36.8972 12.1552 36.7226 12.2303 36.531C12.3055 36.3394 12.3414 36.1347 12.3362 35.9289V30.6439C18.0522 27.7759 24.5524 26.8659 30.8362 28.0539L30.6952 24.8929Z" fill="#1FBEF9"/>
<path d="M47.793 31.5989H37.463V29.3169C37.4527 28.9149 37.2858 28.5328 36.9979 28.2521C36.7099 27.9713 36.3237 27.8142 35.9215 27.8142C35.5193 27.8142 35.1331 27.9713 34.8451 28.2521C34.5571 28.5328 34.3902 28.9149 34.38 29.3169V31.5989H23.126C22.717 31.5989 22.3248 31.7614 22.0356 32.0506C21.7464 32.3398 21.584 32.732 21.584 33.1409V48.5579C21.584 48.9669 21.7464 49.3591 22.0356 49.6483C22.3248 49.9375 22.717 50.0999 23.126 50.0999H47.793C48.2019 50.0999 48.5942 49.9375 48.8833 49.6483C49.1725 49.3591 49.335 48.9669 49.335 48.5579V33.1409C49.335 32.732 49.1725 32.3398 48.8833 32.0506C48.5942 31.7614 48.2019 31.5989 47.793 31.5989ZM46.251 47.0159H24.667V34.6819H34.38V35.3139C34.3902 35.716 34.5571 36.0981 34.8451 36.3788C35.1331 36.6596 35.5193 36.8167 35.9215 36.8167C36.3237 36.8167 36.7099 36.6596 36.9979 36.3788C37.2858 36.0981 37.4527 35.716 37.463 35.3139V34.6819H46.251V47.0159Z" fill="#1FBEF9"/>
<path d="M30.541 39.9548H39.729V42.1128H30.541V39.9548Z" fill="#1FBEF9"/>
<path d="M13.629 16.552C9.3609 16.6233 5.16681 17.6784 1.37298 19.635C0.96045 19.853 0.614898 20.1789 0.373245 20.578C0.131592 20.9772 0.00291958 21.4344 0.000976562 21.901V26.68C0.0112172 27.082 0.178118 27.4642 0.466089 27.7449C0.75406 28.0256 1.14031 28.1827 1.54248 28.1827C1.94464 28.1827 2.33089 28.0256 2.61886 27.7449C2.90683 27.4642 3.07374 27.082 3.08398 26.68V22.213C6.70891 20.4085 10.7223 19.5242 14.77 19.638C14.2401 18.671 13.8557 17.6311 13.629 16.552Z" fill="#1FBEF9"/>
<path d="M47.9624 19.6199C44.5596 17.835 40.8198 16.7847 36.9854 16.5369C36.7597 17.613 36.3808 18.6513 35.8604 19.6199C39.4726 19.7064 43.021 20.5909 46.2513 22.2099V26.6809C46.2461 26.8866 46.2821 27.0913 46.3572 27.2829C46.4323 27.4745 46.545 27.6492 46.6887 27.7965C46.8323 27.9439 47.0041 28.061 47.1937 28.141C47.3833 28.2209 47.587 28.2621 47.7928 28.2621C47.9986 28.2621 48.2024 28.2209 48.392 28.141C48.5816 28.061 48.7533 27.9439 48.897 27.7965C49.0407 27.6492 49.1534 27.4745 49.2285 27.2829C49.3036 27.0913 49.3396 26.8866 49.3344 26.6809V21.9019C49.3353 21.4326 49.208 20.972 48.9662 20.5698C48.7244 20.1676 48.3773 19.8391 47.9624 19.6199Z" fill="#1FBEF9"/>
<path d="M13.3513 14.0389V13.0059C12.1429 12.8449 11.0432 12.224 10.2813 11.2723C9.51937 10.3207 9.15405 9.11172 9.26144 7.89738C9.36882 6.68305 9.94061 5.55698 10.8577 4.75379C11.7748 3.9506 12.9664 3.53224 14.1843 3.58587C15.4506 3.58344 16.6677 4.07576 17.5763 4.95787C18.3778 4.29677 19.2582 3.73751 20.1973 3.29287C19.1483 2.0869 17.7585 1.22706 16.2112 0.826655C14.6638 0.42625 13.0314 0.504073 11.5291 1.04987C10.0268 1.59567 8.72519 2.58383 7.7957 3.88412C6.86621 5.18441 6.3525 6.73581 6.32227 8.33387C6.35482 10.2898 7.11528 12.1634 8.45515 13.5887C9.79502 15.014 11.6181 15.8886 13.5683 16.0419C13.4372 15.3819 13.3646 14.7116 13.3513 14.0389Z" fill="#1FBEF9"/>
<path d="M35.104 0.502925C34.0448 0.503028 32.9962 0.714263 32.0196 1.12428C31.043 1.53431 30.1579 2.13489 29.416 2.89093C30.4579 3.2691 31.4431 3.78826 32.344 4.43393C33.0638 3.93449 33.9055 3.63971 34.7796 3.58103C35.6537 3.52234 36.5273 3.70194 37.3073 4.10069C38.0874 4.49943 38.7446 5.10237 39.2089 5.84523C39.6733 6.5881 39.9273 7.44304 39.944 8.31892C39.9342 9.21867 39.6697 10.0972 39.1813 10.8529C38.6928 11.6086 38.0003 12.2105 37.184 12.5889C37.2462 13.0644 37.2773 13.5434 37.277 14.0229C37.2729 14.6426 37.2215 15.2611 37.123 15.8729C38.9855 15.4129 40.6131 14.2826 41.6947 12.6982C42.7764 11.1138 43.2361 9.18626 42.9862 7.28418C42.7362 5.3821 41.794 3.63885 40.3398 2.38766C38.8855 1.13647 37.0211 0.465119 35.103 0.501925L35.104 0.502925Z" fill="#1FBEF9"/>
</svg>
