<svg width="25" height="30" viewBox="0 0 41 46" fill="none" xmlns="http://www.w3.org/2000/svg">
<path d="M27.2154 40.821L23.0684 36.674L20.8154 38.929L27.2154 45.329L40.0294 32.529L37.7714 30.271L27.2154 40.821Z" fill="#1FBEF9"/>
<path d="M32.023 5.30293H27.223V3.70293C27.2198 2.85521 26.8817 2.04311 26.2822 1.44368C25.6828 0.844248 24.8707 0.506091 24.023 0.50293H11.208C10.3603 0.506091 9.54818 0.844248 8.94875 1.44368C8.34932 2.04311 8.01116 2.85521 8.008 3.70293V5.30293H3.2C2.35228 5.30609 1.54018 5.64425 0.94075 6.24368C0.341318 6.84311 0.0031612 7.65521 0 8.50293V42.1339C0.0031612 42.9817 0.341318 43.7937 0.94075 44.3932C1.54018 44.9926 2.35228 45.3308 3.2 45.3339H17.613V42.1339H3.2V8.50893H8V13.3089H27.22V8.50893H32.02V26.1219H35.22V8.50893C35.2184 7.66069 34.8814 6.8475 34.2824 6.24686C33.6835 5.64622 32.8712 5.30689 32.023 5.30293ZM24.017 10.1029H11.208V3.70293H24.018L24.017 10.1029Z" fill="#1FBEF9"/>
</svg>
