<svg width="59" height="61" viewBox="0 0 59 61" fill="none" xmlns="http://www.w3.org/2000/svg">
<path d="M57.0007 31.762C56.6026 31.6181 56.1698 31.6003 55.7612 31.7108C55.3526 31.8214 54.9879 32.055 54.7167 32.38L46.9377 41.707L35.7377 39.674L28.3077 21.219C27.8621 20.0432 27.0703 19.0302 26.0369 18.3139C25.0035 17.5976 23.7771 17.2116 22.5197 17.207H14.1497C13.0284 17.2073 11.9282 17.5121 10.9667 18.089L0.637695 24.286V37.481L10.9457 39.357V60.5H15.0687V40.107L22.4187 41.443L25.3767 48.543V60.5H29.4997V47.718L27.2507 42.318L43.9107 45.346L34.1017 57.116C33.8512 57.4171 33.6916 57.7832 33.6415 58.1716C33.5915 58.5601 33.6531 58.9547 33.8192 59.3094C33.9853 59.6641 34.2489 59.9641 34.5793 60.1744C34.9096 60.3848 35.2931 60.4967 35.6847 60.497H56.3007C56.8476 60.497 57.3721 60.2798 57.7588 59.8931C58.1455 59.5064 58.3627 58.9819 58.3627 58.435V33.7C58.3624 33.2763 58.2317 32.8629 57.9882 32.5162C57.7446 32.1694 57.3992 31.9061 57.0007 31.762ZM4.76069 34.042V26.62L10.9457 22.907V35.165L4.76069 34.042ZM15.0687 35.916V21.33H22.5197C22.9461 21.3334 23.3613 21.4672 23.7095 21.7133C24.0577 21.9594 24.3222 22.3062 24.4677 22.707L30.9377 38.807L15.0687 35.916ZM54.2377 56.377H40.0857L54.2377 39.394V56.377Z" fill="#1FBEF9"/>
<path d="M22.2844 15.1451C20.8572 15.1451 19.462 14.7219 18.2754 13.929C17.0887 13.1361 16.1638 12.0091 15.6176 10.6906C15.0715 9.37203 14.9286 7.92113 15.207 6.52137C15.4854 5.1216 16.1727 3.83583 17.1819 2.82666C18.1911 1.81748 19.4768 1.13022 20.8766 0.851791C22.2764 0.57336 23.7273 0.716262 25.0458 1.26242C26.3644 1.80859 27.4913 2.73348 28.2842 3.92014C29.0771 5.10681 29.5004 6.50195 29.5004 7.92914C29.5004 8.87676 29.3137 9.8151 28.9511 10.6906C28.5884 11.5661 28.0569 12.3616 27.3868 13.0316C26.7168 13.7017 25.9213 14.2332 25.0458 14.5959C24.1703 14.9585 23.232 15.1451 22.2844 15.1451ZM22.2844 4.83714C21.6728 4.83714 21.075 5.01848 20.5665 5.35823C20.0581 5.69799 19.6618 6.18089 19.4277 6.74588C19.1937 7.31087 19.1325 7.93257 19.2518 8.53236C19.3711 9.13215 19.6656 9.68309 20.098 10.1155C20.5304 10.5479 21.0814 10.8424 21.6811 10.9617C22.2809 11.081 22.9026 11.0198 23.4676 10.7858C24.0326 10.5517 24.5155 10.1554 24.8553 9.64696C25.195 9.13848 25.3764 8.54068 25.3764 7.92914C25.3764 7.10909 25.0506 6.32263 24.4707 5.74276C23.8909 5.1629 23.1044 4.83714 22.2844 4.83714Z" fill="#1FBEF9"/>
</svg>
