<svg width="57" height="45" viewBox="0 0 57 45" fill="none" xmlns="http://www.w3.org/2000/svg">
<path d="M4.49902 20.605H28.499V24.605H4.49902V20.605Z" fill="#1FBEF9"/>
<path d="M0.499023 10.604H20.499V14.604H0.499023V10.604Z" fill="#1FBEF9"/>
<path d="M56.3387 21.817L50.3387 7.81701C50.1847 7.45713 49.9284 7.15037 49.6017 6.93475C49.275 6.71913 48.8922 6.60413 48.5007 6.604H42.5007V2.604C42.5007 2.07357 42.29 1.56486 41.9149 1.18979C41.5398 0.814716 41.0311 0.604004 40.5007 0.604004H8.50069V4.604H38.5007V29.717C37.5893 30.246 36.7916 30.9501 36.1536 31.7889C35.5157 32.6277 35.0501 33.5844 34.7837 34.604H22.2157C21.7289 32.7187 20.5712 31.0756 18.9597 29.9828C17.3481 28.89 15.3933 28.4224 13.4617 28.6678C11.5301 28.9131 9.75423 29.8545 8.46705 31.3155C7.17987 32.7766 6.46973 34.6569 6.46973 36.604C6.46973 38.5512 7.17987 40.4315 8.46705 41.8925C9.75423 43.3535 11.5301 44.2949 13.4617 44.5402C15.3933 44.7856 17.3481 44.318 18.9597 43.2252C20.5712 42.1324 21.7289 40.4893 22.2157 38.604H34.7837C35.2184 40.3209 36.2133 41.8438 37.6109 42.9317C39.0086 44.0196 40.7291 44.6102 42.5002 44.6102C44.2713 44.6102 45.9918 44.0196 47.3894 42.9317C48.7871 41.8438 49.782 40.3209 50.2167 38.604H54.5007C55.0311 38.604 55.5398 38.3933 55.9149 38.0182C56.29 37.6431 56.5007 37.1344 56.5007 36.604V22.604C56.5007 22.3334 56.4455 22.0656 56.3387 21.817ZM14.4987 40.604C13.7076 40.604 12.9342 40.3694 12.2764 39.9299C11.6186 39.4904 11.1059 38.8656 10.8032 38.1347C10.5004 37.4038 10.4212 36.5996 10.5756 35.8236C10.7299 35.0477 11.1109 34.335 11.6703 33.7756C12.2297 33.2162 12.9424 32.8352 13.7183 32.6809C14.4943 32.5265 15.2985 32.6057 16.0294 32.9085C16.7603 33.2112 17.385 33.7239 17.8246 34.3817C18.2641 35.0395 18.4987 35.8129 18.4987 36.604C18.4987 37.6649 18.0773 38.6823 17.3271 39.4324C16.577 40.1826 15.5596 40.604 14.4987 40.604ZM42.4987 10.604H47.1787L51.4687 20.604H42.5007L42.4987 10.604ZM42.4987 40.604C41.7076 40.604 40.9342 40.3694 40.2764 39.9299C39.6186 39.4904 39.1059 38.8656 38.8032 38.1347C38.5004 37.4038 38.4212 36.5996 38.5756 35.8236C38.7299 35.0477 39.1109 34.335 39.6703 33.7756C40.2297 33.2162 40.9424 32.8352 41.7183 32.6809C42.4943 32.5265 43.2985 32.6057 44.0294 32.9085C44.7603 33.2112 45.385 33.7239 45.8246 34.3817C46.2641 35.0395 46.4987 35.8129 46.4987 36.604C46.4987 37.6649 46.0773 38.6823 45.3271 39.4324C44.577 40.1826 43.5596 40.604 42.4987 40.604ZM52.4987 34.604H50.2167C49.7761 32.8909 48.7796 31.3724 47.3832 30.2865C45.9868 29.2007 44.2696 28.6089 42.5007 28.604V24.604H52.5007L52.4987 34.604Z" fill="#1FBEF9"/>
</svg>
