<svg width="48" height="48" viewBox="0 0 48 48" fill="none" xmlns="http://www.w3.org/2000/svg">
<path d="M46.5001 33H37.5001C37.1039 32.9945 36.7255 32.8348 36.4454 32.5546C36.1653 32.2745 36.0055 31.8961 36.0001 31.5V28.5C36.0055 28.1038 36.1653 27.7255 36.4454 27.4453C36.7255 27.1652 37.1039 27.0054 37.5001 27H46.5001C46.8962 27.0054 47.2746 27.1652 47.5547 27.4453C47.8349 27.7255 47.9946 28.1038 48.0001 28.5V31.5C47.9946 31.8961 47.8349 32.2745 47.5547 32.5546C47.2746 32.8348 46.8962 32.9945 46.5001 33ZM39.0001 2.99998C38.9914 2.60401 39.064 2.21048 39.2133 1.84363C39.3625 1.47678 39.5854 1.1444 39.8681 0.866979C40.4388 0.310755 41.2041 -0.000540432 42.0011 -0.000540432C42.798 -0.000540432 43.5634 0.310755 44.1341 0.866979C44.4164 1.14457 44.6388 1.47703 44.7878 1.84387C44.9367 2.21071 45.009 2.60416 45.0001 2.99998V24H39.0001V2.99998ZM28.5001 18H19.5001C19.1039 17.9945 18.7255 17.8348 18.4454 17.5546C18.1653 17.2745 18.0055 16.8961 18.0001 16.5V13.5C18.0055 13.1038 18.1653 12.7255 18.4454 12.4453C18.7255 12.1652 19.1039 12.0054 19.5001 12H28.5001C28.8962 12.0054 29.2746 12.1652 29.5547 12.4453C29.8348 12.7255 29.9946 13.1038 30.0001 13.5V16.5C29.9946 16.8961 29.8348 17.2745 29.5547 17.5546C29.2746 17.8348 28.8962 17.9945 28.5001 18ZM21.0001 2.99998C20.992 2.60201 21.067 2.20674 21.2205 1.83945C21.3739 1.47216 21.6023 1.14094 21.8911 0.866979C22.4527 0.311566 23.2107 5.42313e-05 24.0006 5.42313e-05C24.7904 5.42313e-05 25.5484 0.311566 26.1101 0.866979C26.3986 1.14103 26.6269 1.47228 26.7801 1.83957C26.9334 2.20686 27.0083 2.60209 27.0001 2.99998V8.99998H21.0001V2.99998ZM10.5001 39H1.50006C1.30314 39.0018 1.10794 38.9632 0.926498 38.8867C0.745053 38.8102 0.581206 38.6973 0.44506 38.555C0.302779 38.4188 0.189891 38.255 0.113358 38.0735C0.0368238 37.8921 -0.00173445 37.6969 5.98658e-05 37.5V34.5C-0.00173445 34.3031 0.0368238 34.1079 0.113358 33.9264C0.189891 33.745 0.302779 33.5811 0.44506 33.445C0.581206 33.3027 0.745053 33.1898 0.926498 33.1133C1.10794 33.0367 1.30314 32.9982 1.50006 33H10.5001C10.8962 33.0054 11.2746 33.1652 11.5547 33.4453C11.8348 33.7255 11.9946 34.1038 12.0001 34.5V37.5C11.9946 37.8961 11.8348 38.2745 11.5547 38.5546C11.2746 38.8348 10.8962 38.9945 10.5001 39ZM3.00006 2.99998C2.99142 2.60401 3.06398 2.21048 3.21326 1.84363C3.36255 1.47678 3.58539 1.1444 3.86806 0.866979C4.14545 0.584616 4.47771 0.362028 4.84437 0.212921C5.21103 0.0638139 5.60433 -0.00865429 6.00006 -2.09549e-05C6.39595 -0.00879166 6.78945 0.0636097 7.15629 0.21272C7.52314 0.361831 7.85555 0.584492 8.13306 0.866979C8.41555 1.14448 8.63821 1.4769 8.78732 1.84375C8.93643 2.21059 9.00883 2.60409 9.00006 2.99998V30H3.00006V2.99998ZM9.00006 45C9.00429 45.3917 8.92972 45.7802 8.78078 46.1425C8.63183 46.5048 8.41156 46.8335 8.13306 47.109C7.8591 47.3978 7.52788 47.6262 7.16059 47.7796C6.7933 47.933 6.39803 48.0081 6.00006 48C5.60209 48.0081 5.20682 47.933 4.83953 47.7796C4.47224 47.6262 4.14102 47.3978 3.86706 47.109C3.58856 46.8335 3.36829 46.5048 3.21934 46.1425C3.0704 45.7802 2.99583 45.3917 3.00006 45V42H9.00006V45ZM27.0001 45C27.0001 45.7956 26.684 46.5587 26.1214 47.1213C25.5588 47.6839 24.7957 48 24.0001 48C23.2044 48 22.4413 47.6839 21.8787 47.1213C21.3161 46.5587 21.0001 45.7956 21.0001 45V21H27.0001V45ZM45.0001 45C44.9893 45.7963 44.6667 46.5566 44.1014 47.1175C43.5362 47.6785 42.7734 47.9953 41.9771 48C41.5829 48.0064 41.1917 47.9304 40.8285 47.777C40.4654 47.6236 40.1383 47.3961 39.8681 47.109C39.5896 46.8335 39.3693 46.5048 39.2203 46.1425C39.0714 45.7802 38.9968 45.3917 39.0011 45V36H45.0011L45.0001 45Z" fill="#1FBEF9"/>
</svg>
