<svg width="57" height="46" viewBox="0 0 57 46" fill="none" xmlns="http://www.w3.org/2000/svg">
<path d="M41.4854 30.6809H46.5914V35.7869H41.4854V30.6809Z" fill="#1FBEF9"/>
<path d="M46.5914 20.469H41.4854V25.575H46.5914V20.469Z" fill="#1FBEF9"/>
<path fill-rule="evenodd" clip-rule="evenodd" d="M31.2737 10.2569H56.8037V45.9999H0.637695V0.0449219H31.2737V10.2569ZM18.5087 5.15092H26.1677V10.2569H18.5087V5.15092ZM26.1677 40.8929V35.7869H18.5087V40.8929H26.1677ZM26.1677 30.6809V25.5749H18.5087V30.6809H26.1677ZM26.1677 20.4689V15.3629H18.5087V20.4689H26.1677ZM51.6977 40.8929V15.3629H31.2737V20.4689H36.3797V25.5749H31.2737V30.6809H36.3797V35.7869H31.2737V40.8929H51.6977ZM5.74269 40.8929V35.7869H13.4017V40.8929H5.74269ZM5.74269 30.6809H13.4017V25.5749H5.7437L5.74269 30.6809ZM13.4017 20.4689V15.3629H5.7437V20.4689H13.4017ZM5.7437 10.2569H13.4027V5.15092H5.7437V10.2569Z" fill="#1FBEF9"/>
</svg>
