<svg width="55" height="56" viewBox="0 0 55 56" fill="none" xmlns="http://www.w3.org/2000/svg">
<path d="M52.4319 36.3189L36.0319 52.7189C35.4295 53.3018 34.6241 53.6277 33.7859 53.6277C32.9477 53.6277 32.1423 53.3018 31.5399 52.7189L2.56789 23.7519C1.96255 23.1466 1.65989 21.8176 1.65989 19.7649V5.22995C1.65069 4.80092 1.73125 4.37471 1.8964 3.97863C2.06154 3.58256 2.30763 3.22536 2.61889 2.92995C2.91545 2.63105 3.269 2.39472 3.65858 2.23497C4.04816 2.07522 4.46585 1.9953 4.88689 1.99995H19.4249C21.5109 1.99995 22.8569 2.30261 23.4629 2.90795L52.4319 31.8269C52.7251 32.1272 52.9563 32.4823 53.1121 32.872C53.2679 33.2617 53.3453 33.6783 53.3399 34.0979C53.3483 34.5105 53.272 34.9205 53.1158 35.3025C52.9597 35.6844 52.7269 36.0304 52.4319 36.3189ZM14.5799 8.40995C13.7299 8.3964 12.8862 8.55711 12.1007 8.88217C11.3153 9.20722 10.6047 9.68974 10.0129 10.2999C9.40176 10.8919 8.91848 11.6028 8.59289 12.3888C8.2673 13.1748 8.10632 14.0193 8.11989 14.8699C8.10673 15.7201 8.26791 16.564 8.59349 17.3495C8.91907 18.1349 9.40213 18.8454 10.0129 19.4369C10.6045 20.0477 11.3149 20.5308 12.1004 20.8563C12.8859 21.1819 13.7297 21.3431 14.5799 21.3299C15.4301 21.3431 16.2739 21.1819 17.0594 20.8563C17.8449 20.5308 18.5553 20.0477 19.1469 19.4369C19.7576 18.8454 20.2407 18.1349 20.5663 17.3495C20.8919 16.564 21.053 15.7201 21.0399 14.8699C21.0535 14.0193 20.8925 13.1748 20.5669 12.3888C20.2413 11.6028 19.758 10.8919 19.1469 10.2999C18.5551 9.68974 17.8445 9.20722 17.059 8.88217C16.2736 8.55711 15.4298 8.3964 14.5799 8.40995Z" stroke="#1FBEF9" stroke-width="3.19"/>
</svg>
