<svg width="63" height="63" viewBox="0 0 63 63" fill="none" xmlns="http://www.w3.org/2000/svg">
<path d="M36.6734 9.94504C34.6261 8.61229 32.3416 7.68547 29.9444 7.21504L29.9754 1.84204H22.5204L22.5344 7.25704C21.3389 7.50356 20.1696 7.86351 19.0424 8.33204C17.9211 8.8038 16.8478 9.38247 15.8374 10.06L11.9444 6.21404L6.73242 11.457L10.6194 15.297C9.27929 17.3315 8.34734 19.607 7.87542 21.997L2.35742 22.007V29.383L7.92142 29.363C8.1684 30.5487 8.52941 31.7078 8.99942 32.824C9.47211 33.942 10.0546 35.0102 10.7384 36.013" stroke="#1FBEF9" stroke-width="3" stroke-linecap="round"/>
<path d="M40.5887 60.1522V54.4642C41.7824 54.2233 42.9497 53.866 44.0737 53.3972C45.1977 52.9233 46.2742 52.3437 47.2887 51.6662L51.2617 55.5832L56.4767 50.3482L52.5007 46.4312C53.8404 44.3963 54.7729 42.121 55.2467 39.7312L60.6467 39.6982V32.3302L55.2027 32.3632C54.9578 31.1758 54.5974 30.0153 54.1267 28.8982C53.6526 27.7793 53.0702 26.7095 52.3877 25.7042L56.1507 21.9322L50.8837 16.7442L47.1217 20.5102C45.0743 19.1774 42.7899 18.2506 40.3927 17.7802L40.4237 12.4102H32.9677L32.9817 17.8252C31.7861 18.0717 30.6168 18.4316 29.4897 18.9002C28.3683 19.3719 27.295 19.9506 26.2847 20.6282L22.3927 16.7832L17.1807 22.0252L21.0677 25.8652C19.7275 27.8996 18.7956 30.1751 18.3237 32.5652L12.8057 32.5752V39.9512L18.3697 39.9312C18.6164 41.1182 18.9774 42.2786 19.4477 43.3962C19.9203 44.5141 20.5029 45.5823 21.1867 46.5852L17.1967 50.5592L22.4667 55.7382L26.4467 51.7762C28.4922 53.1146 30.7782 54.0431 33.1777 54.5102V60.1502C35.6457 60.1692 40.5857 60.1502 40.5857 60.1502L40.5887 60.1522Z" stroke="#1FBEF9" stroke-width="3" stroke-linecap="round"/>
<path d="M36.7551 42.4161C40.3052 42.4161 43.1831 39.5381 43.1831 35.9881C43.1831 32.438 40.3052 29.5601 36.7551 29.5601C33.2051 29.5601 30.3271 32.438 30.3271 35.9881C30.3271 39.5381 33.2051 42.4161 36.7551 42.4161Z" stroke="#1FBEF9" stroke-width="3" stroke-linecap="square"/>
</svg>
