<svg width="78" height="56" viewBox="0 0 78 56" fill="none" xmlns="http://www.w3.org/2000/svg">
<mask id="mask0_10_642" style="mask-type:luminance" maskUnits="userSpaceOnUse" x="0" y="0" width="78" height="56">
<path d="M77.165 0.341797H0.834961V55.3748H77.165V0.341797Z" fill="white"/>
</mask>
<g mask="url(#mask0_10_642)">
<path d="M52.4184 47.2788C52.3054 47.4468 52.1044 47.6078 52.0914 47.7788C52.0783 48.2665 51.9505 48.7443 51.7184 49.1734C51.4863 49.6026 51.1563 49.971 50.7553 50.2488C50.3543 50.5267 49.8934 50.7061 49.4101 50.7727C48.9268 50.8392 48.4346 50.791 47.9734 50.6318C47.3989 50.4254 46.8998 50.051 46.541 49.5571C46.1821 49.0633 45.9802 48.4729 45.9613 47.8628C45.9454 47.5258 45.8883 47.3298 45.4973 47.3628C44.2293 47.4828 43.8604 47.0338 43.3484 45.6478C43.1644 45.1478 43.0714 44.6168 42.9294 44.0728C42.1984 44.3188 41.4813 44.6198 40.7354 44.7998C39.3589 45.2033 37.9509 45.4903 36.5264 45.6578C34.6377 45.8019 32.7397 45.7684 30.8573 45.5578C28.6254 45.2582 26.461 44.5798 24.4573 43.5518C21.8661 42.2754 19.5488 40.5057 17.6353 38.3418C15.3059 35.7194 13.6505 32.5689 12.8123 29.1628C12.2205 26.8681 12.035 24.4875 12.2643 22.1288C12.3813 20.9748 12.6293 19.8348 12.7733 18.6828C12.7627 18.5737 12.7283 18.4683 12.6725 18.3739C12.6167 18.2796 12.5409 18.1986 12.4503 18.1368C9.42439 16.1494 6.54773 13.9436 3.84335 11.5368C2.8097 10.6393 1.91793 9.59038 1.19835 8.42581C0.429349 7.09181 0.923349 5.54381 2.27935 5.33181C3.04874 5.20596 3.83609 5.24482 4.58935 5.44581C7.4525 6.39615 10.1984 7.66864 12.7743 9.23881C13.9153 9.87381 15.0613 10.4978 16.2473 11.1498C19.2063 7.0238 23.4977 4.04451 28.3978 2.71442C33.2978 1.38434 38.5067 1.78485 43.1458 3.84841C47.7849 5.91197 51.5704 9.5123 53.8638 14.0422C56.1572 18.5721 56.8182 23.7543 55.7354 28.7148H56.3044C57.8174 28.7148 59.3323 28.7418 60.8443 28.7048C61.7973 28.6818 62.1334 28.8828 62.1254 29.9588C62.0974 33.9248 62.1133 37.8918 62.1163 41.8588C62.1163 42.0838 62.0163 42.3748 62.4104 42.4048C62.7603 42.4308 62.9644 42.3448 62.9604 41.9258C62.9483 40.6388 62.9694 39.3518 62.9714 38.0638C62.9714 36.4638 62.9714 34.8638 62.9714 33.2638C62.9714 32.4888 63.1934 32.2738 63.9664 32.2718C66.1934 32.2718 68.4193 32.2718 70.6463 32.2608C71.4303 32.2608 71.8953 32.8258 72.3933 33.2608C74.59 35.164 76.124 37.7169 76.7734 40.5498C77.2441 42.5559 77.289 44.6383 76.9053 46.6628C76.8223 47.1078 76.5944 47.4258 76.2113 47.4388C76.048 47.4241 75.8893 47.377 75.7444 47.3003C75.5994 47.2235 75.4713 47.1187 75.3673 46.9918C74.7902 46.305 74.261 45.5792 73.7833 44.8198C73.6479 44.5435 73.4266 44.3184 73.1527 44.1782C72.8787 44.0379 72.5667 43.9901 72.2634 44.0418C71.6094 44.1088 70.9413 44.0288 70.2823 44.0658C70.1698 44.0765 70.0604 44.1093 69.9606 44.1624C69.8607 44.2154 69.7723 44.2876 69.7003 44.3748C69.1524 45.1488 68.6084 45.9308 68.1384 46.7538C68.0326 46.9611 67.8666 47.1315 67.6623 47.2429C67.458 47.3542 67.2248 47.4012 66.9933 47.3778C65.2013 47.3698 63.4104 47.3778 61.6184 47.3778C60.7313 47.3778 59.8444 47.3868 58.9574 47.3718C58.6364 47.3658 58.4913 47.4418 58.4893 47.8048C58.4931 48.4343 58.2959 49.0485 57.9265 49.5582C57.5571 50.0679 57.0347 50.4464 56.4353 50.6388C55.7899 50.8604 55.0888 50.8594 54.444 50.6361C53.7991 50.4128 53.2476 49.9801 52.8773 49.4068C52.4797 48.7678 52.3125 48.012 52.4034 47.2648C52.6184 47.5818 52.8254 47.9038 53.0554 48.2088C53.1114 48.2828 53.2434 48.2988 53.3404 48.3418C53.3404 48.2418 53.3344 48.1328 53.3274 48.0288C53.3174 47.8688 53.3034 47.7088 53.2914 47.5478C53.4802 47.6011 53.6599 47.6827 53.8243 47.7898C53.9243 47.8768 53.9324 48.0728 53.9703 48.2218C54.0788 48.5525 54.2922 48.8388 54.578 49.0373C54.8638 49.2358 55.2066 49.3357 55.5544 49.3218C55.9634 49.2778 56.3405 49.0804 56.6097 48.7694C56.879 48.4584 57.0204 48.0569 57.0053 47.6458C56.9893 47.4384 56.932 47.2362 56.8367 47.0512C56.7415 46.8662 56.6102 46.7021 56.4506 46.5686C56.291 46.4351 56.1063 46.3349 55.9074 46.2738C55.7085 46.2127 55.4994 46.1919 55.2924 46.2128C55.1117 46.1912 54.935 46.1444 54.7673 46.0738C54.772 46.0285 54.7767 45.9828 54.7813 45.9368C54.5084 45.9888 54.1684 46.5488 53.9813 45.8708L54.4994 45.3188L54.3694 45.1868L53.5053 45.8328C53.6872 46.0654 53.8419 46.3181 53.9664 46.5858C54.0076 46.8247 54.0126 47.0684 53.9813 47.3088L53.7704 47.3178C53.7708 47.1816 53.7478 47.0463 53.7024 46.9178C53.5723 46.6908 53.3764 46.2968 53.2514 46.3128C52.9069 46.3849 52.5836 46.5351 52.3064 46.7518C52.2494 46.7908 52.3744 47.0968 52.4154 47.2788M60.5824 30.2788C60.4414 30.2598 60.3904 30.2468 60.3394 30.2468C55.244 30.2468 50.1487 30.2425 45.0533 30.2338C44.5863 30.2338 44.6164 30.4878 44.6174 30.7988C44.6174 34.4678 44.6293 38.1378 44.6083 41.8068C44.6083 42.3068 44.7644 42.4188 45.2354 42.4168C49.4787 42.4001 53.7217 42.4001 57.9644 42.4168C58.2024 42.4168 58.4693 42.2998 58.6643 42.6768C58.8724 42.9863 59.1588 43.2351 59.4944 43.3978C59.6363 43.4828 59.8863 43.3878 60.1023 43.3728L59.1124 42.6338L59.2193 42.4008C59.4791 42.4377 59.7304 42.5203 59.9613 42.6448C60.2934 42.9138 60.5774 42.9558 60.8783 42.6598C61.1793 42.3638 61.0444 42.0738 60.8184 41.7858C60.714 41.6235 60.6259 41.4514 60.5554 41.2718L60.6853 41.2058L61.5793 42.0728L61.6934 41.9628C61.5354 41.4508 60.7374 41.2248 61.1623 40.3858L60.5844 40.7518L60.5824 30.2788ZM37.5533 27.3208L37.6124 27.1398C37.0393 26.6488 36.4974 26.1158 35.8894 25.6728C33.5103 23.9398 31.1644 22.1518 28.7034 20.5398C25.4513 18.4088 22.1213 16.3948 18.7913 14.3858C16.5203 13.0158 14.2053 11.7148 11.8833 10.4328C9.5488 9.06567 7.09953 7.90461 4.56335 6.96281C4.00035 6.78989 3.41164 6.7158 2.82335 6.74381C2.32335 6.75481 2.19135 7.05081 2.42335 7.49881C2.62709 7.89842 2.8703 8.27664 3.14935 8.62781C4.70501 10.434 6.48084 12.0382 8.43535 13.4028C10.7647 15.1095 13.1313 16.7658 15.5353 18.3718C17.2673 19.5248 19.0504 20.6138 20.8764 21.6088C22.602 22.5535 24.3773 23.4047 26.1943 24.1588C28.1483 24.9658 30.1623 25.6368 32.1723 26.2988C33.2296 26.6279 34.306 26.8923 35.3954 27.0908C36.1014 27.2308 36.8313 27.2478 37.5504 27.3208M47.7263 16.0908C47.1264 16.1818 46.6214 16.2628 46.1104 16.3368C44.2924 16.6018 42.4804 16.9258 40.6544 17.1098C38.9094 17.2858 37.1544 17.3198 35.3974 17.4008C35.1194 17.4138 34.9874 17.4818 34.9883 17.7858C34.9963 19.4378 34.9883 21.0908 34.9944 22.7428C34.9944 23.1638 35.6814 23.7498 36.0064 23.6228C37.0324 23.2228 38.0554 22.8108 39.0774 22.3988C40.9683 21.6378 40.3563 21.6458 41.9493 22.5608C41.9643 22.5698 41.9823 22.5728 41.9973 22.5818C42.7593 23.0668 42.8194 23.3818 42.2974 24.1378C41.4734 25.3298 40.6573 26.5268 39.8313 27.7178C39.6302 28.0936 39.32 28.3998 38.9417 28.5961C38.5633 28.7924 38.1344 28.8697 37.7113 28.8178C37.2994 28.7608 36.8784 28.7758 36.4644 28.7328C35.9584 28.6798 35.4563 28.5998 34.9883 28.5328V29.9238C34.9883 30.9505 34.9883 31.9768 34.9883 33.0028C34.9883 33.7838 34.9883 33.8088 35.7943 33.7698C37.6863 33.6768 39.5764 33.5618 41.4674 33.4468C41.8824 33.4218 42.2943 33.3558 42.7084 33.3068C43.0474 33.2658 43.1513 33.0758 43.1443 32.7358C43.1233 31.7268 43.1353 30.7178 43.1443 29.7088C43.1443 28.9268 43.3624 28.7088 44.1293 28.7088C45.2423 28.7088 46.3563 28.6788 47.4683 28.7208C47.9864 28.7408 48.1524 28.5818 48.1934 28.0678C48.4243 25.3458 48.4183 22.6088 48.1754 19.8878C48.0574 18.6318 47.8813 17.3808 47.7273 16.0878M47.4094 14.6108C47.4086 14.4272 47.3929 14.2439 47.3624 14.0628C46.7294 11.7758 46.0953 9.48981 45.4423 7.20881C45.3805 6.96045 45.2381 6.73959 45.0373 6.58081C43.1752 5.38322 41.1158 4.52465 38.9543 4.04481C37.8544 3.80281 36.7304 3.67181 35.6153 3.50281C35.0583 3.41881 34.9953 3.48281 34.9944 4.07781C34.9944 7.81781 34.9944 11.5588 34.9833 15.2988C34.9833 15.7488 35.0933 15.9188 35.5673 15.8808C38.1453 15.6808 40.7283 15.5378 43.3013 15.2888C44.6583 15.1578 46.0014 14.8488 47.4104 14.6098M33.4633 3.52081C31.2473 3.22081 26.3063 4.69681 23.2363 6.61281C21.2303 7.84615 19.4694 9.43957 18.0424 11.3128C18.3584 11.3128 18.5473 11.3178 18.7374 11.3128C21.9174 11.2088 25.097 11.1055 28.2764 11.0028C28.481 10.9739 28.6897 10.9994 28.8813 11.0768C29.9734 11.7348 31.0604 12.4038 32.1164 13.1178C32.2082 13.2115 32.2775 13.3248 32.3193 13.4491C32.361 13.5735 32.374 13.7057 32.3573 13.8358C32.3274 13.9551 32.2706 14.066 32.1912 14.1599C32.1118 14.2539 32.012 14.3284 31.8993 14.3778C30.1754 14.9358 28.4384 15.4508 26.7064 15.9848C26.2453 16.1268 25.7913 16.2918 25.2813 16.4638L33.4633 21.8628V3.52081ZM14.0133 20.2208C13.4692 23.0457 13.5477 25.9553 14.2433 28.7468C14.3533 29.2198 14.4353 29.7278 15.0073 29.9378C16.4163 30.4548 17.7894 31.0948 19.2283 31.4998C21.3843 32.1367 23.5749 32.6499 25.7894 33.0368C28.1324 33.4128 30.5204 33.5088 32.8894 33.7478C33.4084 33.7998 33.5893 33.6128 33.5183 33.1168C33.5023 32.9435 33.5023 32.7691 33.5183 32.5958C33.4397 31.1457 33.496 29.6915 33.6864 28.2518C29.2823 27.1729 25.0289 25.5526 21.0233 23.4278C20.9976 23.5018 20.9811 23.5787 20.9743 23.6568C21.2943 25.7328 21.6094 27.8098 21.9454 29.8838C22.0114 30.2938 22.0874 30.6758 21.7134 30.9838C21.2983 31.3208 20.9223 31.0838 20.5723 30.8758C19.7304 30.3708 18.8894 29.8608 18.0784 29.3078C17.6717 29.0913 17.3321 28.7676 17.0963 28.3718C16.1883 26.0528 15.3593 23.7018 14.4963 21.3628C14.3693 21.0188 14.2113 20.6858 14.0153 20.2268M21.2644 33.6628C21.7205 36.1642 22.3944 38.6208 23.2784 41.0048C23.318 41.1142 23.3898 41.209 23.4844 41.2768C25.3241 42.4453 27.355 43.281 29.4844 43.7458C30.6504 43.9958 31.8493 44.0868 33.0303 44.2718C33.4304 44.3348 33.5154 44.1638 33.5113 43.8168C33.5014 42.8428 33.5113 41.8688 33.5113 40.8948C33.5113 39.1901 33.5113 37.4851 33.5113 35.7798C33.5113 35.5468 33.5733 35.2798 33.1814 35.2648C32.6094 35.2398 32.0394 35.1518 31.4664 35.1308C28.7086 35.0161 25.9655 34.6685 23.2663 34.0918C22.6294 33.9598 21.9933 33.8198 21.2663 33.6628M43.1023 34.7378C42.6273 34.8138 42.2224 34.9138 41.8134 34.9378C39.7134 35.0678 37.6133 35.1928 35.5134 35.2828C35.0944 35.3008 34.9833 35.4208 34.9874 35.8238C35.0043 37.7538 34.9944 39.6848 34.9944 41.6158C34.9944 42.3638 34.9753 43.1158 35.0113 43.8588C35.0183 44.0178 35.2333 44.3058 35.3354 44.2988C36.1681 44.2588 36.9975 44.1656 37.8184 44.0198C39.484 43.7075 41.108 43.2042 42.6584 42.5198C42.8136 42.4703 42.9472 42.3693 43.037 42.2334C43.1269 42.0975 43.1676 41.935 43.1524 41.7728C43.1364 39.6168 43.1453 37.4598 43.1433 35.3028C43.1433 35.1508 43.1213 34.9978 43.1003 34.7388M44.3904 43.8808C44.5993 44.5568 44.7623 45.1148 44.9493 45.6648C44.9833 45.7648 45.1163 45.9068 45.1964 45.9018C45.7883 45.8668 46.3964 46.1108 46.9364 45.5488C47.2126 45.2728 47.5409 45.0543 47.9021 44.9059C48.2634 44.7575 48.6504 44.6821 49.0409 44.6842C49.4315 44.6862 49.8177 44.7656 50.1774 44.9178C50.537 45.07 50.863 45.2919 51.1363 45.5708C51.4496 45.8118 51.8328 45.9443 52.228 45.9485C52.6232 45.9526 53.0091 45.8281 53.3274 45.5938C53.7267 45.2818 54.1448 44.9946 54.5793 44.7338C54.6586 44.9068 54.7594 45.0691 54.8793 45.2168C55.2273 45.5058 55.5884 45.7788 55.9584 46.0388C56.0583 46.1078 56.2753 46.1678 56.3153 46.1228C56.4036 46.0093 56.4438 45.8657 56.4273 45.7228C56.3853 45.4298 56.2943 45.1428 56.2273 44.8538C56.7266 45.075 57.2055 45.3397 57.6584 45.6448C57.8387 45.7844 58.0512 45.8765 58.2764 45.9128C61.0097 45.9308 63.741 45.9308 66.4704 45.9128C66.5913 45.9038 66.7092 45.8705 66.8169 45.8148C66.9247 45.7592 67.0201 45.6823 67.0974 45.5888C67.5284 45.0068 67.9073 44.3888 68.2973 43.7738C68.4444 43.5428 68.6723 43.3008 68.6814 43.0568C68.7234 41.9498 68.6993 40.8418 68.6993 39.6698C67.4174 39.6698 66.1874 39.6868 64.9574 39.6608C64.5404 39.6518 64.4163 39.7848 64.4273 40.1928C64.4524 41.1318 64.4433 42.0718 64.4273 43.0108C64.4193 43.6108 64.2133 43.8638 63.6913 43.8748C62.7913 43.8938 61.8794 43.8388 60.9784 43.8938C60.1263 43.834 59.2716 43.8229 58.4184 43.8608C58.2974 43.8818 58.1314 43.6408 57.9854 43.5208C58.1133 43.4208 58.2383 43.3208 58.3703 43.2268C58.4235 43.1973 58.4799 43.1738 58.5383 43.1568C58.5383 43.1001 58.5364 43.0431 58.5323 42.9858C58.3583 42.9858 58.1044 42.9138 58.0274 42.9998C57.8255 43.276 57.6506 43.5711 57.5053 43.8808H44.3904ZM74.3444 38.1128C73.583 36.5989 72.511 35.2625 71.1983 34.1908C70.9319 33.9577 70.6003 33.8121 70.2484 33.7738C68.4773 33.7368 66.7044 33.7738 64.9324 33.7568C64.5323 33.7568 64.4263 33.9018 64.4324 34.2758C64.4504 35.3698 64.4594 36.4658 64.4324 37.5598C64.4203 38.0088 64.5383 38.1598 65.0083 38.1518C67.9273 38.1298 70.8464 38.1418 73.7654 38.1398C73.9333 38.1398 74.1023 38.1248 74.3474 38.1128M54.7774 23.1628C54.6326 21.8494 54.422 20.5441 54.1464 19.2518C53.7774 17.8388 53.2123 16.4748 52.7024 15.1008C52.6474 14.9528 52.3624 14.7568 52.2383 14.7888C51.3223 15.0298 50.4213 15.3308 49.5113 15.5968C49.2693 15.6678 49.1923 15.7568 49.2203 16.0328C49.4363 18.1388 49.6273 20.2468 49.8264 22.3548C49.8514 22.6238 49.8793 22.8928 49.9063 23.1628H54.7774ZM49.6303 28.6628C49.6951 28.687 49.7621 28.7047 49.8303 28.7158C50.943 28.7198 52.0554 28.7221 53.1674 28.7228C54.1544 28.7228 54.1534 28.7228 54.3344 27.7798C54.3933 27.4728 54.4823 27.1688 54.5144 26.8598C54.5854 26.1598 54.6283 25.4548 54.6853 24.7238H49.9114C49.8173 26.0478 49.7243 27.3418 49.6303 28.6628ZM29.7703 13.4788C29.5022 13.1746 29.1709 12.9325 28.7996 12.7694C28.4282 12.6064 28.0258 12.5263 27.6203 12.5348C25.0203 12.6248 22.4174 12.7191 19.8113 12.8178C19.6723 12.8228 19.5344 12.8558 19.3034 12.8898C19.4454 13.0048 19.4934 13.0538 19.5494 13.0898C20.5914 13.7238 21.6413 14.3458 22.6754 14.9898C22.8884 15.1491 23.1366 15.2548 23.3991 15.2979C23.6615 15.3411 23.9305 15.3205 24.1833 15.2378C25.5073 14.7968 26.8484 14.4068 28.1833 13.9928C28.6933 13.8338 29.1994 13.6658 29.7733 13.4798M15.3483 31.7398C15.5283 33.4338 19.6553 38.9928 21.0933 39.4508C21.101 39.382 21.101 39.3126 21.0933 39.2438C20.6293 37.3248 20.1684 35.4038 19.6854 33.4898C19.6558 33.4061 19.609 33.3294 19.5481 33.2648C19.4871 33.2002 19.4133 33.1491 19.3314 33.1148C18.0074 32.6418 16.6743 32.1938 15.3493 31.7408M75.4793 44.6028C75.7092 43.0436 75.5597 41.4519 75.0434 39.9628C74.995 39.8845 74.9291 39.8186 74.8508 39.7703C74.7725 39.7221 74.684 39.6928 74.5924 39.6848C73.6924 39.6578 72.7853 39.6718 71.8813 39.6718H70.2624V42.5488C71.2823 42.5488 72.2693 42.5618 73.2553 42.5428C73.4777 42.5197 73.702 42.5617 73.9008 42.6638C74.0997 42.7659 74.2646 42.9236 74.3754 43.1178C74.7013 43.6398 75.1074 44.1108 75.4753 44.6048M15.7583 20.3258C15.7742 20.4632 15.7999 20.5992 15.8353 20.7328C16.5653 22.7118 17.3744 24.6658 18.0044 26.6758C18.3674 27.8328 19.2283 28.2758 20.1803 28.7998C20.1868 28.6979 20.1868 28.5957 20.1803 28.4938C19.9254 26.7778 19.6503 25.0648 19.4203 23.3458C19.4084 23.0649 19.3213 22.7924 19.1681 22.5567C19.0149 22.321 18.8012 22.1307 18.5494 22.0058C17.6144 21.5118 16.7313 20.9178 15.7593 20.3248M51.7024 13.4138C51.1024 11.9728 48.1334 8.56381 47.4613 8.51381C47.5504 8.81381 47.6503 9.10681 47.7253 9.40681C48.0914 10.8658 48.4444 12.3288 48.8254 13.7848C48.8604 13.9178 49.0784 14.1258 49.1654 14.1048C50.0134 13.9048 50.8523 13.6548 51.7034 13.4188M49.0603 46.2188C48.8524 46.2058 48.6439 46.2352 48.4477 46.3055C48.2515 46.3757 48.0717 46.4852 47.9192 46.6273C47.7667 46.7693 47.6448 46.941 47.561 47.1318C47.4771 47.3226 47.433 47.5284 47.4314 47.7368C47.4478 48.1459 47.6145 48.5346 47.8995 48.8285C48.1846 49.1224 48.568 49.3009 48.9763 49.3298C49.3871 49.3259 49.7806 49.1636 50.0746 48.8767C50.3686 48.5897 50.5405 48.2004 50.5544 47.7898C50.5684 47.5864 50.54 47.3823 50.4709 47.1905C50.4018 46.9986 50.2936 46.8233 50.1531 46.6755C50.0126 46.5278 49.8429 46.4109 49.6547 46.3323C49.4666 46.2536 49.2642 46.215 49.0603 46.2188ZM38.8653 26.4288C39.4653 25.5668 40.0243 24.7808 40.5653 23.9868C40.6293 23.8578 40.6751 23.7204 40.7014 23.5788C40.5461 23.5311 40.3829 23.5151 40.2214 23.5318C39.6684 23.7238 39.1213 23.9478 38.5854 24.1738C38.1244 24.3658 37.6713 24.5738 37.3593 24.7158L38.8593 26.4298" fill="#1FBEF9"/>
<path d="M25.1902 50.8077C24.7492 50.2257 24.4042 49.7757 24.0652 49.3207C23.9866 49.2451 23.9247 49.1537 23.8836 49.0526C23.8425 48.9515 23.8231 48.8429 23.8267 48.7338C23.8303 48.6247 23.8568 48.5176 23.9044 48.4194C23.952 48.3212 24.0198 48.2341 24.1032 48.1637C24.5212 47.8437 24.8302 47.9007 25.2312 48.4107C25.9252 49.2921 26.6116 50.1797 27.2902 51.0737C27.6592 51.5607 27.5822 51.8917 27.1132 52.3737C26.3062 53.2037 25.5242 54.0587 24.7252 54.8967C24.5863 55.0719 24.4114 55.2151 24.2122 55.3167C24.1382 55.3554 24.0571 55.3787 23.9739 55.3854C23.8906 55.392 23.8069 55.3819 23.7277 55.3554C23.6484 55.329 23.5753 55.2869 23.5127 55.2317C23.4501 55.1764 23.3993 55.1091 23.3632 55.0337C23.3116 54.887 23.2914 54.7309 23.3042 54.5758C23.3169 54.4208 23.3623 54.2701 23.4372 54.1337C23.8922 53.5337 24.4462 53.0127 25.0472 52.3677C24.7372 52.3197 24.5472 52.2817 24.3472 52.2607C20.4968 51.8713 16.8868 50.2069 14.0902 47.5317C12.4598 45.9782 11.1409 44.1277 10.2042 42.0797C10.0843 41.8966 10.0421 41.6733 10.0867 41.459C10.1313 41.2447 10.2592 41.0568 10.4422 40.9367C10.9032 40.7077 11.2962 40.8557 11.5562 41.4227C12.5374 43.5973 13.991 45.5257 15.8112 47.0677C17.4254 48.4572 19.3135 49.4918 21.3532 50.1047C22.2632 50.3727 23.2042 50.5387 24.1362 50.7277C24.4857 50.7751 24.8376 50.8022 25.1902 50.8087" fill="#1FBEF9"/>
<path d="M63.0109 15.7058C63.6249 15.1658 64.148 14.7058 64.673 14.2428C64.8232 14.0853 65.0284 13.992 65.2458 13.9821C65.4632 13.9722 65.676 14.0466 65.8399 14.1898C65.9093 14.2738 65.9604 14.3713 65.9902 14.4761C66.0199 14.5809 66.0275 14.6908 66.0125 14.7987C65.9976 14.9066 65.9604 15.0102 65.9033 15.103C65.8462 15.1958 65.7705 15.2757 65.6809 15.3378C64.7029 16.2308 63.7399 17.1428 62.7219 17.9888C62.5863 18.0683 62.4329 18.1127 62.2758 18.118C62.1186 18.1232 61.9626 18.0891 61.8219 18.0188C60.8289 17.2798 59.883 16.4758 58.937 15.6758C58.8565 15.6178 58.789 15.5436 58.739 15.458C58.689 15.3723 58.6575 15.2771 58.6466 15.1785C58.6356 15.0799 58.6455 14.9802 58.6755 14.8856C58.7056 14.7911 58.7551 14.7039 58.8209 14.6298C58.8852 14.5482 58.9663 14.4814 59.0587 14.434C59.1511 14.3867 59.2527 14.3598 59.3565 14.3552C59.4602 14.3507 59.5637 14.3685 59.6599 14.4076C59.7561 14.4467 59.8428 14.5061 59.914 14.5818L61.4599 15.7928C61.4599 15.4108 61.4839 15.1588 61.4599 14.9128C61.1844 12.0013 60.1431 9.21456 58.4419 6.83576C56.9165 4.70972 54.8876 2.99521 52.5369 1.84576C52.4273 1.81276 52.3263 1.75624 52.2408 1.68012C52.1554 1.60401 52.0875 1.51016 52.0421 1.40511C51.9967 1.30007 51.9747 1.18637 51.9778 1.07196C51.9809 0.957556 52.0089 0.845203 52.0599 0.742755C52.2809 0.297755 52.6279 0.225755 53.1929 0.507755C53.5309 0.677755 53.8809 0.827755 54.2059 1.02076C56.6972 2.46974 58.7956 4.50695 60.3176 6.95429C61.8397 9.40162 62.739 12.1846 62.937 15.0598C62.95 15.2298 62.9729 15.3998 63.0069 15.7038" fill="#1FBEF9"/>
<path d="M68.6719 47.6787C68.6742 47.2799 68.7559 46.8855 68.9124 46.5187C69.0689 46.1518 69.297 45.8198 69.5833 45.5422C69.8696 45.2645 70.2085 45.0467 70.58 44.9015C70.9515 44.7564 71.3481 44.6868 71.7469 44.6967C72.15 44.6998 72.5486 44.783 72.9192 44.9416C73.2899 45.1002 73.6253 45.3309 73.906 45.6203C74.1867 45.9097 74.407 46.252 74.5541 46.6274C74.7012 47.0028 74.7722 47.4037 74.7629 47.8067C74.7596 48.2109 74.6747 48.6103 74.5132 48.9808C74.3517 49.3514 74.117 49.6855 73.8231 49.9631C73.5293 50.2406 73.1824 50.456 72.8033 50.5962C72.4242 50.7363 72.0206 50.7984 71.6169 50.7787C71.2177 50.776 70.8231 50.6928 70.4569 50.5341C70.0906 50.3754 69.7601 50.1444 69.4851 49.855C69.2102 49.5656 68.9965 49.2237 68.8567 48.8498C68.717 48.4758 68.6541 48.0775 68.6719 47.6787ZM71.7289 46.2177C71.5259 46.2078 71.3229 46.2393 71.1324 46.3103C70.9419 46.3812 70.7678 46.4901 70.6207 46.6304C70.4736 46.7707 70.3565 46.9394 70.2766 47.1263C70.1967 47.3133 70.1556 47.5145 70.1559 47.7177C70.1541 48.1372 70.3162 48.5407 70.6076 48.8423C70.899 49.144 71.2967 49.32 71.7159 49.3327C72.1252 49.3126 72.5119 49.1392 72.7993 48.8471C73.0866 48.5549 73.2536 48.1653 73.2669 47.7557C73.271 47.5525 73.2339 47.3506 73.158 47.162C73.0821 46.9734 72.9689 46.8021 72.8252 46.6584C72.6815 46.5147 72.5102 46.4015 72.3216 46.3256C72.1331 46.2497 71.9311 46.2126 71.7279 46.2167" fill="#1FBEF9"/>
<path d="M52.4815 47.6787C52.4837 47.2799 52.5655 46.8855 52.722 46.5187C52.8785 46.1518 53.1066 45.8198 53.3929 45.5422C53.6792 45.2645 54.018 45.0467 54.3895 44.9015C54.761 44.7564 55.1577 44.6868 55.5564 44.6967C55.9596 44.6998 56.3581 44.783 56.7288 44.9416C57.0995 45.1002 57.4349 45.3309 57.7156 45.6203C57.9963 45.9097 58.2166 46.252 58.3637 46.6274C58.5108 47.0028 58.5818 47.4037 58.5725 47.8067C58.5692 48.2109 58.4842 48.6103 58.3227 48.9808C58.1612 49.3514 57.9265 49.6855 57.6327 49.9631C57.3389 50.2406 56.992 50.456 56.6129 50.5962C56.2337 50.7363 55.8302 50.7984 55.4265 50.7787C55.0273 50.776 54.6327 50.6928 54.2664 50.5341C53.9001 50.3754 53.5697 50.1444 53.2947 49.855C53.0198 49.5656 52.806 49.2237 52.6663 48.8498C52.5266 48.4758 52.4637 48.0775 52.4815 47.6787ZM55.5385 46.2177C55.3354 46.2078 55.1325 46.2393 54.942 46.3103C54.7515 46.3812 54.5774 46.4901 54.4303 46.6304C54.2832 46.7707 54.1661 46.9394 54.0862 47.1263C54.0063 47.3133 53.9652 47.5145 53.9654 47.7177C53.9637 48.1372 54.1258 48.5407 54.4172 48.8423C54.7085 49.144 55.1062 49.32 55.5255 49.3327C55.9348 49.3126 56.3215 49.1392 56.6089 48.8471C56.8962 48.5549 57.0631 48.1653 57.0765 47.7557C57.0805 47.5525 57.0435 47.3506 56.9676 47.162C56.8917 46.9734 56.7785 46.8021 56.6348 46.6584C56.491 46.5147 56.3198 46.4015 56.1312 46.3256C55.9426 46.2497 55.7407 46.2126 55.5375 46.2167" fill="#1FBEF9"/>
<path d="M54.8457 44.7717C55.8607 44.6217 55.9257 44.6717 56.0937 45.7617L54.8457 44.7717Z" fill="#1FBEF9"/>
<path d="M52.8123 47.4678L52.7793 46.6968C52.9463 46.7048 53.1953 46.6458 53.2653 46.7328C53.5183 47.0458 53.2793 47.2218 52.8113 47.4678" fill="#1FBEF9"/>
<path d="M51.1621 47.7368C51.1621 47.7368 52.9341 47.2577 53.0561 48.2077C53.1781 49.1577 53.3681 47.0757 53.3681 47.0757L53.7171 46.1378H51.7011L51.1621 47.0757V47.7368Z" fill="#1FBEF9"/>
<path d="M60.5857 37.5328V42.1328L56.5507 42.4138L56.0947 43.8788H63.4427L62.0767 42.9008L61.3647 39.4528L60.5857 37.5328Z" fill="#1FBEF9"/>
</g>
</svg>
