<svg width="50" height="50" viewBox="0 0 50 50" fill="none" xmlns="http://www.w3.org/2000/svg">
<path d="M48.214 21.429H46.429V14.286H42.857V21.429H39.286V14.286H35.714V21.429H33.929C33.6945 21.429 33.4622 21.4752 33.2455 21.565C33.0288 21.6547 32.832 21.7863 32.6661 21.9521C32.5003 22.118 32.3687 22.3148 32.2789 22.5315C32.1892 22.7482 32.143 22.9805 32.143 23.215V30.358C32.1458 32.4153 32.8577 34.4087 34.1589 36.0022C35.46 37.5957 37.2708 38.6919 39.286 39.106V44.643C39.286 44.8775 39.2398 45.1098 39.15 45.3265C39.0603 45.5432 38.9287 45.74 38.7629 45.9059C38.597 46.0717 38.4002 46.2033 38.1835 46.293C37.9668 46.3828 37.7345 46.429 37.5 46.429H5.357C4.89077 46.418 4.44735 46.225 4.12151 45.8914C3.79567 45.5577 3.61326 45.1099 3.61326 44.6435C3.61326 44.1771 3.79567 43.7293 4.12151 43.3956C4.44735 43.062 4.89077 42.869 5.357 42.858H14.286C15.7068 42.858 17.0693 42.2936 18.074 41.289C19.0786 40.2843 19.643 38.9218 19.643 37.501C19.643 36.0802 19.0786 34.7177 18.074 33.713C17.0693 32.7084 15.7068 32.144 14.286 32.144H5.357C4.89077 32.133 4.44735 31.94 4.12151 31.6064C3.79567 31.2727 3.61326 30.8249 3.61326 30.3585C3.61326 29.8921 3.79567 29.4443 4.12151 29.1106C4.44735 28.777 4.89077 28.584 5.357 28.573H14.286C15.7064 28.5717 17.0682 28.0069 18.0725 27.0025C19.0769 25.9982 19.6417 24.6364 19.643 23.216V16.071H21.429C23.3227 16.0686 25.1382 15.3153 26.4772 13.9762C27.8163 12.6372 28.5696 10.8217 28.572 8.928V3.571H23.214C21.3858 3.57376 19.629 4.28113 18.309 5.546C17.3839 3.86758 16.0258 2.46781 14.3762 1.49241C12.7265 0.51702 10.8455 0.00166535 8.929 0H3.571V5.357C3.57444 8.19765 4.70448 10.9209 6.71321 12.9295C8.72195 14.938 11.4454 16.0678 14.286 16.071H16.072V23.214C16.072 23.4485 16.0258 23.6808 15.936 23.8975C15.8463 24.1142 15.7147 24.311 15.5489 24.4769C15.383 24.6427 15.1862 24.7743 14.9695 24.864C14.7528 24.9538 14.5205 25 14.286 25H5.357C3.93624 25 2.57366 25.5644 1.56903 26.569C0.564397 27.5737 0 28.9362 0 30.357C0 31.7778 0.564397 33.1403 1.56903 34.145C2.57366 35.1496 3.93624 35.714 5.357 35.714H14.286C14.524 35.7084 14.7608 35.7504 14.9823 35.8376C15.2039 35.9248 15.4058 36.0554 15.5761 36.2218C15.7465 36.3881 15.8818 36.5868 15.9742 36.8063C16.0667 37.0257 16.1143 37.2614 16.1143 37.4995C16.1143 37.7376 16.0667 37.9733 15.9742 38.1927C15.8818 38.4122 15.7465 38.6109 15.5761 38.7772C15.4058 38.9436 15.2039 39.0742 14.9823 39.1614C14.7608 39.2486 14.524 39.2906 14.286 39.285H5.357C3.93624 39.285 2.57366 39.8494 1.56903 40.854C0.564397 41.8587 0 43.2212 0 44.642C0 46.0628 0.564397 47.4253 1.56903 48.43C2.57366 49.4346 3.93624 49.999 5.357 49.999H37.5C38.9203 49.9974 40.2819 49.4325 41.2862 48.4282C42.2905 47.4239 42.8554 46.0623 42.857 44.642V39.105C44.8722 38.6909 46.683 37.5947 47.9841 36.0012C49.2853 34.4077 49.9972 32.4143 50 30.357V23.214C49.9997 22.7405 49.8115 22.2865 49.4765 21.9518C49.1416 21.617 48.6875 21.429 48.214 21.429ZM19.643 10.714C19.6441 9.76724 20.0206 8.85955 20.6901 8.19009C21.3596 7.52063 22.2672 7.14406 23.214 7.143H25V8.929C24.9989 9.87576 24.6224 10.7834 23.9529 11.4529C23.2834 12.1224 22.3758 12.4989 21.429 12.5H19.643V10.714ZM14.286 12.5C12.3923 12.4976 10.5768 11.7443 9.23777 10.4052C7.89871 9.06618 7.14538 7.25071 7.143 5.357V3.571H8.929C10.8227 3.57338 12.6382 4.32671 13.9772 5.66577C15.3163 7.00482 16.0696 8.82029 16.072 10.714V12.5H14.286ZM46.429 30.357C46.429 31.0605 46.2904 31.7571 46.0212 32.407C45.752 33.057 45.3574 33.6475 44.86 34.145C44.3625 34.6424 43.772 35.037 43.122 35.3062C42.4721 35.5754 41.7755 35.714 41.072 35.714C40.3685 35.714 39.6719 35.5754 39.022 35.3062C38.372 35.037 37.7815 34.6424 37.284 34.145C36.7866 33.6475 36.392 33.057 36.1228 32.407C35.8536 31.7571 35.715 31.0605 35.715 30.357V25H46.429V30.357Z" fill="#1FBEF9"/>
</svg>
