<svg width="43" height="59" viewBox="0 0 43 59" fill="none" xmlns="http://www.w3.org/2000/svg">
<mask id="mask0_10_618" style="mask-type:luminance" maskUnits="userSpaceOnUse" x="0" y="0" width="43" height="59">
<path d="M42.7346 0.341797H0.264648V58.6578H42.7346V0.341797Z" fill="white"/>
</mask>
<g mask="url(#mask0_10_618)">
<path d="M21.605 41.4768H7.16902C6.85014 41.5195 6.52596 41.4586 6.24434 41.303C5.96272 41.1475 5.73858 40.9055 5.60502 40.6128C5.4835 40.263 5.42724 39.8939 5.43902 39.5238C5.42302 37.9858 5.43402 36.4468 5.43902 34.9088C5.43902 30.7448 5.43902 26.5808 5.43902 22.4168C5.43732 22.2444 5.446 22.0721 5.46502 21.9008C5.49953 21.5585 5.65992 21.2412 5.91508 21.0105C6.17025 20.7797 6.50201 20.652 6.84602 20.652C7.19004 20.652 7.5218 20.7797 7.77696 21.0105C8.03213 21.2412 8.19252 21.5585 8.22702 21.9008C8.24986 22.1648 8.25821 22.4298 8.25202 22.6948C8.25202 27.8948 8.24936 33.0931 8.24402 38.2898C8.24402 38.5818 8.32002 38.6768 8.62502 38.6768C17.1384 38.6694 25.652 38.6678 34.166 38.6718C34.996 38.6718 34.988 38.6668 34.987 37.8528C34.987 32.6408 34.987 27.4291 34.987 22.2178C34.987 20.9968 35.841 20.3298 36.893 20.7038C37.1257 20.7669 37.3326 20.9017 37.4843 21.0891C37.636 21.2766 37.7248 21.507 37.738 21.7478C37.766 22.1568 37.763 22.5688 37.763 22.9788C37.759 28.3628 37.7544 33.7464 37.749 39.1298C37.749 39.3548 37.762 39.5808 37.768 39.8058C37.7933 40.0251 37.7699 40.2473 37.6995 40.4565C37.629 40.6657 37.5132 40.8568 37.3604 41.0162C37.2076 41.1755 37.0215 41.2991 36.8154 41.3782C36.6092 41.4573 36.3882 41.4899 36.168 41.4738C35.147 41.4848 34.126 41.4738 33.105 41.4738H21.605" fill="#1FBEF9"/>
<path d="M21.712 3.55374C21.153 4.08274 20.624 4.59974 20.078 5.09974C15.536 9.26707 10.9896 13.4324 6.43897 17.5957C5.19697 18.7327 3.95597 19.8717 2.70097 20.9957C2.4901 21.2405 2.19832 21.4014 1.87877 21.4492C1.55922 21.4969 1.23316 21.4282 0.959974 21.2557C0.775333 21.1631 0.616327 21.0264 0.496981 20.8578C0.377635 20.6892 0.301616 20.4938 0.275627 20.2888C0.249639 20.0839 0.274481 19.8757 0.347961 19.6826C0.421441 19.4896 0.541303 19.3175 0.696974 19.1817C2.07564 17.8604 3.47164 16.5567 4.88497 15.2707C10.085 10.5047 15.2883 5.74174 20.495 0.981738C20.6881 0.735108 20.9489 0.550122 21.2455 0.449418C21.5421 0.348715 21.8616 0.336663 22.165 0.414738C22.4603 0.52513 22.7296 0.695357 22.956 0.914738C28.002 5.65274 33.0426 10.3964 38.078 15.1457C39.4386 16.4277 40.792 17.7177 42.138 19.0157C42.87 19.7157 42.925 20.3967 42.333 21.0267C42.201 21.1739 42.0389 21.2909 41.8577 21.3699C41.6765 21.4489 41.4804 21.488 41.2828 21.4846C41.0851 21.4812 40.8905 21.4353 40.7122 21.3501C40.5338 21.2649 40.3758 21.1423 40.249 20.9907C38.861 19.6997 37.496 18.3827 36.113 17.0847C32.7876 13.9621 29.4606 10.8414 26.132 7.72274C24.732 6.40574 23.344 5.07474 21.95 3.75174C21.893 3.69774 21.829 3.65174 21.714 3.55174" fill="#1FBEF9"/>
<path d="M21.5293 42.8608C25.1093 42.8608 28.6897 42.8608 32.2703 42.8608C32.5488 42.8516 32.8273 42.8751 33.1003 42.9308C33.3874 43.0214 33.6352 43.2065 33.8036 43.456C33.9719 43.7055 34.0508 44.0047 34.0273 44.3048C34.0441 44.613 33.9472 44.9166 33.7549 45.1581C33.5627 45.3995 33.2885 45.562 32.9843 45.6147C32.7495 45.6546 32.5115 45.6737 32.2733 45.6718C25.126 45.6718 17.979 45.6718 10.8323 45.6718C10.5546 45.6762 10.277 45.6544 10.0033 45.6068C9.69865 45.5295 9.43154 45.346 9.25006 45.0894C9.06858 44.8327 8.98463 44.5198 9.01333 44.2067C9.00378 43.8986 9.10588 43.5973 9.30084 43.3584C9.49579 43.1196 9.77048 42.9592 10.0743 42.9068C10.3506 42.8718 10.6289 42.8565 10.9073 42.8608C14.448 42.8608 17.9887 42.8608 21.5293 42.8608Z" fill="#1FBEF9"/>
<path d="M21.5209 53.4388H10.9359C10.7239 53.4388 10.5109 53.4388 10.2999 53.4268C9.96787 53.4 9.65641 53.2552 9.4221 53.0184C9.18779 52.7816 9.04616 52.4686 9.02292 52.1363C8.99969 51.804 9.09639 51.4744 9.29547 51.2073C9.49456 50.9402 9.78281 50.7534 10.1079 50.6808C10.2637 50.6507 10.4222 50.6363 10.5809 50.6378C17.7969 50.6378 25.0126 50.6378 32.2279 50.6378C32.4135 50.6324 32.5992 50.6391 32.7839 50.6578C32.9635 50.6675 33.1391 50.7141 33.2999 50.7945C33.4608 50.875 33.6034 50.9876 33.7189 51.1254C33.8344 51.2633 33.9204 51.4233 33.9715 51.5958C34.0225 51.7682 34.0377 51.9493 34.0159 52.1278C34.022 52.3047 33.9908 52.4809 33.9242 52.6449C33.8577 52.809 33.7573 52.9572 33.6296 53.0798C33.502 53.2025 33.3499 53.2968 33.1833 53.3568C33.0168 53.4167 32.8394 53.4409 32.6629 53.4278C31.3899 53.4488 30.1169 53.4378 28.8429 53.4388H21.5209Z" fill="#1FBEF9"/>
<path d="M21.5272 46.9377H32.1892C32.3352 46.9377 32.4812 46.9377 32.6262 46.9377C32.8057 46.9257 32.9857 46.9515 33.1546 47.0134C33.3235 47.0754 33.4775 47.172 33.6068 47.2972C33.736 47.4223 33.8375 47.5732 33.9047 47.74C33.972 47.9069 34.0035 48.086 33.9972 48.2657C34.0121 48.4484 33.9899 48.6323 33.932 48.8062C33.8741 48.9801 33.7817 49.1405 33.6603 49.2779C33.5389 49.4152 33.391 49.5267 33.2255 49.6055C33.0601 49.6844 32.8804 49.729 32.6972 49.7367C32.6307 49.7426 32.564 49.745 32.4972 49.7437C25.1912 49.7437 17.8849 49.7437 10.5782 49.7437C10.3923 49.7673 10.2035 49.7528 10.0234 49.7011C9.84322 49.6494 9.67548 49.5615 9.53037 49.4429C9.38527 49.3243 9.26583 49.1773 9.17933 49.0111C9.09283 48.8448 9.04108 48.6626 9.02724 48.4757C8.99804 48.2994 9.0055 48.119 9.04915 47.9458C9.0928 47.7725 9.1717 47.6101 9.28093 47.4687C9.39016 47.3272 9.52737 47.2099 9.68399 47.1239C9.84062 47.0378 10.0133 46.985 10.1912 46.9687C10.6662 46.9327 11.1452 46.9477 11.6222 46.9477C14.9242 46.9477 18.2259 46.9477 21.5272 46.9477V46.9377Z" fill="#1FBEF9"/>
<path d="M26.6516 21.2307L19.9876 33.7677L19.9036 33.7387C19.9676 33.1827 20.0256 32.6267 20.0956 32.0717C20.3766 29.8377 20.6546 27.6047 20.9516 25.3717C20.9906 25.0778 20.9336 25.0127 20.6386 25.0137C19.2876 25.0137 17.9386 24.9878 16.5846 24.9688C16.5057 24.9572 16.4278 24.9398 16.3516 24.9167L23.0026 12.4167L23.0806 12.4417L21.9936 21.0767L26.6506 21.2297" fill="#1FBEF9"/>
<path d="M27.6532 54.6438C27.6252 55.4342 27.2948 56.1838 26.7302 56.7378C25.7921 57.6895 24.5659 58.3047 23.2422 58.4878C21.25 58.8961 19.1777 58.5884 17.3902 57.6188C16.8714 57.3774 16.4161 57.0185 16.0602 56.5705C15.7044 56.1224 15.4578 55.5977 15.3402 55.0378C15.2802 54.7308 15.3562 54.6378 15.6712 54.6378C19.3552 54.6458 23.0388 54.6458 26.7222 54.6378H27.6522" fill="#1FBEF9"/>
</g>
</svg>
