<svg width="58" height="51" viewBox="0 0 58 51" fill="none" xmlns="http://www.w3.org/2000/svg">
<mask id="mask0_10_681" style="mask-type:luminance" maskUnits="userSpaceOnUse" x="0" y="0" width="58" height="52">
<path d="M57.5769 0.841797H0.422852V51.0008H57.5769V0.841797Z" fill="white"/>
</mask>
<g mask="url(#mask0_10_681)">
<path d="M16.804 41.3598C16.9182 41.121 17.0548 40.8937 17.212 40.6808C18.928 38.8808 20.657 37.0918 22.376 35.2948C22.576 35.0878 22.74 34.9208 23.065 35.0868C25.399 36.2728 27.753 37.4208 30.074 38.6318C31.0084 39.1247 31.7816 39.8755 32.3018 40.795C32.8219 41.7145 33.067 42.764 33.008 43.8188C33.047 45.4048 33.008 46.9918 33.04 48.5778C33.047 48.9708 32.852 49.0958 32.54 49.1528C29.945 49.6288 27.363 50.2028 24.751 50.5528C21.074 50.9959 17.3656 51.1214 13.667 50.9278C9.3982 50.8203 5.15483 50.2357 1.016 49.1848C0.922098 49.1769 0.830946 49.1492 0.74862 49.1033C0.666295 49.0575 0.594688 48.9946 0.538574 48.9189C0.482461 48.8432 0.443128 48.7564 0.4232 48.6643C0.403271 48.5722 0.403204 48.4769 0.423003 48.3848C0.485003 46.5848 0.423003 44.7798 0.560003 42.9848C0.59755 42.1691 0.83211 41.3746 1.24362 40.6693C1.65514 39.964 2.23136 39.3689 2.923 38.9348C5.32114 37.4184 7.85706 36.1317 10.497 35.0918C10.609 35.0819 10.7218 35.0974 10.8271 35.1371C10.9323 35.1767 11.0273 35.2395 11.105 35.3208C12.843 37.1008 14.563 38.8968 16.285 40.6918C16.42 40.8328 16.526 41.0008 16.803 41.3608" fill="#1FBEF9"/>
<path d="M35.2834 20.4738L39.9764 31.0788L41.2584 26.7298L42.5404 31.0788L47.2404 20.4648C50.1774 21.5974 52.9739 23.0651 55.5744 24.8388C57.0824 25.9568 57.4344 27.6018 57.5334 29.3058C57.6264 30.9058 57.5424 32.5188 57.5764 34.1258C57.5854 34.5598 57.3224 34.6198 57.0434 34.6708C54.4094 35.1568 51.7864 35.7288 49.1334 36.0838C45.6679 36.5 42.1738 36.6261 38.6874 36.4608C34.278 36.3768 29.8924 35.7934 25.6144 34.7218C25.5112 34.7133 25.4109 34.683 25.3203 34.6329C25.2296 34.5828 25.1506 34.514 25.0885 34.4311C25.0264 34.3482 24.9826 34.2531 24.96 34.152C24.9374 34.051 24.9365 33.9462 24.9574 33.8448C24.9984 32.3368 24.9574 30.8268 24.9974 29.3188C25.0297 28.7333 25.113 28.1518 25.2464 27.5808C25.3855 26.9281 25.657 26.3109 26.0442 25.7674C26.4314 25.2238 26.926 24.7655 27.4974 24.4208C29.9651 22.8662 32.5719 21.5445 35.2844 20.4728" fill="#1FBEF9"/>
<path d="M10.5981 25.4408H22.9101L23.4931 26.7718C23.5245 26.8216 23.5463 26.8769 23.5571 26.9348C23.6506 28.3284 23.2557 29.711 22.4401 30.8448C22.3181 30.9857 22.2205 31.1459 22.1511 31.3188C22.0181 31.7068 21.9131 32.1048 21.8081 32.5018C21.5305 33.499 20.9829 34.4002 20.2258 35.106C19.4686 35.8118 18.5313 36.2948 17.5171 36.5018C17.0081 36.6408 16.4711 36.6408 15.9621 36.5018C14.8526 36.2649 13.8375 35.7059 13.0441 34.895C12.2506 34.0841 11.7139 33.0572 11.5011 31.9428C11.3881 31.4592 11.1699 31.0065 10.8621 30.6168C10.2112 29.5849 9.87038 28.3878 9.88008 27.1678C9.9016 26.9735 9.96506 26.7862 10.0661 26.6188C10.2201 26.2618 10.3861 25.9088 10.5981 25.4428" fill="#1FBEF9"/>
<path d="M16.7832 2.20483H28.1232V10.5558H26.6952C26.0102 10.5558 25.3242 10.5728 24.6392 10.5478C24.4957 10.5285 24.3501 10.5606 24.228 10.6384C24.1059 10.7162 24.0153 10.8346 23.9722 10.9728C23.4962 12.0438 22.9942 13.1028 22.4522 14.2728C21.9522 13.2058 21.4522 12.2388 21.0522 11.2358C20.9913 11.0043 20.8454 10.8043 20.6436 10.6757C20.4417 10.547 20.1987 10.4992 19.9632 10.5418C18.9132 10.5918 17.8632 10.5558 16.7842 10.5558L16.7832 2.20483ZM19.4372 7.05783H20.6922V5.79983H19.4372V7.05783ZM21.8372 7.06483H23.0852V5.81183H21.8372V7.06483ZM24.2192 7.07083H25.4552V5.81183H24.2212L24.2192 7.07083Z" fill="#1FBEF9"/>
<path d="M48.1548 10.3068H45.4308V5.1498H44.2308V10.3038H38.2968V5.1468H37.1078V10.3008H34.3568C34.4648 8.8878 34.0388 7.4618 34.7368 6.1338C35.2253 5.06891 35.8058 4.04871 36.4718 3.0848C37.0899 2.27712 37.9113 1.64791 38.8521 1.26141C39.7929 0.874904 40.8193 0.744948 41.8268 0.884804C42.8035 0.93452 43.7519 1.23017 44.5839 1.74431C45.4158 2.25846 46.1044 2.97444 46.5858 3.8258C47.1308 4.8168 47.5788 5.8618 48.0668 6.8828C48.1133 6.96901 48.1409 7.06411 48.1478 7.1618C48.1538 8.1968 48.1478 9.2318 48.1478 10.3098" fill="#1FBEF9"/>
<path d="M23.5789 24.7848H20.9189V19.6318H19.7009V24.7858H13.7859V19.6358H12.5859V24.7868H9.83389C9.95689 23.4408 9.54589 22.0708 10.1539 20.7598C10.4499 20.1212 10.7522 19.4855 11.0609 18.8528C11.5165 17.9005 12.2083 17.0805 13.0703 16.471C13.9324 15.8616 14.9361 15.4828 15.9859 15.3708C16.9413 15.2266 17.9175 15.3175 18.8299 15.6357C19.7423 15.9539 20.5633 16.4897 21.2219 17.1968C22.3616 18.374 23.1597 19.8389 23.5309 21.4348C23.6744 22.5457 23.6905 23.6693 23.5789 24.7838" fill="#1FBEF9"/>
<path d="M35.0962 10.9648H47.3962C47.6102 11.4258 47.8062 11.8258 47.9802 12.2348C48.076 12.4061 48.125 12.5996 48.1222 12.7958C47.8992 14.0908 47.8852 15.4638 46.8222 16.4658C46.729 16.5897 46.6666 16.734 46.6402 16.8868C46.5202 17.2788 46.4042 17.6728 46.2992 18.0698C45.7062 20.3108 44.0622 21.4278 41.9852 22.0308C41.5147 22.1613 41.0178 22.1634 40.5462 22.0368C39.5129 21.8313 38.5568 21.3435 37.784 20.6276C37.0111 19.9116 36.4519 18.9954 36.1683 17.9808C36.0104 17.2685 35.7137 16.5944 35.2952 15.9968C34.6744 15.0129 34.3653 13.8644 34.4082 12.7018C34.4194 12.5274 34.4664 12.3572 34.5462 12.2018C34.7032 11.8228 34.8772 11.4508 35.0932 10.9668M36.0302 11.8838C35.7462 12.2258 35.3382 12.5028 35.3692 12.7168C35.5002 13.6358 35.7602 14.5378 35.9772 15.4448C35.9842 15.4629 35.9955 15.4791 36.0101 15.4918C36.0248 15.5045 36.0423 15.5135 36.0612 15.5178C36.6542 15.4878 36.5732 15.9718 36.6712 16.3178C36.8332 16.8818 36.9832 17.4488 37.1502 18.0108C37.6902 19.8328 39.1182 20.6508 40.7862 21.1678C41.0897 21.2556 41.4118 21.2556 41.7152 21.1678C43.3852 20.6578 44.8152 19.8478 45.3522 18.0188C45.5522 17.3248 45.7332 16.6188 45.9362 15.9298C45.9752 15.7968 46.0853 15.5748 46.1513 15.5788C46.6113 15.6068 46.6432 15.2458 46.7222 14.9658C46.8972 14.3458 47.0612 13.7198 47.1742 13.0858C47.174 12.8667 47.1039 12.6534 46.9742 12.4768C46.821 12.2656 46.6501 12.0679 46.4632 11.8858L36.0302 11.8838Z" fill="#1FBEF9"/>
</g>
</svg>
