<svg width="62" height="63" viewBox="0 0 62 63" fill="none" xmlns="http://www.w3.org/2000/svg">
<path d="M36.0299 9.9448C33.9825 8.61204 31.6981 7.68523 29.3009 7.2148L29.3319 1.8418H21.8769L21.8909 7.2568C20.6953 7.50331 19.526 7.86327 18.3989 8.33179C17.2775 8.80356 16.2042 9.38223 15.1939 10.0598L11.3009 6.21379L6.08887 11.4568L9.97586 15.2968C8.63573 17.3312 7.70379 19.6068 7.23186 21.9968L1.71387 22.0068V29.3828L7.27787 29.3628C7.52484 30.5485 7.88585 31.7076 8.35587 32.8238C8.82855 33.9417 9.41108 35.01 10.0949 36.0128" stroke="#1FBEF9" stroke-width="3" stroke-linecap="round"/>
<path d="M39.9451 60.1518V54.4638C41.1389 54.223 42.3061 53.8656 43.4301 53.3968C44.5542 52.9229 45.6307 52.3433 46.6451 51.6658L50.6181 55.5828L55.8331 50.3478L51.8571 46.4308C53.1968 44.3959 54.1294 42.1206 54.6031 39.7308L60.0031 39.6978V32.3298L54.5591 32.3628C54.3142 31.1755 53.9538 30.015 53.4831 28.8978C53.0091 27.7789 52.4266 26.7092 51.7441 25.7038L55.5071 21.9318L50.2401 16.7438L46.4781 20.5098C44.4307 19.1771 42.1463 18.2503 39.7491 17.7798L39.7801 12.4098H32.3241L32.3381 17.8248C31.1426 18.0713 29.9733 18.4313 28.8461 18.8998C27.7248 19.3716 26.6515 19.9502 25.6411 20.6278L21.7491 16.7828L16.5371 22.0248L20.4241 25.8648C19.084 27.8992 18.152 30.1748 17.6801 32.5648L12.1621 32.5748V39.9508L17.7261 39.9308C17.9728 41.1179 18.3338 42.2783 18.8041 43.3958C19.2768 44.5137 19.8593 45.582 20.5431 46.5848L16.5531 50.5588L21.8231 55.7378L25.8031 51.7758C27.8486 53.1142 30.1346 54.0428 32.5341 54.5098V60.1498C35.0021 60.1688 39.9421 60.1498 39.9421 60.1498L39.9451 60.1518Z" stroke="#1FBEF9" stroke-width="3" stroke-linecap="round"/>
<path d="M36.1116 42.4158C39.6617 42.4158 42.5396 39.5379 42.5396 35.9878C42.5396 32.4377 39.6617 29.5598 36.1116 29.5598C32.5615 29.5598 29.6836 32.4377 29.6836 35.9878C29.6836 39.5379 32.5615 42.4158 36.1116 42.4158Z" stroke="#1FBEF9" stroke-width="3" stroke-linecap="square"/>
</svg>
