<svg width="55" height="55" viewBox="0 0 55 55" fill="none" xmlns="http://www.w3.org/2000/svg">
<mask id="mask0_10_706" style="mask-type:luminance" maskUnits="userSpaceOnUse" x="0" y="0" width="55" height="55">
<path d="M54.4826 0.192871H0.517578V54.1579H54.4826V0.192871Z" fill="white"/>
</mask>
<g mask="url(#mask0_10_706)">
<path d="M14.0049 28.8829C14.0049 28.7979 14.0049 28.7229 14.0049 28.6469C14.0049 28.0679 13.9849 27.4869 14.0229 26.9109C14.0507 26.461 14.1718 26.0219 14.3783 25.6213C14.5849 25.2207 14.8725 24.8674 15.2229 24.5839C15.2569 24.5549 15.2889 24.5229 15.3229 24.4889C13.9694 22.6809 13.0379 20.5929 12.5968 18.3779C12.1557 16.163 12.2162 13.8774 12.7739 11.6889C13.6051 8.16534 15.7129 5.07496 18.6899 3.01487C21.5807 0.953304 25.1025 -0.0300789 28.6431 0.235663C32.1838 0.501405 35.5194 1.99947 38.0701 4.46944C40.6208 6.93942 42.2253 10.2251 42.6047 13.7554C42.9841 17.2857 42.1144 20.8373 40.1469 23.7929H51.0069C51.4672 23.7782 51.9257 23.858 52.3541 24.0274C52.7824 24.1968 53.1714 24.4522 53.4972 24.7779C53.8229 25.1035 54.0784 25.4925 54.248 25.9207C54.4175 26.349 54.4975 26.8075 54.4829 27.2679V46.4789C54.4974 46.938 54.4178 47.3952 54.2488 47.8223C54.0799 48.2495 53.8252 48.6375 53.5006 48.9624C53.1759 49.2874 52.7881 49.5424 52.3611 49.7117C51.9341 49.881 51.477 49.961 51.0179 49.9469C49.1699 49.9529 47.3179 49.9469 45.4749 49.9469H45.2229V54.0529C45.1309 53.9969 45.0719 53.9649 45.0159 53.9269C43.0825 52.6389 41.1492 51.3519 39.2159 50.0659C39.1036 49.9935 38.9734 49.9537 38.8399 49.9509C33.4979 49.9455 28.1562 49.9429 22.8149 49.9429C22.742 49.9391 22.6692 49.9521 22.6021 49.9809C22.535 50.0096 22.4754 50.0534 22.4279 50.1089C20.5597 52.1668 18.0471 53.528 15.3029 53.9689C13.3475 54.3304 11.3336 54.2132 9.43339 53.6272C7.53316 53.0412 5.80304 52.0039 4.39087 50.6039C2.27953 48.6411 0.942528 45.9859 0.622867 43.1209C0.365798 41.3016 0.51982 39.4479 1.0736 37.6961C1.62738 35.9442 2.56684 34.3388 3.82287 32.9979C5.93362 30.6248 8.88147 29.1614 12.0479 28.9149C12.6479 28.8589 13.2559 28.8909 13.8599 28.8829H14.0019M43.5179 48.2549H50.9839C51.2256 48.2711 51.468 48.2354 51.6948 48.1503C51.9216 48.0652 52.1276 47.9326 52.299 47.7614C52.4704 47.5902 52.6032 47.3844 52.6885 47.1576C52.7739 46.9309 52.8098 46.6886 52.7939 46.4469C52.7939 40.0635 52.7939 33.6805 52.7939 27.2979C52.8105 27.0576 52.7756 26.8166 52.6913 26.591C52.6071 26.3654 52.4755 26.1604 52.3055 25.9899C52.1354 25.8194 51.9308 25.6873 51.7055 25.6024C51.4801 25.5175 51.2392 25.4819 50.9989 25.4979H17.6989C17.5989 25.4979 17.4909 25.4979 17.3869 25.4979C17.163 25.4966 16.9412 25.5402 16.7345 25.626C16.5277 25.7118 16.3402 25.838 16.183 25.9974C16.0258 26.1567 15.9021 26.3459 15.8191 26.5538C15.7361 26.7617 15.6956 26.9841 15.6999 27.2079C15.6999 27.7809 15.6999 28.3529 15.6999 28.9259C15.6999 29.0719 15.7459 29.1259 15.8869 29.1549C17.2493 29.4541 18.552 29.9793 19.7409 30.7089C20.0049 30.8709 20.2629 31.0429 20.5309 31.2149L23.1479 27.8819L24.4809 28.9299L21.8389 32.2999C23.9728 34.3124 25.3425 37.0028 25.7143 39.9124C26.0861 42.8219 25.4371 45.7704 23.8779 48.2549H24.1069C29.1949 48.2549 34.2832 48.2549 39.3719 48.2549C39.4988 48.2568 39.6227 48.2939 39.7299 48.3619C40.9299 49.1529 42.1249 49.9529 43.3209 50.7499C43.3759 50.7869 43.4339 50.8179 43.5209 50.8709L43.5179 48.2549ZM19.7439 34.9629C20.615 35.8306 21.3025 36.8648 21.7655 38.0038C22.2285 39.1429 22.4575 40.3635 22.4389 41.5929C22.4456 42.8249 22.198 44.045 21.7118 45.177C21.2255 46.309 20.511 47.3285 19.6129 48.1719C18.0214 49.7122 15.9311 50.6321 13.7203 50.7649C11.5095 50.8977 9.32411 50.2347 7.55972 48.8959C5.79532 47.5571 4.56845 45.6309 4.10111 43.466C3.63377 41.301 3.95685 39.0403 5.01187 37.0929C6.06126 35.106 7.81535 33.583 9.92987 32.8229C11.3277 32.292 12.8337 32.1095 14.3178 32.2913C15.8019 32.473 17.2195 33.0134 18.4479 33.8659L19.4629 32.5719C17.6836 31.3179 15.5709 30.6231 13.3947 30.5762C11.2185 30.5293 9.07775 31.1324 7.24615 32.3085C5.41454 33.4846 3.97529 35.1803 3.11241 37.1786C2.24953 39.177 2.00221 41.3873 2.40209 43.5269C2.80197 45.6666 3.83086 47.6384 5.35723 49.1902C6.88361 50.7421 8.8381 51.8034 10.9708 52.2387C13.1036 52.6739 15.3177 52.4632 17.33 51.6335C19.3424 50.8038 21.0616 49.3928 22.2679 47.5809C23.7027 45.458 24.3388 42.8953 24.0633 40.3478C23.7878 37.8003 22.6184 35.4329 20.7629 33.6659L19.7439 34.9659M17.3739 35.2369C15.7654 34.1496 13.8017 33.7191 11.8859 34.0337C9.97004 34.3484 8.24726 35.3843 7.07105 36.929C5.89484 38.4737 5.3544 40.41 5.56062 42.3405C5.76684 44.271 6.70408 46.0494 8.18003 47.3108C9.65598 48.5722 11.5587 49.2209 13.4978 49.1237C15.4369 49.0266 17.2653 48.1911 18.6078 46.7885C19.9503 45.386 20.7052 43.5228 20.7175 41.5813C20.7298 39.6399 19.9985 37.7673 18.6739 36.3479C18.6359 36.3899 18.5949 36.4299 18.5599 36.4749C18.2899 36.8169 18.0269 37.1649 17.7499 37.5009C17.7267 37.5196 17.708 37.5433 17.6952 37.5702C17.6823 37.5971 17.6756 37.6266 17.6756 37.6564C17.6756 37.6862 17.6823 37.7156 17.6952 37.7425C17.708 37.7694 17.7267 37.7931 17.7499 37.8119C18.2649 38.4329 18.6432 39.1556 18.8602 39.9327C19.0771 40.7098 19.1278 41.5239 19.0089 42.3219C18.8366 43.5764 18.2656 44.7423 17.3802 45.6476C16.4947 46.5528 15.3417 47.1495 14.0913 47.3494C12.8409 47.5494 11.5593 47.3422 10.4357 46.7582C9.31211 46.1743 8.40596 45.2446 7.85102 44.1064C7.29607 42.9682 7.12172 41.6817 7.35369 40.4368C7.58566 39.192 8.21166 38.0546 9.13932 37.1927C10.067 36.3307 11.2471 35.7898 12.5057 35.6498C13.7642 35.5097 15.0344 35.778 16.1289 36.4149C16.1999 36.4559 16.2719 36.4949 16.3499 36.5389L17.3709 35.2389M26.3409 15.6829L20.2579 12.1709C19.3927 13.7492 18.7487 15.4391 18.3439 17.1929C19.3079 17.5819 20.2769 17.9439 21.2199 18.3619C22.1629 18.7799 23.0779 19.2529 24.0199 19.7059L26.3449 15.6789M31.0039 11.0029L28.6639 15.0579L34.7419 18.5669C35.6181 16.9789 36.2623 15.2736 36.6549 13.5029C34.7011 12.838 32.81 12.0014 31.0039 11.0029ZM29.5339 10.1549C27.7575 9.08704 26.0789 7.86428 24.5179 6.50087C23.1993 7.74466 22.0471 9.15366 21.0899 10.6929L27.1899 14.2139L29.5309 10.1599M25.4729 20.5819C25.5439 20.6289 25.5969 20.6649 25.6519 20.6989C26.9594 21.4789 28.2041 22.3595 29.3749 23.3329C29.5576 23.5115 29.7787 23.6461 30.0213 23.7265C30.2639 23.8069 30.5216 23.831 30.7749 23.7969C30.7809 23.7969 30.7889 23.7969 30.7939 23.7969C30.8835 23.7748 30.9686 23.7369 31.0449 23.6849C32.0949 22.6178 33.0282 21.4418 33.8289 20.1769C33.8519 20.1409 33.8679 20.0999 33.8939 20.0489L27.8109 16.5329L25.4729 20.5819ZM15.2809 37.9029C14.4559 37.3994 13.4803 37.2018 12.5244 37.3448C11.5686 37.4877 10.6934 37.9621 10.0519 38.6849C9.5161 39.2715 9.15769 39.998 9.01826 40.7801C8.87882 41.5623 8.96408 42.3679 9.26413 43.1035C9.56417 43.8391 10.0667 44.4746 10.7134 44.9361C11.3601 45.3975 12.1244 45.6661 12.9176 45.7107C13.7108 45.7552 14.5004 45.5739 15.1947 45.1877C15.8889 44.8015 16.4594 44.2263 16.84 43.5289C17.2205 42.8315 17.3954 42.0405 17.3444 41.2477C17.2934 40.4549 17.0186 39.6928 16.5519 39.0499C16.5169 39.0879 16.4809 39.1229 16.4519 39.1619C16.1579 39.5349 15.8689 39.9109 15.5689 40.2799C15.5293 40.3205 15.5033 40.3724 15.4941 40.4284C15.485 40.4843 15.4933 40.5418 15.5179 40.5929C15.6825 41.0096 15.7329 41.4626 15.6641 41.9053C15.5952 42.348 15.4096 42.7644 15.1262 43.1114C14.8429 43.4585 14.4721 43.7237 14.0521 43.8797C13.6321 44.0356 13.1781 44.0768 12.7369 43.9989C12.2891 43.9209 11.8707 43.7236 11.5258 43.4277C11.1808 43.1319 10.922 42.7484 10.7767 42.3178C10.6314 41.8872 10.605 41.4253 10.7003 40.981C10.7955 40.5366 11.0089 40.1261 11.3179 39.7929C11.6608 39.4127 12.1126 39.1476 12.6118 39.0337C13.1109 38.9199 13.6331 38.9629 14.1069 39.1569C14.1649 39.1789 14.2759 39.1779 14.3069 39.1419C14.6399 38.7339 14.9619 38.3179 15.2869 37.9029M36.9869 11.8199C37.0009 11.7379 37.0129 11.6879 37.0179 11.6369C37.1446 10.596 37.1446 9.54369 37.0179 8.50287C36.8948 7.3469 36.5064 6.23499 35.8829 5.25387C35.62 4.85609 35.3007 4.49867 34.9349 4.19287L31.8499 9.53587C33.4915 10.4405 35.2066 11.2049 36.9769 11.8209M33.4599 3.35387C33.3759 3.32387 33.3169 3.30087 33.2599 3.28287C32.2286 2.98481 31.1351 2.9772 30.0999 3.26087C28.6684 3.63962 27.3232 4.29047 26.1379 5.17787C26.0449 5.24387 25.9559 5.31487 25.8499 5.39487C27.266 6.61784 28.7831 7.71877 30.3849 8.68587L33.4639 3.35287M38.2879 14.0209C37.8367 15.9049 37.1475 17.7239 36.2369 19.4339L39.5819 21.3649C40.6395 19.2378 41.1139 16.8682 40.9569 14.4979L38.2879 14.0209ZM14.0469 16.2469L16.6709 16.7169C16.9709 15.8009 17.2299 14.8739 17.5709 13.9759C17.9119 13.0779 18.3349 12.1979 18.7309 11.2889L15.4229 9.38087C14.3652 11.5076 13.8904 13.8768 14.0469 16.2469ZM19.5789 9.81987C20.1619 9.02787 20.7059 8.22587 21.3149 7.47687C21.9239 6.72787 22.6039 6.02287 23.2399 5.31287L21.5319 3.28787C19.4004 4.33591 17.5853 5.93087 16.2719 7.90987L19.5789 9.81987ZM23.1509 21.2099C21.5073 20.3049 19.7902 19.5405 18.0179 18.9249C18.0019 19.0449 17.9819 19.1399 17.9769 19.2359C17.9479 19.7289 17.9069 20.2219 17.8989 20.7149C17.8815 21.6977 18.0065 22.6778 18.2699 23.6249C18.2979 23.7249 18.3209 23.7999 18.4559 23.7989C19.4829 23.7939 20.5099 23.7989 21.5369 23.7919C21.57 23.7893 21.6022 23.7795 21.6312 23.7633C21.6602 23.7471 21.6853 23.7247 21.7049 23.6979C22.1849 22.8799 22.6579 22.0579 23.1479 21.2089M38.7339 22.8389L35.4179 20.9259L33.3279 23.7839C33.3463 23.7903 33.3654 23.7943 33.3849 23.7959C34.8989 23.7959 36.4129 23.7959 37.9269 23.7959C37.9549 23.796 37.9826 23.7905 38.0085 23.7799C38.0345 23.7693 38.058 23.7536 38.0779 23.7339C38.2979 23.4459 38.5089 23.1529 38.7369 22.8419M40.7179 12.7459C40.3582 10.945 39.6321 9.23738 38.5849 7.72887C38.5734 7.75809 38.5699 7.78986 38.5749 7.82087C38.6299 8.34487 38.7049 8.86687 38.7359 9.39187C38.7831 10.3149 38.7429 11.2404 38.6159 12.1559C38.5989 12.2839 38.6329 12.3299 38.7529 12.3559C38.9529 12.3939 39.1439 12.4559 39.3419 12.4919C39.7859 12.5779 40.2319 12.6579 40.7169 12.7479M16.4179 23.0129C16.1903 21.4884 16.1849 19.9389 16.4019 18.4129L14.2779 17.9929C14.6371 19.7959 15.3658 21.5051 16.4179 23.0129ZM23.1509 2.61287L24.5439 4.19287C25.2189 3.75287 25.8329 3.31187 26.4859 2.93787C27.1389 2.56387 27.8189 2.26287 28.4919 1.92787C26.6851 1.79608 24.8702 2.02833 23.1549 2.61087M27.1399 23.7819L27.1659 23.7309L24.6309 22.0359L23.6249 23.7809L27.1399 23.7819ZM14.0029 41.5069C14.001 41.2869 13.9128 41.0764 13.7571 40.9209C13.6014 40.7655 13.3909 40.6774 13.1709 40.6759C12.9473 40.6759 12.7327 40.7643 12.5741 40.9218C12.4154 41.0794 12.3255 41.2933 12.3239 41.5169C12.3295 41.737 12.4197 41.9465 12.5758 42.1018C12.7318 42.2571 12.9417 42.3463 13.1619 42.3509C13.2725 42.3509 13.3821 42.3291 13.4843 42.2867C13.5865 42.2443 13.6794 42.1822 13.7576 42.1039C13.8358 42.0256 13.8978 41.9327 13.9401 41.8304C13.9823 41.7281 14.004 41.6185 14.0039 41.5079" fill="#1FBEF9"/>
<path d="M50.6822 43.1889V44.8889H40.5722V45.7159H38.8892V44.8889H37.2002V43.2068H38.8722V42.3639H40.5722V43.1909L50.6822 43.1889Z" fill="#1FBEF9"/>
<path d="M37.2012 38.1549V36.4549H46.4642V35.6119H48.1542V36.4409H50.6832V38.1349H48.1572V38.9649H46.4812V38.1509L37.2012 38.1549Z" fill="#1FBEF9"/>
<path d="M43.096 31.4009H37.208V29.7109H43.089V28.8769H44.782V29.7029H50.682V31.3849H44.802V32.2169H43.102L43.096 31.4009Z" fill="#1FBEF9"/>
<path d="M35.5114 37.3019C35.5098 37.8033 35.3595 38.2931 35.0796 38.7091C34.7996 39.1251 34.4025 39.4488 33.9386 39.6391C33.4747 39.8295 32.9647 39.878 32.4733 39.7784C31.9818 39.6789 31.5309 39.4358 31.1775 39.08C30.8242 38.7242 30.5844 38.2715 30.4883 37.7793C30.3923 37.2872 30.4444 36.7776 30.638 36.315C30.8317 35.8524 31.1581 35.4577 31.5761 35.1807C31.9941 34.9037 32.4849 34.7569 32.9864 34.7589C33.6579 34.7631 34.3004 35.0329 34.7735 35.5094C35.2466 35.986 35.5119 36.6304 35.5114 37.3019ZM32.9814 36.4589C32.816 36.4585 32.6542 36.5071 32.5163 36.5985C32.3785 36.6899 32.2708 36.82 32.2067 36.9725C32.1427 37.125 32.1253 37.2931 32.1566 37.4555C32.1879 37.6179 32.2666 37.7674 32.3827 37.8852C32.4988 38.003 32.6472 38.0838 32.8091 38.1174C32.9711 38.151 33.1393 38.136 33.2927 38.0741C33.4461 38.0123 33.5778 37.9064 33.6712 37.7699C33.7646 37.6334 33.8154 37.4723 33.8174 37.3069C33.8184 37.1962 33.7976 37.0865 33.7561 36.9839C33.7146 36.8813 33.6533 36.788 33.5756 36.7092C33.4979 36.6304 33.4054 36.5677 33.3035 36.5247C33.2015 36.4818 33.092 36.4594 32.9814 36.4589Z" fill="#1FBEF9"/>
<path d="M35.5133 44.0489C35.5119 44.5504 35.3618 45.0403 35.0819 45.4565C34.8021 45.8727 34.405 46.1965 33.941 46.3869C33.4771 46.5774 32.967 46.6259 32.4755 46.5265C31.9839 46.427 31.5329 46.1839 31.1795 45.828C30.8261 45.4721 30.5862 45.0194 30.4902 44.5271C30.3942 44.0348 30.4464 43.5251 30.6402 43.0625C30.8339 42.5999 31.1605 42.2052 31.5787 41.9283C31.9969 41.6514 32.4878 41.5047 32.9893 41.5069C33.6602 41.5121 34.3019 41.7822 34.7746 42.2583C35.2473 42.7344 35.5128 43.378 35.5133 44.0489ZM32.9743 44.8759C33.1401 44.8769 33.3024 44.8286 33.4406 44.7371C33.5788 44.6457 33.6867 44.5153 33.7506 44.3624C33.8146 44.2095 33.8316 44.041 33.7996 43.8784C33.7676 43.7158 33.6879 43.5663 33.5708 43.4491C33.4537 43.3318 33.3044 43.2521 33.1418 43.2198C32.9792 43.1876 32.8108 43.2044 32.6578 43.2682C32.5048 43.3319 32.3742 43.4397 32.2826 43.5778C32.191 43.7159 32.1426 43.8782 32.1433 44.0439C32.1441 44.2641 32.2319 44.4751 32.3875 44.631C32.5432 44.7868 32.7541 44.8748 32.9743 44.8759Z" fill="#1FBEF9"/>
<path d="M35.5117 30.5598C35.4963 31.2234 35.2212 31.8545 34.7456 32.3174C34.2699 32.7804 33.6316 33.0384 32.9679 33.0359C32.3041 33.0334 31.6678 32.7706 31.1957 32.3041C30.7235 31.8376 30.4532 31.2045 30.4427 30.5408C30.4374 30.2038 30.4994 29.8691 30.6249 29.5563C30.7505 29.2435 30.9372 28.9589 31.1741 28.7192C31.411 28.4794 31.6934 28.2893 32.0046 28.16C32.3159 28.0306 32.6498 27.9646 32.9869 27.9659C33.3239 27.9672 33.6574 28.0356 33.9677 28.1673C34.2779 28.299 34.5589 28.4912 34.794 28.7327C35.0291 28.9743 35.2136 29.2603 35.3369 29.574C35.4601 29.8877 35.5195 30.2229 35.5117 30.5598ZM32.9727 29.7128C32.8067 29.7142 32.645 29.765 32.5079 29.8586C32.3709 29.9522 32.2647 30.0843 32.203 30.2384C32.1412 30.3924 32.1267 30.5614 32.1611 30.7237C32.1956 30.886 32.2776 31.0345 32.3966 31.1501C32.5156 31.2658 32.6664 31.3434 32.8297 31.3732C32.9929 31.403 33.1613 31.3836 33.3135 31.3174C33.4657 31.2512 33.5948 31.1413 33.6844 31.0016C33.774 30.8619 33.8201 30.6988 33.8167 30.5328C33.8117 30.3127 33.7205 30.1035 33.5626 29.9501C33.4047 29.7967 33.1928 29.7114 32.9727 29.7128Z" fill="#1FBEF9"/>
</g>
</svg>
