<svg width="98" height="133" viewBox="0 0 98 133" fill="none" xmlns="http://www.w3.org/2000/svg">
<mask id="mask0_10_1334" style="mask-type:luminance" maskUnits="userSpaceOnUse" x="0" y="0" width="98" height="133">
<path d="M97.2182 0.291992H0.783203V132.707H97.2182V0.291992Z" fill="white"/>
</mask>
<g mask="url(#mask0_10_1334)">
<path d="M49.2494 93.684C38.3161 93.684 27.3858 93.684 16.4584 93.684C14.9134 93.684 13.5354 93.258 12.9074 91.722C12.6315 90.9277 12.5037 90.0895 12.5304 89.249C12.4934 85.757 12.5184 82.263 12.5194 78.77C12.5194 69.316 12.5194 59.8614 12.5194 50.406C12.5156 50.0149 12.5353 49.6238 12.5784 49.235C12.5962 48.842 12.6917 48.4565 12.8594 48.1006C13.0272 47.7448 13.2638 47.4257 13.5556 47.1619C13.8474 46.8981 14.1886 46.6947 14.5595 46.5636C14.9304 46.4325 15.3236 46.3762 15.7164 46.398C16.1087 46.377 16.5013 46.4339 16.8715 46.5653C17.2417 46.6967 17.5822 46.9001 17.8734 47.1637C18.1647 47.4273 18.4008 47.746 18.5683 48.1013C18.7359 48.4567 18.8314 48.8416 18.8494 49.234C18.9009 49.8326 18.9196 50.4335 18.9054 51.034C18.9054 62.8374 18.8998 74.641 18.8884 86.445C18.8884 87.107 19.0614 87.323 19.7534 87.323C39.0868 87.3064 58.4181 87.3024 77.7474 87.311C79.6324 87.311 79.6134 87.299 79.6114 85.451C79.6061 73.617 79.6081 61.7837 79.6174 49.951C79.6174 47.178 81.5564 45.663 83.9454 46.514C84.4744 46.6568 84.9448 46.963 85.2894 47.389C85.6341 47.8149 85.8353 48.3389 85.8644 48.886C85.9284 49.815 85.9214 50.75 85.9204 51.686C85.9118 63.9114 85.9014 76.136 85.8894 88.36C85.8894 88.872 85.9184 89.384 85.9324 89.895C85.991 90.3928 85.9388 90.8974 85.7795 91.3727C85.6203 91.8479 85.3579 92.2821 85.0112 92.6441C84.6645 93.0061 84.2421 93.2869 83.7741 93.4665C83.3062 93.6462 82.8043 93.7201 82.3044 93.683C79.9864 93.709 77.6674 93.689 75.3494 93.689H49.2494" fill="white"/>
<path d="M49.4834 7.58503C48.2144 8.78503 47.0124 9.96003 45.7734 11.095C35.454 20.5597 25.131 30.0177 14.8044 39.469C11.9834 42.051 9.16635 44.637 6.31735 47.186C4.95235 48.408 3.63535 48.559 2.36435 47.776C1.94482 47.5659 1.58345 47.2558 1.31212 46.873C1.0408 46.4902 0.867857 46.0465 0.808564 45.581C0.749271 45.1156 0.805447 44.6427 0.972133 44.2041C1.13882 43.7655 1.41089 43.3746 1.76435 43.066C4.89768 40.066 8.06702 37.1077 11.2724 34.191C23.0797 23.3684 34.8954 12.5527 46.7194 1.74403C47.8094 0.744034 48.9664 -0.0689663 50.5084 0.457034C51.1807 0.709018 51.7936 1.09751 52.3084 1.59803C63.7637 12.3567 75.208 23.1277 86.6413 33.911C89.7307 36.823 92.8033 39.752 95.8593 42.698C97.5213 44.298 97.6463 45.834 96.3013 47.264C94.9893 48.658 93.1674 48.669 91.5684 47.182C88.4164 44.25 85.3163 41.261 82.1773 38.313C74.6273 31.2224 67.073 24.1364 59.5144 17.055C56.3334 14.065 53.1833 11.043 50.0144 8.03703C49.8843 7.91303 49.7404 7.80503 49.4784 7.58403" fill="white"/>
<path d="M49.0682 96.838C57.1975 96.838 65.3272 96.8403 73.4572 96.845C74.0892 96.8243 74.7215 96.8776 75.3412 97.004C75.9944 97.2094 76.5585 97.6304 76.9414 98.198C77.3244 98.7657 77.5034 99.4464 77.4492 100.129C77.4872 100.829 77.2669 101.519 76.8303 102.067C76.3936 102.615 75.7709 102.984 75.0802 103.104C74.5467 103.194 74.0063 103.237 73.4652 103.233C57.2358 103.238 41.0072 103.237 24.7792 103.228C24.1486 103.238 23.5185 103.188 22.8972 103.08C22.2045 102.904 21.5976 102.486 21.1856 101.902C20.7737 101.318 20.5838 100.606 20.6502 99.894C20.6281 99.1944 20.8598 98.5103 21.3025 97.9681C21.7453 97.4259 22.3692 97.0622 23.0592 96.944C23.6862 96.8642 24.3181 96.8288 24.9502 96.838C32.9902 96.8313 41.0295 96.8313 49.0682 96.838Z" fill="white"/>
<path d="M49.0471 120.859C41.0358 120.859 33.0241 120.859 25.0121 120.859C24.5311 120.859 24.0481 120.859 23.5681 120.832C22.8135 120.772 22.1054 120.444 21.5726 119.906C21.0398 119.368 20.7177 118.657 20.6649 117.902C20.6121 117.147 20.8321 116.398 21.2849 115.792C21.7377 115.185 22.3932 114.761 23.1321 114.597C23.4859 114.528 23.8457 114.494 24.2061 114.497C40.5908 114.491 56.9754 114.489 73.3601 114.492C73.7813 114.48 74.2029 114.496 74.6221 114.538C75.03 114.56 75.429 114.665 75.7945 114.848C76.1599 115.03 76.484 115.286 76.7466 115.599C77.0091 115.912 77.2046 116.275 77.3208 116.667C77.437 117.058 77.4715 117.47 77.4221 117.875C77.4371 118.277 77.3671 118.679 77.2165 119.052C77.0659 119.426 76.8382 119.763 76.5483 120.043C76.2583 120.322 75.9127 120.537 75.5339 120.674C75.1551 120.811 74.7517 120.866 74.3501 120.836C71.4591 120.884 68.5681 120.86 65.6761 120.861C60.1341 120.861 54.5921 120.861 49.0501 120.861L49.0471 120.859Z" fill="white"/>
<path d="M49.0615 106.097H73.2705C73.6015 106.097 73.9335 106.097 74.2635 106.106C74.6712 106.079 75.0799 106.139 75.4632 106.28C75.8466 106.421 76.1959 106.642 76.4888 106.926C76.7817 107.211 77.0115 107.554 77.1633 107.934C77.3152 108.313 77.3858 108.72 77.3705 109.128C77.404 109.543 77.3535 109.96 77.222 110.355C77.0905 110.75 76.8807 111.114 76.6052 111.425C76.3297 111.737 75.9941 111.99 75.6186 112.169C75.2431 112.349 74.8352 112.45 74.4195 112.468C74.2692 112.481 74.1184 112.486 73.9675 112.483C57.3775 112.483 40.7872 112.483 24.1965 112.483C22.1205 112.483 20.9895 111.532 20.6735 109.603C20.605 109.202 20.6201 108.791 20.718 108.396C20.816 108 20.9946 107.63 21.2426 107.307C21.4906 106.984 21.8027 106.716 22.1593 106.52C22.5158 106.324 22.9092 106.203 23.3145 106.166C24.3935 106.085 25.4805 106.118 26.5635 106.118C34.0609 106.118 41.5582 106.118 49.0555 106.118L49.0615 106.097Z" fill="white"/>
<path d="M60.6984 47.723L45.5674 76.192L45.3774 76.127C45.5224 74.866 45.6544 73.603 45.8124 72.343C46.4504 67.271 47.0824 62.199 47.7574 57.132C47.8464 56.464 47.7164 56.317 47.0464 56.318C43.9784 56.318 40.9104 56.258 37.8464 56.218C37.6677 56.1914 37.4912 56.1516 37.3184 56.099L52.4184 27.714L52.5954 27.772C51.7784 34.275 50.9544 40.78 50.1244 47.38L60.6994 47.727" fill="white"/>
<path d="M62.9756 123.595C62.9114 125.391 62.1596 127.094 60.8756 128.351C58.7457 130.512 55.9619 131.908 52.9566 132.324C48.433 133.251 43.7274 132.552 39.6686 130.35C38.4906 129.802 37.4566 128.987 36.6486 127.969C35.8406 126.952 35.2808 125.76 35.0136 124.489C34.8776 123.789 35.0486 123.589 35.7656 123.589C44.1302 123.607 52.4949 123.61 60.8596 123.597H62.9756" fill="white"/>
</g>
</svg>
