<svg width="112" height="99" viewBox="0 0 112 99" fill="none" xmlns="http://www.w3.org/2000/svg">
<mask id="mask0_10_1270" style="mask-type:luminance" maskUnits="userSpaceOnUse" x="0" y="0" width="112" height="99">
<path d="M111.501 0.791992H0.5V98.207H111.501V0.791992Z" fill="white"/>
</mask>
<g mask="url(#mask0_10_1270)">
<path d="M32.3142 79.4821C32.5357 79.0183 32.8009 78.5766 33.1062 78.1631C36.4402 74.6631 39.7962 71.1921 43.1362 67.7021C43.5222 67.3021 43.8432 66.9761 44.4752 67.3021C49.0082 69.6021 53.5752 71.8351 58.0872 74.1861C62.1242 76.2921 63.6792 79.909 63.7872 84.26C63.8622 87.34 63.7922 90.423 63.8482 93.503C63.8622 94.267 63.4832 94.508 62.8792 94.619C57.8402 95.544 52.8252 96.658 47.7522 97.334C40.6107 98.1946 33.4084 98.4382 26.2252 98.062C17.9346 97.8533 9.69333 96.718 1.65516 94.6771C1.47186 94.6623 1.29384 94.6085 1.13306 94.5193C0.972281 94.43 0.83248 94.3074 0.723057 94.1596C0.613634 94.0118 0.537127 93.8423 0.49868 93.6625C0.460233 93.4826 0.460739 93.2967 0.500162 93.1171C0.620162 89.6231 0.500162 86.1171 0.765162 82.6331C0.838314 81.0489 1.29404 79.506 2.09338 78.1363C2.89271 76.7667 4.01188 75.6109 5.35516 74.768C10.0128 71.8231 14.938 69.3244 20.0652 67.3051C20.2828 67.2859 20.5019 67.316 20.7063 67.393C20.9108 67.4701 21.0953 67.5921 21.2462 67.7501C24.6212 71.2061 27.9632 74.695 31.3062 78.182C31.5682 78.455 31.7732 78.7821 32.3122 79.4821" fill="white"/>
<path d="M68.2042 38.923L77.3192 59.523L79.8102 51.077L82.2992 59.523L91.4232 38.91C97.0962 41.367 102.68 43.751 107.608 47.41C110.537 49.581 111.22 52.776 111.408 56.086C111.589 59.197 111.425 62.327 111.492 65.446C111.51 66.289 110.998 66.405 110.457 66.505C105.341 67.45 100.246 68.559 95.0952 69.249C88.365 70.0573 81.5791 70.3022 74.8082 69.981C66.2445 69.818 57.7268 68.6851 49.4182 66.604C49.2181 66.5874 49.0237 66.5286 48.848 66.4315C48.6722 66.3344 48.519 66.2011 48.3985 66.0405C48.2779 65.8799 48.1928 65.6956 48.1486 65.4997C48.1044 65.3039 48.1022 65.1008 48.1422 64.904C48.2212 61.975 48.1422 59.042 48.2192 56.113C48.282 54.9758 48.4439 53.8462 48.7032 52.737C48.9732 51.4695 49.5005 50.2709 50.2523 49.2153C51.0041 48.1597 51.9646 47.2696 53.0742 46.6C57.8666 43.5811 62.9294 41.0143 68.1972 38.933" fill="white"/>
<path d="M20.2612 48.5671H44.1742C44.5742 49.4891 44.9422 50.3201 45.3062 51.1521C45.3672 51.2486 45.4093 51.3558 45.4302 51.4681C45.4242 54.2031 45.0302 56.8291 43.2602 59.0621C43.0234 59.3358 42.8339 59.6471 42.6992 59.9831C42.4402 60.7361 42.2362 61.5101 42.0322 62.2831C40.8832 66.6191 37.7322 68.8571 33.6982 70.0441C32.7096 70.3139 31.6668 70.3139 30.6782 70.0441C26.1292 68.7611 23.0252 65.9791 22.0142 61.1891C21.7947 60.25 21.371 59.3708 20.7732 58.6141C19.3532 56.6701 19.0202 54.2841 18.8662 51.9141C18.9084 51.537 19.0319 51.1737 19.2282 50.8491C19.5282 50.1551 19.8502 49.4711 20.2612 48.5651" fill="white"/>
<path d="M32.274 3.44006H54.298V19.6591H51.526C50.195 19.6591 48.863 19.6931 47.533 19.6441C47.2536 19.6053 46.9695 19.6671 46.7314 19.8184C46.4933 19.9697 46.3166 20.2006 46.233 20.4701C45.309 22.5501 44.333 24.6061 43.281 26.8771C42.312 24.8041 41.346 22.9271 40.56 20.9771C40.4418 20.5275 40.1584 20.1391 39.7663 19.8894C39.3742 19.6396 38.9024 19.5471 38.445 19.6301C36.406 19.7301 34.359 19.6581 32.27 19.6581L32.274 3.44006ZM37.428 12.8661H39.865V10.4231H37.428V12.8661ZM42.095 12.8801H44.519V10.4371H42.095V12.8801ZM46.721 12.8911H49.121V10.4471H46.721V12.8911Z" fill="white"/>
<path d="M93.203 19.175H87.913V9.16003H85.591V19.169H74.063V9.15303H71.753V19.164H66.411C66.621 16.419 65.793 13.651 67.149 11.071C68.0979 9.00305 69.2255 7.02186 70.519 5.15003C71.7184 3.57994 73.313 2.35627 75.1399 1.60398C76.9669 0.85169 78.9608 0.597731 80.918 0.868033C84.782 1.26803 88.174 2.96803 90.16 6.58103C91.218 8.50603 92.088 10.534 93.037 12.519C93.1272 12.6865 93.1807 12.8713 93.194 13.061C93.205 15.071 93.201 17.081 93.201 19.175" fill="white"/>
<path d="M45.473 47.294H40.307V37.2831H37.94V47.294H26.454V37.294H24.128V47.294H18.778C19.016 44.68 18.219 42.0201 19.399 39.4741C19.9737 38.2341 20.5607 37.0007 21.16 35.7741C22.045 33.9244 23.3887 32.332 25.0631 31.1483C26.7376 29.9647 28.687 29.2293 30.726 29.012C32.5816 28.7315 34.4776 28.9076 36.2497 29.5251C38.0218 30.1427 39.6167 31.183 40.896 32.5561C43.1094 34.8427 44.6594 37.6882 45.38 40.788C45.873 42.822 45.473 45.073 45.473 47.288" fill="white"/>
<path d="M67.8401 20.453H91.7401C92.1551 21.353 92.5401 22.125 92.8751 22.92C93.0607 23.2526 93.1556 23.6282 93.1501 24.009C92.7171 26.524 92.6901 29.19 90.6231 31.136C90.4419 31.3767 90.3206 31.6571 90.2691 31.954C90.0351 32.716 89.8101 33.481 89.6071 34.254C88.4561 38.607 85.2631 40.775 81.2281 41.947C80.3146 42.2005 79.3498 42.2046 78.4341 41.959C74.2991 40.778 71.1341 38.5 69.9341 34.082C69.6276 32.6988 69.0517 31.3896 68.2391 30.229C66.8971 28.429 66.6021 26.096 66.5151 23.829C66.5364 23.4893 66.6277 23.1578 66.7831 22.855C67.0891 22.119 67.4261 21.396 67.8451 20.455M69.6651 22.236C69.1131 22.9 68.3221 23.436 68.3811 23.854C68.6361 25.64 69.1401 27.39 69.5611 29.154C69.5746 29.1894 69.5966 29.2209 69.6252 29.2457C69.6539 29.2704 69.6882 29.2877 69.7251 29.296C70.8771 29.237 70.7191 30.178 70.9101 30.845C71.2241 31.94 71.5171 33.045 71.8411 34.133C72.8911 37.672 75.6641 39.26 78.9021 40.265C79.4901 40.4348 80.1141 40.4348 80.7021 40.265C83.9451 39.274 86.7281 37.701 87.7651 34.15C88.1591 32.802 88.5041 31.44 88.8981 30.092C88.9731 29.835 89.1871 29.403 89.3161 29.411C90.2101 29.465 90.2711 28.765 90.4251 28.221C90.7651 27.021 91.0841 25.801 91.3021 24.57C91.303 24.1444 91.1682 23.7297 90.9171 23.386C90.6197 22.9761 90.2878 22.5924 89.9251 22.239L69.6651 22.236Z" fill="white"/>
</g>
</svg>
