<svg width="147" height="107" viewBox="0 0 147 107" fill="none" xmlns="http://www.w3.org/2000/svg">
<mask id="mask0_10_1359" style="mask-type:luminance" maskUnits="userSpaceOnUse" x="0" y="0" width="147" height="107">
<path d="M146.835 0.625977H0.165039V106.375H146.835V0.625977Z" fill="white"/>
</mask>
<g mask="url(#mask0_10_1359)">
<path d="M99.2842 90.8189C99.0662 91.1409 98.6842 91.451 98.6562 91.7859C98.6308 92.7228 98.385 93.6406 97.9389 94.4648C97.4929 95.2891 96.8589 95.9967 96.0885 96.5305C95.3181 97.0642 94.4328 97.409 93.5043 97.5369C92.5759 97.6649 91.6303 97.5724 90.7442 97.2669C89.6399 96.8707 88.6805 96.1512 87.9906 95.2023C87.3008 94.2533 86.9125 93.1186 86.8762 91.9459C86.8452 91.2979 86.7352 90.921 85.9842 90.992C83.5482 91.222 82.8392 90.3589 81.8542 87.6919C81.5002 86.7339 81.3212 85.7119 81.0482 84.6649C79.6482 85.1389 78.2662 85.716 76.8322 86.0649C74.1877 86.8421 71.4825 87.3954 68.7452 87.7189C65.116 87.9932 61.469 87.9263 57.8522 87.519C53.5627 86.9434 49.403 85.6396 45.5522 83.6639C40.5757 81.2083 36.1259 77.8054 32.4522 73.646C27.9757 68.6105 24.793 62.5605 23.1792 56.0189C22.0419 51.6096 21.6855 47.0352 22.1262 42.5029C22.3512 40.2859 22.8262 38.0949 23.1032 35.8819C23.0828 35.6723 23.0166 35.4697 22.9093 35.2884C22.802 35.1072 22.6562 34.9517 22.4822 34.8329C16.6679 31.0138 11.1406 26.7749 5.94423 22.1499C3.9584 20.4217 2.24596 18.4024 0.865232 16.1609C-0.614768 13.5979 0.335232 10.6189 2.94023 10.2189C4.41898 9.97661 5.93233 10.0509 7.38023 10.4369C12.9802 12.0569 18.0432 14.9069 23.1072 17.7249C25.2992 18.945 27.5012 20.1439 29.7802 21.3969C35.465 13.466 43.7114 7.73852 53.1281 5.18083C62.5449 2.62314 72.5556 3.39175 81.4716 7.35701C90.3875 11.3223 97.6629 18.2415 102.07 26.9473C106.478 35.6532 107.747 45.6128 105.665 55.1459H106.758C109.666 55.1459 112.576 55.1989 115.482 55.1269C117.314 55.082 117.958 55.4699 117.943 57.5359C117.888 65.158 117.92 72.7789 117.927 80.4009C117.927 80.8339 117.744 81.393 118.491 81.449C119.164 81.499 119.556 81.3339 119.547 80.5279C119.523 78.0549 119.563 75.5809 119.568 73.1069C119.574 70.032 119.563 66.956 119.568 63.881C119.568 62.393 119.994 61.981 121.48 61.976C125.758 61.966 130.037 61.9759 134.316 61.9539C135.822 61.9459 136.716 63.04 137.673 63.882C141.894 67.5392 144.841 72.4445 146.088 77.8879C146.991 81.7436 147.075 85.7457 146.335 89.6359C146.176 90.491 145.735 91.1029 145.001 91.1279C144.687 91.0997 144.382 91.0091 144.103 90.8614C143.824 90.7138 143.578 90.512 143.378 90.268C142.269 88.9483 141.252 87.554 140.334 86.0949C140.075 85.5631 139.65 85.1296 139.124 84.8593C138.597 84.5889 137.998 84.4961 137.414 84.5949C136.157 84.7239 134.874 84.5689 133.608 84.6399C133.392 84.6604 133.182 84.7233 132.99 84.825C132.798 84.9268 132.628 85.0654 132.489 85.2329C131.435 86.7199 130.389 88.2229 129.489 89.8039C129.286 90.2024 128.967 90.5301 128.575 90.7442C128.182 90.9584 127.734 91.0489 127.289 91.004C123.846 90.989 120.403 91.004 116.96 91.004C115.26 91.004 113.55 91.0219 111.846 90.993C111.229 90.9819 110.946 91.128 110.946 91.825C110.954 93.0344 110.576 94.2149 109.867 95.1949C109.158 96.1748 108.155 96.9031 107.004 97.2739C105.764 97.7002 104.416 97.6985 103.176 97.2693C101.937 96.8401 100.877 96.0081 100.165 94.9059C99.4012 93.6776 99.0801 92.2249 99.2552 90.7889C99.6692 91.3969 100.066 92.016 100.507 92.602C100.614 92.7439 100.868 92.7759 101.055 92.8579C101.047 92.658 101.043 92.4579 101.029 92.2579C101.009 91.95 100.983 91.6429 100.96 91.3349C101.323 91.4376 101.669 91.5947 101.985 91.8009C102.175 91.9679 102.192 92.3439 102.265 92.632C102.474 93.267 102.884 93.8168 103.434 94.1982C103.983 94.5796 104.641 94.7719 105.309 94.7459C106.095 94.661 106.819 94.2816 107.336 93.6842C107.853 93.0867 108.125 92.3156 108.096 91.5259C108.065 91.1273 107.955 90.7389 107.772 90.3835C107.589 90.0281 107.337 89.7128 107.03 89.4562C106.724 89.1996 106.369 89.0069 105.987 88.8894C105.605 88.7719 105.203 88.732 104.805 88.7719C104.458 88.7301 104.119 88.6399 103.797 88.504C103.807 88.4166 103.816 88.3289 103.824 88.241C103.299 88.341 102.646 89.4179 102.291 88.1139L103.286 87.0539L103.035 86.7999L101.374 88.0399C101.724 88.487 102.021 88.9724 102.26 89.4869C102.34 89.9462 102.349 90.4148 102.289 90.8769L101.889 90.894C101.89 90.633 101.845 90.3739 101.758 90.1279C101.509 89.6919 101.132 88.934 100.892 88.965C100.23 89.1035 99.6092 89.3919 99.0762 89.8079C98.9662 89.8829 99.2072 90.4699 99.2862 90.8209M114.978 58.1609C114.708 58.124 114.609 58.0989 114.51 58.0989C104.72 58.0949 94.9289 58.0869 85.1382 58.0749C84.2382 58.0749 84.2992 58.563 84.2992 59.16C84.3062 66.2109 84.3212 73.2599 84.2822 80.313C84.2772 81.268 84.5822 81.4879 85.4822 81.4849C93.6356 81.4536 101.789 81.4536 109.942 81.4849C110.399 81.4849 110.913 81.2599 111.278 81.9849C111.68 82.5801 112.232 83.058 112.878 83.3699C113.151 83.533 113.632 83.3499 114.047 83.3219L112.147 81.9029L112.353 81.4549C112.853 81.5257 113.336 81.6845 113.78 81.924C114.419 82.4419 114.963 82.5239 115.542 81.9529C116.136 81.368 115.861 80.826 115.427 80.2729C115.227 79.9613 115.058 79.6307 114.922 79.2859L115.172 79.159L116.891 80.826L117.112 80.6059C116.812 79.6229 115.274 79.188 116.091 77.575L114.981 78.2749L114.978 58.1609ZM70.7212 52.4669L70.8332 52.1189C69.7332 51.1749 68.6902 50.152 67.5212 49.3009C62.9492 45.9709 58.4412 42.535 53.7142 39.438C47.4652 35.343 41.0652 31.4729 34.6652 27.6139C30.3002 24.9809 25.8532 22.4819 21.3912 20.0139C16.9058 17.3904 12.2004 15.1627 7.32823 13.3559C6.24618 13.0239 5.11479 12.8818 3.98423 12.9359C3.01623 12.9579 2.77023 13.5259 3.22523 14.3859C3.61642 15.1536 4.08341 15.8802 4.61923 16.5549C7.6057 20.0209 11.0142 23.0995 14.7652 25.7189C19.2419 29.0043 23.7926 32.1873 28.4172 35.2679C31.7452 37.4829 35.1712 39.575 38.6802 41.4879C41.996 43.3032 45.4069 44.9389 48.8982 46.3879C52.6532 47.9379 56.5222 49.2279 60.3852 50.4989C62.4165 51.1316 64.4843 51.6402 66.5772 52.0219C67.9332 52.291 69.3352 52.3219 70.7172 52.4629M90.2752 30.8879C89.1312 31.0629 88.1512 31.2179 87.1702 31.3609C83.6772 31.8699 80.1952 32.4929 76.6872 32.8469C73.3342 33.1839 69.9542 33.2469 66.5872 33.4069C66.0532 33.4319 65.7982 33.5629 65.8012 34.1459C65.8172 37.3209 65.8012 40.4969 65.8132 43.6719C65.8132 44.4809 67.1342 45.6069 67.7582 45.3629C69.7292 44.591 71.6952 43.8019 73.6582 43.0119C77.2922 41.5499 76.1152 41.5649 79.1782 43.3239C79.2072 43.3409 79.2422 43.347 79.2702 43.3639C80.7352 44.2969 80.8492 44.9069 79.8502 46.3529C78.2672 48.6439 76.6982 50.9439 75.1112 53.2329C74.1292 54.6489 72.9112 55.6109 71.0382 55.3529C70.2472 55.2439 69.4382 55.2719 68.6382 55.1889C67.6662 55.089 66.7002 54.9329 65.8022 54.8109V57.4849C65.8022 59.4576 65.8022 61.4296 65.8022 63.4009C65.8022 64.9009 65.8092 64.9489 67.3512 64.8739C70.9862 64.6949 74.6192 64.4739 78.2512 64.2519C79.0512 64.2029 79.8412 64.0779 80.6352 63.9819C81.2872 63.903 81.4862 63.539 81.4732 62.882C81.4332 60.944 81.4552 59.0049 81.4672 57.0659C81.4762 55.5659 81.8872 55.1489 83.3602 55.1449C85.4992 55.1389 87.6402 55.0869 89.7762 55.1679C90.7762 55.2059 91.0902 54.9009 91.1692 53.9139C91.6132 48.6835 91.6018 43.4244 91.1352 38.1959C90.9082 35.783 90.5712 33.3789 90.2742 30.8849M89.6652 28.049C89.6635 27.6964 89.6331 27.3446 89.5742 26.9969C88.3582 22.6029 87.1402 18.2089 85.8842 13.8269C85.7655 13.3491 85.4915 12.9242 85.1052 12.6189C81.5269 10.3177 77.5695 8.66794 73.4162 7.74595C71.3032 7.28195 69.1422 7.02895 67.0002 6.70495C65.9312 6.54395 65.8082 6.66695 65.8072 7.80995C65.8022 14.9969 65.8162 22.1849 65.7852 29.3719C65.7852 30.2369 65.9962 30.5629 66.9072 30.4909C71.8602 30.0989 76.8242 29.8319 81.7692 29.3539C84.3772 29.1019 86.9532 28.5079 89.6692 28.049M62.8652 6.73595C58.6072 6.15595 49.1132 8.99495 43.2142 12.6769C39.3593 15.048 35.9758 18.1111 33.2342 21.7119C33.8422 21.7119 34.2052 21.7219 34.5692 21.7119C40.6792 21.5119 46.7892 21.3119 52.8992 21.1119C53.2927 21.0565 53.6939 21.1058 54.0622 21.2549C56.1622 22.5199 58.2502 23.8049 60.2782 25.1769C60.4547 25.357 60.588 25.5748 60.6682 25.8138C60.7484 26.0528 60.7734 26.3069 60.7412 26.5569C60.6838 26.7863 60.5746 26.9994 60.4221 27.18C60.2696 27.3606 60.0777 27.5039 59.8612 27.5989C56.5492 28.6709 53.2102 29.6609 49.8832 30.6869C48.9972 30.9599 48.1252 31.2759 47.1452 31.6069L62.8652 41.9759V6.73595ZM25.4862 38.827C24.4407 44.2551 24.5915 49.846 25.9282 55.2099C26.1392 56.118 26.2972 57.0949 27.3962 57.4989C30.1032 58.4919 32.7412 59.7219 35.5072 60.4989C39.6495 61.7226 43.8584 62.7086 48.1132 63.452C52.6132 64.1749 57.2042 64.3589 61.7512 64.8179C62.7512 64.9179 63.0902 64.5589 62.9602 63.6049C62.9294 63.2723 62.9294 62.9376 62.9602 62.6049C63.1032 59.8299 62.6232 57.0299 63.2832 54.2569C54.8206 52.1839 46.6474 49.0705 38.9502 44.9879C38.8987 45.1299 38.8651 45.2777 38.8502 45.4279C39.4642 49.4169 40.0702 53.4079 40.7152 57.3929C40.8432 58.1809 40.9882 58.9149 40.2702 59.4979C39.4702 60.1449 38.7492 59.6929 38.0782 59.2899C36.4602 58.3189 34.8442 57.3389 33.2862 56.2769C32.5046 55.8606 31.852 55.2381 31.3992 54.4769C29.6572 50.0189 28.0652 45.5039 26.4102 41.0109C26.1662 40.3489 25.8622 39.7109 25.4872 38.8279M39.4202 64.6529C40.2971 69.4591 41.5924 74.1794 43.2912 78.7599C43.3685 78.9708 43.508 79.1531 43.6912 79.283C47.2279 81.5286 51.1321 83.1344 55.2252 84.0269C57.4652 84.5079 59.7702 84.6809 62.0392 85.0369C62.8082 85.158 62.9712 84.8289 62.9642 84.1629C62.9452 82.2909 62.9582 80.419 62.9582 78.547C62.9582 75.271 62.9582 71.9949 62.9582 68.7189C62.9582 68.271 63.0772 67.7619 62.3252 67.7299C61.2252 67.6819 60.1302 67.5129 59.0252 67.4729C53.7269 67.2512 48.4569 66.5821 43.2712 65.4729C42.0472 65.2189 40.8262 64.9499 39.4232 64.6489M81.3792 66.7189C80.4672 66.8659 79.6892 67.0579 78.9012 67.1059C74.8692 67.3549 70.8362 67.596 66.8012 67.768C65.9962 67.803 65.7842 68.0339 65.7902 68.8069C65.8222 72.5159 65.8032 76.226 65.8032 79.936C65.8032 81.3729 65.7672 82.812 65.8352 84.2459C65.8492 84.5509 66.2612 85.1059 66.4582 85.0919C68.0584 85.0151 69.6519 84.8361 71.2292 84.5559C74.4298 83.9552 77.5504 82.9875 80.5292 81.672C80.8275 81.5768 81.0843 81.3825 81.2569 81.1213C81.4296 80.8601 81.5076 80.5477 81.4782 80.2359C81.4482 76.0919 81.4652 71.9479 81.4612 67.8039C81.4612 67.5109 81.4182 67.2169 81.3792 66.7189ZM83.8582 84.2869C84.2582 85.587 84.5732 86.658 84.9322 87.716C84.9972 87.907 85.2532 88.181 85.4062 88.172C86.5432 88.1059 87.7062 88.572 88.7492 87.4939C89.2802 86.962 89.9115 86.5408 90.6065 86.2546C91.3015 85.9685 92.0464 85.8232 92.798 85.8271C93.5496 85.831 94.2929 85.9841 94.9849 86.2774C95.6769 86.5707 96.3038 86.9985 96.8292 87.5359C97.4312 87.9991 98.1674 88.2538 98.9269 88.2618C99.6863 88.2697 100.428 88.0304 101.039 87.5799C101.806 86.9805 102.609 86.4288 103.444 85.9279C103.598 86.2603 103.793 86.5718 104.025 86.8549C104.693 87.41 105.387 87.9349 106.098 88.4339C106.287 88.5659 106.707 88.6809 106.783 88.5949C106.952 88.3777 107.029 88.1032 106.998 87.8299C106.917 87.2659 106.743 86.716 106.607 86.16C107.567 86.585 108.487 87.0937 109.357 87.6799C109.704 87.9482 110.112 88.1253 110.545 88.1949C115.793 88.2289 121.041 88.2289 126.289 88.1949C126.522 88.1775 126.748 88.1135 126.955 88.0066C127.162 87.8998 127.345 87.7523 127.494 87.5729C128.322 86.4539 129.05 85.2609 129.794 84.0849C130.076 83.6419 130.514 83.1759 130.532 82.7069C130.612 80.5809 130.567 78.45 130.567 76.2C128.103 76.2 125.739 76.2319 123.377 76.1819C122.577 76.1649 122.338 76.42 122.359 77.2039C122.407 79.004 122.39 80.8139 122.366 82.6189C122.35 83.78 121.955 84.2579 120.952 84.2789C119.214 84.3149 117.47 84.2099 115.739 84.3159C114.095 84.4159 112.47 83.9639 110.82 84.2529C110.588 84.2929 110.268 83.8289 109.989 83.5989C110.235 83.4099 110.476 83.213 110.728 83.034C110.83 82.9774 110.938 82.9324 111.05 82.8999C111.047 82.7906 111.043 82.6813 111.039 82.5719C110.705 82.5719 110.216 82.4329 110.068 82.5989C109.681 83.1302 109.346 83.6975 109.068 84.2929L83.8582 84.2869ZM141.415 73.2039C139.952 70.2951 137.892 67.7272 135.37 65.6679C134.858 65.2203 134.221 64.941 133.544 64.868C130.144 64.797 126.734 64.8679 123.329 64.8349C122.56 64.8289 122.357 65.1139 122.369 65.8349C122.403 67.9349 122.42 70.043 122.363 72.145C122.339 73.0079 122.563 73.289 123.471 73.282C129.08 73.24 134.689 73.2619 140.298 73.2589C140.621 73.2589 140.945 73.2299 141.416 73.2069M103.816 44.4729C103.538 41.9489 103.133 39.4404 102.603 36.9569C101.894 34.2409 100.803 31.6219 99.8282 28.9819C99.7222 28.6979 99.1742 28.3199 98.9362 28.3819C97.1752 28.8459 95.4452 29.4229 93.6962 29.9339C93.2322 30.0699 93.0842 30.2419 93.1382 30.7719C93.5532 34.8179 93.9202 38.8719 94.3032 42.9189C94.3522 43.4359 94.4032 43.9519 94.4562 44.4719L103.816 44.4729ZM93.9262 55.0309C94.0516 55.0769 94.1813 55.1104 94.3132 55.1309C96.4506 55.1383 98.5879 55.1426 100.725 55.1439C102.625 55.1439 102.625 55.1439 102.968 53.3309C103.081 52.7409 103.253 52.1579 103.313 51.5619C103.449 50.2139 103.533 48.8619 103.642 47.4619H94.4652C94.2832 50.0059 94.1052 52.4949 93.9242 55.0329M55.7652 25.8699C55.2499 25.2853 54.6132 24.82 53.8995 24.5067C53.1859 24.1934 52.4125 24.0396 51.6332 24.0559C46.6332 24.2293 41.6316 24.4106 36.6282 24.5999C36.3602 24.6099 36.0952 24.6739 35.6512 24.7369C35.9252 24.9589 36.0152 25.0509 36.1232 25.1169C38.1232 26.3349 40.1422 27.5299 42.1292 28.7729C42.5389 29.0793 43.0163 29.2824 43.5211 29.3653C44.0258 29.4481 44.5431 29.4082 45.0292 29.2489C47.5742 28.4019 50.1512 27.6489 52.7122 26.8569C53.6912 26.5569 54.6642 26.2279 55.7682 25.8709M28.0522 60.9589C28.3982 64.2149 36.3282 74.896 39.0922 75.7749C39.1071 75.642 39.1071 75.5079 39.0922 75.3749C38.2012 71.6869 37.3152 67.9969 36.3922 64.3179C36.3353 64.157 36.2453 64.0098 36.128 63.8858C36.0107 63.7618 35.8687 63.6637 35.7112 63.5979C33.1672 62.6899 30.6052 61.8289 28.0602 60.9579M143.596 85.6749C144.039 82.6772 143.751 79.6169 142.758 76.754C142.665 76.6035 142.539 76.4769 142.388 76.3842C142.238 76.2914 142.067 76.2352 141.891 76.2199C140.156 76.1689 138.418 76.1949 136.681 76.1949H133.572V81.7189C135.532 81.7189 137.429 81.7449 139.323 81.7079C139.751 81.6633 140.182 81.744 140.564 81.9403C140.946 82.1365 141.263 82.4397 141.476 82.813C142.103 83.813 142.883 84.7209 143.596 85.6699M28.8402 39.0259C28.8714 39.2899 28.9215 39.5512 28.9902 39.8079C30.3902 43.6079 31.9472 47.3659 33.1582 51.2279C33.8582 53.4519 35.5102 54.3079 37.3402 55.3099C37.3526 55.1141 37.3526 54.9178 37.3402 54.7219C36.8502 51.4219 36.3222 48.1329 35.8792 44.8299C35.8563 44.2902 35.6889 43.7664 35.3944 43.3135C35.1 42.8605 34.6893 42.495 34.2052 42.2549C32.4052 41.3069 30.7122 40.1649 28.8432 39.0249M97.9062 25.7449C96.7622 22.9759 91.0482 16.4249 89.7572 16.3199C89.9282 16.8939 90.1202 17.4599 90.2652 18.0359C90.9652 20.8359 91.6472 23.6509 92.3772 26.4479C92.4442 26.7039 92.8642 27.103 93.0302 27.063C94.6602 26.6709 96.2712 26.1989 97.9062 25.7449ZM92.8282 88.7809C92.4286 88.7558 92.028 88.8124 91.6509 88.9473C91.2738 89.0822 90.9283 89.2927 90.6353 89.5657C90.3424 89.8387 90.1081 90.1686 89.947 90.5352C89.7859 90.9019 89.7012 91.2975 89.6982 91.6979C89.7303 92.4836 90.0506 93.2299 90.5978 93.7944C91.1451 94.359 91.881 94.7024 92.6652 94.7589C93.4547 94.7517 94.2108 94.4398 94.7759 93.8885C95.341 93.3372 95.6715 92.589 95.6982 91.7999C95.7252 91.4091 95.6706 91.0169 95.5378 90.6482C95.4051 90.2796 95.1971 89.9426 94.9271 89.6587C94.6571 89.3748 94.3309 89.1501 93.9694 88.999C93.6079 88.8479 93.22 88.7736 92.8282 88.7809ZM73.2412 50.7539C74.4002 49.0979 75.4682 47.5879 76.5122 46.0609C76.635 45.8132 76.7228 45.5497 76.7732 45.2779C76.4751 45.1861 76.1616 45.1552 75.8512 45.1869C74.7892 45.5569 73.7512 45.9869 72.7082 46.4199C71.8222 46.7899 70.9512 47.195 70.3532 47.4609L73.2412 50.7539Z" fill="white"/>
<path d="M46.9702 97.598C46.1232 96.479 45.4592 95.615 44.8092 94.741C44.6587 94.5954 44.5404 94.4198 44.4618 94.2257C44.3833 94.0316 44.3462 93.8231 44.3531 93.6138C44.36 93.4045 44.4106 93.199 44.5017 93.0104C44.5929 92.8218 44.7225 92.6545 44.8822 92.519C45.6822 91.904 46.2822 92.019 47.0502 92.994C48.3835 94.6873 49.7022 96.393 51.0062 98.111C51.7152 99.047 51.5682 99.684 50.6672 100.611C49.1152 102.205 47.6142 103.848 46.0782 105.458C45.8112 105.795 45.4749 106.07 45.0922 106.266C44.9498 106.34 44.7941 106.384 44.6343 106.396C44.4746 106.409 44.3139 106.389 44.1619 106.338C44.0099 106.287 43.8696 106.207 43.7492 106.101C43.6289 105.995 43.5309 105.866 43.4612 105.722C43.361 105.439 43.3218 105.138 43.3463 104.839C43.3707 104.54 43.4583 104.25 43.6032 103.987C44.4772 102.838 45.5422 101.832 46.6962 100.594C46.0962 100.502 45.7262 100.429 45.3492 100.388C37.9507 99.641 31.0137 96.4442 25.6392 91.305C22.5067 88.32 19.9724 84.7647 18.1722 80.83C18.0575 80.6556 17.9783 80.4603 17.9392 80.2553C17.9001 80.0503 17.9019 79.8396 17.9443 79.6352C17.9868 79.4309 18.0691 79.2369 18.1866 79.0644C18.3041 78.8919 18.4545 78.7443 18.6292 78.63C19.5162 78.19 20.2692 78.475 20.7702 79.564C22.6556 83.742 25.4487 87.4472 28.9462 90.41C32.0482 93.0797 35.6766 95.0676 39.5962 96.245C41.3452 96.76 43.1532 97.078 44.9442 97.445C45.6156 97.5361 46.2917 97.5882 46.9692 97.601" fill="white"/>
<path d="M119.637 30.148C120.817 29.11 121.822 28.221 122.831 27.337C123.12 27.0347 123.515 26.8556 123.932 26.8369C124.35 26.8183 124.759 26.9616 125.074 27.237C125.207 27.3984 125.305 27.5857 125.362 27.787C125.419 27.9883 125.434 28.1992 125.405 28.4064C125.376 28.6136 125.305 28.8126 125.196 28.9908C125.086 29.1691 124.941 29.3227 124.769 29.442C122.889 31.158 121.039 32.911 119.084 34.537C118.825 34.6883 118.532 34.7728 118.231 34.7829C117.931 34.7931 117.633 34.7285 117.364 34.595C115.456 33.176 113.639 31.63 111.821 30.095C111.666 29.9837 111.537 29.8411 111.44 29.6765C111.344 29.5119 111.284 29.329 111.263 29.1396C111.242 28.9501 111.261 28.7583 111.318 28.5767C111.376 28.395 111.471 28.2275 111.598 28.085C111.721 27.9282 111.877 27.8 112.055 27.7089C112.232 27.6179 112.428 27.5663 112.627 27.5575C112.826 27.5488 113.025 27.5832 113.21 27.6583C113.395 27.7335 113.561 27.8476 113.698 27.993C114.62 28.719 115.541 29.446 116.649 30.32C116.649 29.585 116.694 29.101 116.642 28.629C116.112 23.0345 114.111 17.6798 110.842 13.109C107.911 9.02197 104.013 5.72585 99.495 3.51599C99.2868 3.44997 99.0954 3.33956 98.934 3.19238C98.7726 3.0452 98.645 2.86475 98.5601 2.66349C98.4752 2.46224 98.435 2.24496 98.4422 2.02664C98.4495 1.80833 98.504 1.59419 98.602 1.39899C99.026 0.543988 99.694 0.404988 100.78 0.947988C101.43 1.27399 102.102 1.56299 102.726 1.93399C107.513 4.71822 111.545 8.63276 114.469 13.3353C117.394 18.0379 119.122 23.3853 119.502 28.91C119.526 29.237 119.572 29.563 119.636 30.148" fill="white"/>
<path d="M130.518 91.585C130.522 90.8186 130.679 90.0607 130.98 89.3556C131.28 88.6506 131.718 88.0126 132.269 87.479C132.819 86.9454 133.47 86.5269 134.184 86.248C134.898 85.9692 135.66 85.8356 136.426 85.855C137.201 85.8604 137.967 86.0199 138.68 86.3242C139.393 86.6286 140.038 87.0717 140.578 87.6278C141.117 88.1839 141.541 88.8418 141.824 89.5632C142.107 90.2847 142.244 91.0552 142.226 91.83C142.219 92.6062 142.054 93.3729 141.744 94.0842C141.433 94.7955 140.982 95.4368 140.417 95.9699C139.853 96.5029 139.187 96.9167 138.459 97.1864C137.731 97.4562 136.957 97.5765 136.181 97.54C135.414 97.5352 134.656 97.3757 133.952 97.071C133.248 96.7663 132.613 96.3226 132.085 95.7666C131.556 95.2106 131.146 94.5536 130.877 93.8351C130.609 93.1166 130.488 92.3513 130.522 91.585M136.397 88.778C136.007 88.7587 135.617 88.8191 135.251 88.9553C134.885 89.0916 134.55 89.301 134.267 89.5707C133.985 89.8404 133.76 90.1648 133.606 90.5241C133.453 90.8835 133.374 91.2703 133.375 91.661C133.373 92.4667 133.685 93.2414 134.246 93.8203C134.806 94.3993 135.57 94.7368 136.375 94.761C137.162 94.7225 137.905 94.3894 138.457 93.8281C139.01 93.2667 139.331 92.5181 139.356 91.731C139.364 91.3405 139.293 90.9526 139.147 90.5903C139.001 90.228 138.784 89.899 138.507 89.6228C138.231 89.3467 137.902 89.1292 137.54 88.9833C137.178 88.8374 136.79 88.7662 136.399 88.774" fill="white"/>
<path d="M99.406 91.585C99.41 90.8186 99.5669 90.0607 99.8674 89.3556C100.168 88.6506 100.606 88.0126 101.156 87.479C101.707 86.9454 102.358 86.5269 103.072 86.248C103.785 85.9692 104.548 85.8356 105.314 85.855C106.089 85.8604 106.855 86.0199 107.568 86.3242C108.281 86.6286 108.926 87.0717 109.465 87.6278C110.005 88.1839 110.429 88.8418 110.712 89.5632C110.995 90.2847 111.132 91.0552 111.114 91.83C111.106 92.6062 110.942 93.3729 110.631 94.0842C110.32 94.7955 109.869 95.4368 109.305 95.9699C108.741 96.5029 108.075 96.9167 107.347 97.1864C106.619 97.4562 105.844 97.5765 105.069 97.54C104.302 97.5352 103.544 97.3757 102.84 97.071C102.136 96.7663 101.501 96.3226 100.972 95.7666C100.444 95.2106 100.033 94.5536 99.7648 93.8351C99.4963 93.1166 99.3757 92.3513 99.41 91.585M105.284 88.778C104.894 88.7587 104.504 88.8191 104.138 88.9553C103.771 89.0916 103.437 89.301 103.154 89.5707C102.871 89.8404 102.646 90.1648 102.493 90.5241C102.34 90.8835 102.261 91.2703 102.262 91.661C102.26 92.4667 102.572 93.2414 103.132 93.8203C103.693 94.3993 104.457 94.7368 105.262 94.761C106.049 94.7225 106.792 94.3894 107.344 93.8281C107.896 93.2667 108.217 92.5181 108.243 91.731C108.251 91.3405 108.18 90.9526 108.034 90.5903C107.888 90.228 107.67 89.899 107.394 89.6228C107.118 89.3467 106.789 89.1292 106.427 88.9833C106.064 88.8374 105.676 88.7662 105.286 88.774" fill="white"/>
<path d="M103.947 86C105.897 85.712 106.022 85.817 106.347 87.9L103.947 86Z" fill="white"/>
<path d="M100.04 91.1802L99.9771 89.6992C100.298 89.7142 100.777 89.5992 100.911 89.7682C101.398 90.3682 100.939 90.7072 100.039 91.1802" fill="white"/>
<path d="M96.8691 91.6981C96.8691 91.6981 100.274 90.7781 100.509 92.5981C100.744 94.4181 101.109 90.4231 101.109 90.4231L101.78 88.623H97.9062L96.8701 90.4231L96.8691 91.6981Z" fill="white"/>
<path d="M114.976 72.09V80.932L107.222 81.473L106.345 84.287L120.464 84.28L117.839 82.401L116.471 75.775L114.976 72.09Z" fill="white"/>
</g>
</svg>
