<svg width="108" height="108" viewBox="0 0 108 108" fill="none" xmlns="http://www.w3.org/2000/svg">
<path d="M103.406 46.375H99.5942V31.126H91.9702V46.376H84.3432V31.126H76.7192V46.376H72.9062C71.8952 46.376 70.9256 46.7776 70.2107 47.4925C69.4958 48.2074 69.0942 49.177 69.0942 50.188V65.438C69.1 69.8302 70.62 74.0862 73.3979 77.4883C76.1759 80.8905 80.0419 83.2309 84.3442 84.115V95.937C84.3442 96.948 83.9426 97.9176 83.2277 98.6325C82.5128 99.3474 81.5432 99.749 80.5322 99.749H11.9072C10.8961 99.749 9.92636 99.3473 9.21138 98.6323C8.4964 97.9173 8.09473 96.9476 8.09473 95.9365C8.09473 94.9253 8.4964 93.9556 9.21138 93.2406C9.92636 92.5257 10.8961 92.124 11.9072 92.124H30.9702C34.0036 92.124 36.9128 90.919 39.0578 88.774C41.2027 86.6291 42.4077 83.7199 42.4077 80.6865C42.4077 77.6531 41.2027 74.7439 39.0578 72.5989C36.9128 70.454 34.0036 69.249 30.9702 69.249H11.9072C10.8961 69.249 9.92636 68.8473 9.21138 68.1323C8.4964 67.4173 8.09473 66.4476 8.09473 65.4365C8.09473 64.4253 8.4964 63.4556 9.21138 62.7406C9.92636 62.0257 10.8961 61.624 11.9072 61.624H30.9702C34.0024 61.6208 36.9094 60.415 39.0535 58.271C41.1977 56.1271 42.4038 53.2201 42.4072 50.188V34.938H46.2192C50.2624 34.9332 54.1386 33.325 56.9977 30.4662C59.8568 27.6073 61.4652 23.7312 61.4702 19.688V8.25098H50.0322C46.1287 8.25683 42.3776 9.76721 39.5592 12.468C37.5842 8.88424 34.6847 5.89545 31.1625 3.81275C27.6403 1.73005 23.6241 0.629604 19.5322 0.625977H8.09523V12.063C8.10184 18.1278 10.514 23.9423 14.8025 28.2307C19.0909 32.5192 24.9054 34.9314 30.9702 34.938H34.7822V50.188C34.7822 51.199 34.3806 52.1686 33.6657 52.8835C32.9508 53.5984 31.9812 54 30.9702 54H11.9072C8.87381 54 5.96464 55.205 3.81969 57.3499C1.67475 59.4949 0.469727 62.4041 0.469727 65.4375C0.469727 68.4709 1.67475 71.3801 3.81969 73.525C5.96464 75.67 8.87381 76.875 11.9072 76.875H30.9702C31.9814 76.875 32.9511 77.2766 33.6661 77.9916C34.3811 78.7066 34.7827 79.6763 34.7827 80.6875C34.7827 81.6986 34.3811 82.6683 33.6661 83.3833C32.9511 84.0983 31.9814 84.5 30.9702 84.5H11.9072C8.87381 84.5 5.96464 85.705 3.81969 87.8499C1.67475 89.9949 0.469727 92.9041 0.469727 95.9375C0.469727 98.9709 1.67475 101.88 3.81969 104.025C5.96464 106.17 8.87381 107.375 11.9072 107.375H80.5312C83.564 107.372 86.4719 106.166 88.6165 104.022C90.7612 101.878 91.9673 98.9698 91.9702 95.937V84.114C96.2726 83.2299 100.139 80.8895 102.917 77.4873C105.694 74.0852 107.214 69.8292 107.22 65.437V50.188C107.22 49.6871 107.122 49.1912 106.93 48.7284C106.739 48.2657 106.458 47.8452 106.103 47.4911C105.749 47.137 105.329 46.8562 104.866 46.6647C104.403 46.4732 103.907 46.3747 103.406 46.375ZM42.4062 23.5C42.4081 21.4783 43.212 19.5399 44.6416 18.1103C46.0711 16.6808 48.0095 15.8768 50.0312 15.875H53.8432V19.687C53.8414 21.7087 53.0374 23.6471 51.6079 25.0766C50.1783 26.5062 48.2399 27.3101 46.2182 27.312H42.4072L42.4062 23.5ZM30.9702 27.313C26.9272 27.3079 23.0512 25.6996 20.1924 22.8408C17.3336 19.982 15.7253 16.106 15.7202 12.063V8.25098H19.5322C23.5752 8.256 27.4512 9.86431 30.3101 12.7232C33.1689 15.582 34.7772 19.458 34.7822 23.501V27.313H30.9702ZM99.5942 65.437C99.5942 68.4704 98.3892 71.3796 96.2443 73.5245C94.0993 75.6695 91.1901 76.8745 88.1567 76.8745C85.1233 76.8745 82.2141 75.6695 80.0692 73.5245C77.9242 71.3796 76.7192 68.4704 76.7192 65.437V54H99.5942V65.437Z" fill="white"/>
</svg>
