<svg width="117" height="117" viewBox="0 0 117 117" fill="none" xmlns="http://www.w3.org/2000/svg">
<path d="M68.5699 18.3751C64.6712 15.8367 60.321 14.0713 55.7559 13.1751L55.8149 2.94312H41.6149L41.6419 13.2561C39.3648 13.7255 37.1378 14.4109 34.9909 15.3031C32.8567 16.2015 30.8139 17.3032 28.8909 18.5931L21.4789 11.2711L11.5529 21.2551L18.9529 28.5681C16.4003 32.4393 14.624 36.7695 13.7229 41.3181L3.21387 41.3371V55.3831L13.8139 55.3451C14.2843 57.6063 14.9725 59.8166 15.8689 61.9451C16.7691 64.0741 17.8786 66.1084 19.1809 68.0181" stroke="white" stroke-width="5" stroke-linecap="round"/>
<path d="M76.0238 113.987V103.155C78.2972 102.697 80.5202 102.017 82.6608 101.124C84.8014 100.22 86.8513 99.1155 88.7828 97.8241L96.3488 105.284L106.28 95.3151L98.7088 87.8541C101.26 83.979 103.036 79.6461 103.939 75.0951L114.216 75.0321V61.0031L103.844 61.0691C102.911 56.5297 101.088 52.2198 98.4818 48.3881L105.648 41.2041L95.6168 31.3231L88.4598 38.5041C84.5611 35.9658 80.2108 34.2004 75.6458 33.3041L75.7098 23.0691H61.5098L61.5368 33.3821C59.2598 33.8511 57.0327 34.5362 54.8858 35.4281C52.7516 36.3265 50.7089 37.4282 48.7858 38.7181L41.3748 31.3961L31.4438 41.3811L38.8438 48.6941C36.2939 52.5662 34.5204 56.8967 33.6218 61.4451L23.1128 61.4691V75.5101L33.7128 75.4721C34.1829 77.7332 34.8708 79.9435 35.7668 82.0721C36.667 84.2011 37.7765 86.2354 39.0788 88.1451L31.4788 95.7141L41.5148 105.577L49.0948 98.0321C52.991 100.579 57.3445 102.345 61.9138 103.232V113.973C66.6138 114.009 76.0228 113.973 76.0228 113.973L76.0238 113.987Z" stroke="white" stroke-width="5" stroke-linecap="round"/>
<path d="M68.7229 80.2101C75.4835 80.2101 80.9639 74.7297 80.9639 67.9691C80.9639 61.2086 75.4835 55.7281 68.7229 55.7281C61.9624 55.7281 56.4819 61.2086 56.4819 67.9691C56.4819 74.7297 61.9624 80.2101 68.7229 80.2101Z" stroke="white" stroke-width="5" stroke-linecap="square"/>
</svg>
