<svg width="133" height="133" viewBox="0 0 133 133" fill="none" xmlns="http://www.w3.org/2000/svg">
<mask id="mask0_10_1294" style="mask-type:luminance" maskUnits="userSpaceOnUse" x="0" y="0" width="133" height="133">
<path d="M132.965 0H0V132.966H132.965V0Z" fill="white"/>
</mask>
<g mask="url(#mask0_10_1294)">
<path d="M33.2322 70.689C33.2322 70.48 33.2322 70.289 33.2322 70.108C33.2412 68.682 33.1832 67.251 33.2762 65.83C33.3462 64.7217 33.6457 63.6401 34.1557 62.6537C34.6658 61.6673 35.3753 60.7976 36.2392 60.1C36.3232 60.028 36.4012 59.95 36.4902 59.867C29.7522 50.27 27.4002 39.776 30.2102 28.333C32.2588 19.651 37.4526 12.0366 44.7882 6.96095C51.9118 1.88825 60.5872 -0.528898 69.3076 0.129393C78.0279 0.787684 86.2422 4.47982 92.5235 10.5644C98.8048 16.6491 102.756 24.7418 103.692 33.4368C104.627 42.1317 102.487 50.8797 97.6432 58.161H124.4C125.535 58.1243 126.665 58.3207 127.72 58.738C128.776 59.1553 129.735 59.7847 130.537 60.5873C131.34 61.3899 131.969 62.3485 132.387 63.404C132.804 64.4596 133.001 65.5895 132.964 66.724V114.048C133 115.178 132.804 116.304 132.388 117.356C131.973 118.408 131.346 119.363 130.547 120.164C129.748 120.964 128.794 121.592 127.743 122.01C126.692 122.428 125.567 122.626 124.436 122.592C119.883 122.607 115.33 122.592 110.777 122.592H110.155V132.709C109.928 132.572 109.783 132.491 109.645 132.4C104.884 129.227 100.121 126.056 95.3562 122.888C95.0798 122.709 94.7592 122.611 94.4302 122.604C81.2682 122.59 68.1066 122.584 54.9452 122.585C54.7657 122.576 54.5863 122.608 54.4211 122.679C54.2559 122.749 54.1091 122.857 53.9922 122.994C49.3892 128.065 43.198 131.419 36.4362 132.505C31.6155 133.397 26.6504 133.108 21.9658 131.662C17.2811 130.217 13.0163 127.658 9.53622 124.205C4.33802 119.369 1.04677 112.828 0.260218 105.772C-0.372616 101.289 0.007671 96.7212 1.3731 92.4046C2.73853 88.088 5.05436 84.1325 8.15022 80.829C13.3511 74.9813 20.6149 71.3754 28.4172 70.768C29.8952 70.63 31.3932 70.71 32.8822 70.69C32.9752 70.69 33.0682 70.69 33.2312 70.69M105.95 118.422H106.599C112.515 118.422 118.431 118.422 124.346 118.422C124.942 118.463 125.539 118.375 126.098 118.166C126.657 117.956 127.165 117.63 127.588 117.208C128.01 116.786 128.337 116.279 128.548 115.72C128.758 115.161 128.846 114.564 128.806 113.968C128.806 98.2406 128.806 82.5133 128.806 66.786C128.847 66.1943 128.76 65.6008 128.553 65.0453C128.345 64.4898 128.021 63.9852 127.602 63.5654C127.183 63.1456 126.679 62.8202 126.124 62.6113C125.569 62.4023 124.976 62.3146 124.384 62.354H42.3342C42.0772 62.354 41.8212 62.349 41.5642 62.354C41.0128 62.3509 40.4663 62.4582 39.957 62.6696C39.4476 62.881 38.9857 63.1921 38.5984 63.5847C38.2112 63.9773 37.9064 64.4434 37.702 64.9555C37.4975 65.4677 37.3977 66.0156 37.4082 66.567C37.3962 67.978 37.4182 69.389 37.3972 70.799C37.3922 71.159 37.5092 71.2859 37.8582 71.364C41.2165 72.1007 44.4276 73.395 47.3582 75.193C48.0082 75.593 48.6442 76.016 49.3042 76.439L55.7512 68.227L59.0352 70.808L52.5252 79.108C57.7828 84.0666 61.1574 90.6955 62.0736 97.8642C62.9898 105.033 61.3908 112.297 57.5492 118.419H58.1122C70.6496 118.419 83.1866 118.423 95.7232 118.43C96.0362 118.435 96.3418 118.526 96.6062 118.694C99.5632 120.644 102.506 122.614 105.455 124.578C105.591 124.668 105.734 124.746 105.955 124.878L105.95 118.422ZM47.3722 85.671C49.5173 87.8084 51.2104 90.3556 52.3508 93.1608C53.4912 95.9661 54.0555 98.9721 54.0102 102C54.0263 105.035 53.4162 108.041 52.218 110.83C51.0197 113.619 49.2591 116.131 47.0462 118.209C43.1254 122.007 37.9744 124.275 32.5259 124.603C27.0773 124.931 21.6913 123.297 17.3432 119.998C12.995 116.698 9.97211 111.95 8.8218 106.614C7.67149 101.278 8.46981 95.7071 11.0722 90.909C13.6609 86.0179 17.9829 82.2701 23.1912 80.4C30.5772 77.719 37.5852 78.727 44.1782 82.971L46.6782 79.783C42.2944 76.6935 37.0888 74.9817 31.727 74.8662C26.3651 74.7508 21.0907 76.237 16.578 79.1349C12.0652 82.0327 8.51923 86.2106 6.39333 91.1343C4.26743 96.0581 3.65822 101.504 4.64357 106.776C5.62893 112.047 8.16409 116.906 11.9249 120.729C15.6858 124.552 20.5014 127.167 25.7562 128.24C31.011 129.312 36.4662 128.793 41.4243 126.748C46.3825 124.704 50.6183 121.227 53.5902 116.763C57.1257 111.532 58.693 105.217 58.014 98.9403C57.335 92.6632 54.4535 86.8299 49.8812 82.476L47.3712 85.676M41.5322 86.344C37.57 83.6618 32.7315 82.5977 28.0096 83.3702C23.2877 84.1426 19.0404 86.693 16.1394 90.4979C13.2384 94.3028 11.9036 99.0737 12.409 103.832C12.9143 108.59 15.2215 112.974 18.857 116.084C22.4925 119.195 27.1807 120.796 31.9595 120.56C36.7384 120.323 41.2454 118.266 44.5558 114.812C47.8662 111.357 49.729 106.766 49.7618 101.982C49.7946 97.1973 47.995 92.5816 44.7322 89.082C44.6382 89.182 44.5372 89.282 44.4512 89.395C43.7872 90.239 43.1392 91.095 42.4512 91.924C42.396 91.9715 42.3519 92.0306 42.3219 92.0971C42.2919 92.1635 42.2769 92.2357 42.2777 92.3085C42.2786 92.3814 42.2953 92.4532 42.3269 92.5189C42.3584 92.5847 42.4039 92.6427 42.4602 92.689C43.7288 94.2193 44.6606 95.9998 45.1947 97.9145C45.7289 99.8292 45.8534 101.835 45.5602 103.801C45.1364 106.892 43.73 109.765 41.5488 111.996C39.3675 114.227 36.5268 115.698 33.446 116.191C30.3651 116.685 27.2072 116.175 24.4383 114.736C21.6694 113.298 19.4362 111.008 18.0682 108.204C16.7002 105.4 16.2698 102.23 16.8407 99.1624C17.4115 96.0949 18.9533 93.2922 21.2385 91.1678C23.5238 89.0434 26.4313 87.7099 29.5322 87.364C32.6331 87.0182 35.7631 87.6783 38.4602 89.247C38.6352 89.347 38.8122 89.447 39.0042 89.547L41.5202 86.338M63.6252 38.167L48.6362 29.514C47.2062 31.531 44.0782 39.809 43.9212 41.897C46.2972 42.856 48.6832 43.747 51.0082 44.776C53.3332 45.805 55.5862 46.97 57.8972 48.089L63.6252 38.167ZM75.1002 26.647L69.3402 36.638L84.3162 45.283C85.6322 43.607 89.0482 34.548 89.0282 32.805C84.2128 31.1676 79.5519 29.1069 75.1002 26.647ZM71.4792 24.557C67.1077 21.9213 62.9777 18.9046 59.1372 15.542C55.8852 18.6054 53.0429 22.0765 50.6812 25.869L65.7102 34.545L71.4792 24.557ZM61.4782 50.236C61.6542 50.351 61.7842 50.436 61.9192 50.523C65.1411 52.4448 68.2084 54.6147 71.0932 57.013C71.5448 57.4548 72.0914 57.7876 72.6912 57.9858C73.2911 58.1841 73.9283 58.2426 74.5542 58.157C74.5702 58.157 74.5882 58.157 74.6022 58.157C74.823 58.1026 75.0323 58.0091 75.2202 57.881C77.8073 55.2516 80.1067 52.3539 82.0792 49.237C82.1362 49.147 82.1792 49.047 82.2402 48.921L67.2402 40.26L61.4802 50.237M36.3742 92.915C34.3417 91.6747 31.9379 91.1881 29.583 91.5404C27.2281 91.8926 25.0719 93.0612 23.4912 94.842C22.1678 96.2879 21.2818 98.0797 20.9363 100.009C20.5907 101.939 20.7997 103.927 21.5391 105.742C22.2784 107.557 23.5177 109.126 25.1129 110.265C26.7082 111.404 28.5939 112.067 30.5509 112.177C32.508 112.287 34.4562 111.839 36.169 110.886C37.8818 109.933 39.2889 108.513 40.227 106.792C41.165 105.071 41.5954 103.119 41.4682 101.163C41.341 99.2069 40.6613 97.3271 39.5082 95.742C39.4222 95.836 39.3322 95.921 39.2572 96.017C38.5332 96.936 37.8202 97.863 37.0822 98.772C36.9854 98.8732 36.9222 99.0019 36.9011 99.1403C36.88 99.2788 36.902 99.4204 36.9642 99.546C37.3695 100.573 37.4937 101.689 37.3241 102.779C37.1544 103.87 36.697 104.896 35.9991 105.751C35.3011 106.605 34.3877 107.259 33.3531 107.643C32.3186 108.028 31.2002 108.13 30.1132 107.938C29.008 107.749 27.9743 107.265 27.1216 106.537C26.2689 105.808 25.6287 104.863 25.2688 103.801C24.9089 102.739 24.8426 101.6 25.077 100.503C25.3114 99.4069 25.8376 98.394 26.6002 97.572C27.445 96.6354 28.5582 95.9824 29.7879 95.7019C31.0176 95.4215 32.3039 95.5273 33.4712 96.005C33.6152 96.059 33.8872 96.057 33.9602 95.968C34.7802 94.968 35.5732 93.937 36.3742 92.915ZM89.8342 28.65C89.8692 28.45 89.8982 28.325 89.9112 28.199C90.2234 25.6348 90.2234 23.0422 89.9112 20.478C89.6072 17.6292 88.6489 14.8893 87.1112 12.472C86.4714 11.4926 85.6929 10.6111 84.8002 9.85495L77.2002 23.02C81.2455 25.249 85.4719 27.1324 89.8342 28.65ZM81.1652 7.78795C80.9572 7.71495 80.8122 7.65895 80.6652 7.61295C78.1242 6.879 75.43 6.86066 72.8792 7.55995C69.3522 8.49308 66.0379 10.0966 63.1172 12.283C62.8882 12.446 62.6682 12.621 62.4062 12.819C65.8951 15.8326 69.6328 18.5457 73.5792 20.929L81.1662 7.78895M93.0502 34.072C91.9397 38.7142 90.2428 43.1963 88.0002 47.41L96.2422 52.168C98.8483 46.9273 100.018 41.0891 99.6312 35.249L93.0502 34.072ZM33.3342 39.556L39.8002 40.714C40.5322 38.458 41.1772 36.173 42.0162 33.962C42.8602 31.735 43.8972 29.582 44.8742 27.341L36.7262 22.641C34.1202 27.881 32.9502 33.7183 33.3352 39.558M46.9652 23.719C48.4012 21.767 49.7432 19.792 51.2432 17.946C52.7432 16.1 54.4192 14.365 55.9852 12.616L51.7772 7.62495C46.5254 10.2075 42.0532 14.1376 38.8172 19.014L46.9652 23.719ZM55.7662 51.783C51.7184 49.5538 47.4893 47.6707 43.1242 46.154C43.0842 46.454 43.0362 46.685 43.0242 46.921C42.9532 48.135 42.8522 49.349 42.8322 50.565C42.789 52.9865 43.0966 55.4015 43.7452 57.735C43.8132 57.978 43.8722 58.167 44.2042 58.165C46.7352 58.152 49.2652 58.165 51.7962 58.148C51.878 58.1417 51.9574 58.1179 52.0291 58.078C52.1007 58.0381 52.1629 57.9832 52.2112 57.917C53.3932 55.901 54.5582 53.875 55.7662 51.783ZM94.1672 55.799L86.0002 51.084L80.8402 58.125C80.8851 58.1405 80.9318 58.1502 80.9792 58.154C84.7125 58.154 88.4429 58.154 92.1702 58.154C92.2395 58.1542 92.3081 58.1407 92.3721 58.1143C92.4362 58.0879 92.4943 58.049 92.5432 58C93.0842 57.291 93.6052 56.566 94.1672 55.799ZM99.0442 30.93C98.1585 26.4926 96.3698 22.2848 93.7892 18.568C93.7606 18.6404 93.752 18.7191 93.7642 18.796C93.8992 20.086 94.0832 21.373 94.1642 22.667C94.2808 24.9415 94.1821 27.222 93.8692 29.478C93.8282 29.792 93.9112 29.908 94.2082 29.965C94.6952 30.059 95.1722 30.205 95.6592 30.3C96.7532 30.513 97.8512 30.709 99.0482 30.93M39.1902 56.23C38.6292 52.472 38.616 48.6526 39.1512 44.891L33.9192 43.855C34.8031 48.2996 36.5978 52.5131 39.1902 56.23ZM55.7752 5.96595L59.1982 9.86595C60.8612 8.78095 62.3742 7.69495 63.9822 6.77295C65.5902 5.85095 67.2672 5.10895 68.9242 4.28295C64.4728 3.95837 60.0014 4.53068 55.7752 5.96595ZM65.5942 58.129L65.6572 58L59.4112 53.825L56.9312 58.125L65.5942 58.129ZM33.2242 101.794C33.2198 101.252 33.0022 100.733 32.6184 100.35C32.2346 99.9665 31.7155 99.7496 31.1732 99.746C30.6221 99.7457 30.0933 99.9634 29.7021 100.352C29.3109 100.74 29.0892 101.267 29.0852 101.818C29.0992 102.36 29.3215 102.876 29.7058 103.259C30.0901 103.641 30.607 103.861 31.1492 103.873C31.422 103.873 31.692 103.819 31.944 103.715C32.1959 103.61 32.4248 103.457 32.6175 103.264C32.8102 103.071 32.963 102.842 33.0671 102.59C33.1712 102.338 33.2246 102.067 33.2242 101.794Z" fill="white"/>
<path d="M123.6 105.939V110.128H98.6923V112.165H94.5463V110.128H90.3843V105.983H94.5073V103.905H98.6813V105.943L123.6 105.939Z" fill="white"/>
<path d="M90.3843 93.535V89.353H113.208V87.277H117.372V89.319H123.604V93.494H117.38V95.538H113.251V93.532L90.3843 93.535Z" fill="white"/>
<path d="M104.908 76.8939H90.4004V72.7289H104.89V70.6749H109.06V72.7109H123.594V76.8549H109.108V78.9039H104.908V76.8939Z" fill="white"/>
<path d="M86.2244 91.433C86.2204 92.6682 85.8502 93.8745 85.1606 94.8994C84.471 95.9242 83.493 96.7215 82.3503 97.1904C81.2075 97.6594 79.9514 97.7789 78.7407 97.5339C77.53 97.2889 76.4192 96.6903 75.5487 95.814C74.6782 94.9376 74.0871 93.8228 73.8503 92.6105C73.6134 91.3982 73.7414 90.1428 74.218 89.0033C74.6946 87.8637 75.4985 86.8911 76.5279 86.2084C77.5573 85.5257 78.7661 85.1637 80.0013 85.168C81.6559 85.178 83.2393 85.8427 84.4054 87.0166C85.5715 88.1906 86.2254 89.7784 86.2244 91.433ZM79.9893 89.357C79.582 89.356 79.1834 89.4757 78.8439 89.7008C78.5044 89.9259 78.2391 90.2464 78.0814 90.622C77.9237 90.9976 77.8807 91.4115 77.9578 91.8115C78.0348 92.2115 78.2286 92.5798 78.5145 92.8699C78.8005 93.16 79.1659 93.359 79.5647 93.4419C79.9636 93.5247 80.378 93.4877 80.7559 93.3355C81.1337 93.1832 81.458 92.9226 81.688 92.5863C81.918 92.2501 82.0434 91.8534 82.0483 91.446C82.051 91.1735 81.9997 90.9031 81.8976 90.6504C81.7954 90.3977 81.6443 90.1677 81.453 89.9736C81.2617 89.7795 81.0338 89.6251 80.7827 89.5193C80.5315 89.4135 80.2619 89.3583 79.9893 89.357Z" fill="white"/>
<path d="M86.2244 108.06C86.221 109.296 85.8511 110.503 85.1616 111.528C84.472 112.554 83.4938 113.352 82.3506 113.821C81.2074 114.29 79.9507 114.41 78.7395 114.165C77.5283 113.92 76.417 113.321 75.5463 112.444C74.6756 111.567 74.0845 110.451 73.848 109.239C73.6114 108.026 73.7399 106.77 74.2173 105.63C74.6947 104.49 75.4994 103.518 76.5297 102.835C77.5601 102.153 78.7696 101.792 80.0054 101.797C81.6583 101.81 83.2392 102.476 84.4039 103.649C85.5686 104.821 86.2229 106.407 86.2244 108.06ZM79.9694 110.097C80.3778 110.099 80.7778 109.981 81.1185 109.755C81.4592 109.53 81.7253 109.209 81.8829 108.832C82.0404 108.455 82.0825 108.04 82.0036 107.639C81.9247 107.238 81.7284 106.87 81.4397 106.581C81.151 106.292 80.783 106.095 80.3823 106.016C79.9816 105.937 79.5664 105.978 79.1894 106.136C78.8125 106.293 78.4907 106.559 78.2651 106.899C78.0395 107.24 77.9202 107.639 77.9224 108.048C77.9245 108.59 78.1408 109.11 78.5242 109.494C78.9075 109.878 79.4269 110.094 79.9694 110.097Z" fill="white"/>
<path d="M86.2254 74.822C86.2192 76.4784 85.5552 78.0645 84.3796 79.2314C83.2039 80.3982 81.6128 81.0503 79.9564 81.044C78.3 81.0378 76.7139 80.3738 75.5471 79.1981C74.3802 78.0225 73.7282 76.4314 73.7344 74.775C73.7407 73.1186 74.4046 71.5325 75.5803 70.3657C76.756 69.1988 78.347 68.5468 80.0034 68.553C81.6598 68.5593 83.2459 69.2232 84.4128 70.3989C85.5796 71.5746 86.2316 73.1656 86.2254 74.822ZM79.9704 72.736C79.5613 72.7393 79.1624 72.8641 78.8244 73.0946C78.4865 73.3251 78.2247 73.6509 78.0723 74.0306C77.9199 74.4103 77.8839 74.8267 77.9687 75.2269C78.0536 75.6271 78.2555 75.993 78.5489 76.2782C78.8422 76.5634 79.2137 76.7549 79.6162 76.8284C80.0186 76.9019 80.4339 76.8541 80.8091 76.691C81.1843 76.528 81.5025 76.257 81.7234 75.9127C81.9443 75.5683 82.0577 75.1661 82.0494 74.757C82.0374 74.2148 81.8126 73.699 81.4237 73.3209C81.0348 72.9428 80.5128 72.7328 79.9704 72.736Z" fill="white"/>
</g>
</svg>
