<svg width="98" height="98" viewBox="0 0 98 98" fill="none" xmlns="http://www.w3.org/2000/svg">
<path d="M91.0171 97.889H70.0641C68.2124 97.8872 66.437 97.1508 65.1277 95.8414C63.8183 94.532 63.0819 92.7567 63.0801 90.905V69.952C63.0819 68.1003 63.8183 66.325 65.1277 65.0156C66.437 63.7063 68.2124 62.9699 70.0641 62.968H91.0171C92.8688 62.9699 94.6441 63.7063 95.9535 65.0156C97.2628 66.325 97.9992 68.1003 98.0011 69.952V90.905C97.9992 92.7567 97.2628 94.532 95.9535 95.8414C94.6441 97.1508 92.8688 97.8872 91.0171 97.889ZM70.0641 69.952V90.905H91.0171V69.952H70.0641Z" fill="white"/>
<path d="M56.096 83.9211H35.143C32.3653 83.9182 29.7022 82.8134 27.7382 80.8492C25.7742 78.8849 24.6696 76.2218 24.667 73.4441V59.4761H31.651V73.4441C31.6531 74.3696 32.0217 75.2565 32.6761 75.9109C33.3305 76.5654 34.2175 76.934 35.143 76.9361H56.096V83.9211Z" fill="white"/>
<path d="M84.0327 55.985H77.0487V45.508C77.0466 44.5825 76.678 43.6955 76.0236 43.0411C75.3692 42.3867 74.4822 42.0181 73.5567 42.016H56.0957V35.032H73.5557C76.3332 35.0349 78.9961 36.1395 80.9601 38.1035C82.9241 40.0675 84.0288 42.7305 84.0317 45.508L84.0327 55.985Z" fill="white"/>
<path d="M45.6203 55.984C45.0113 55.9845 44.4128 55.8255 43.8843 55.523L28.1583 46.511L12.4333 55.521C11.8436 55.8588 11.1681 56.0171 10.4897 55.9766C9.81126 55.9361 9.15942 55.6985 8.61406 55.293C8.06871 54.8874 7.65354 54.3315 7.41947 53.6935C7.18539 53.0555 7.14259 52.363 7.2963 51.701L11.0013 35.735L1.1613 25.191C0.731093 24.7295 0.433963 24.1601 0.301483 23.5432C0.169003 22.9263 0.206122 22.2851 0.408897 21.6876C0.611672 21.0902 0.972526 20.5588 1.45311 20.1501C1.93369 19.7413 2.51605 19.4703 3.1383 19.366L17.8043 16.911L25.0203 2.07301C25.304 1.49035 25.7443 0.998144 26.2919 0.651474C26.8394 0.304804 27.4727 0.117348 28.1207 0.110083C28.7687 0.102818 29.406 0.276031 29.9612 0.610338C30.5164 0.944646 30.9676 1.42686 31.2643 2.00301L38.9643 16.914L53.2013 19.365C53.822 19.472 54.4023 19.7448 54.8806 20.1547C55.3589 20.5645 55.7175 21.0961 55.9183 21.6932C56.119 22.2902 56.1546 22.9305 56.0212 23.5461C55.8877 24.1617 55.5903 24.7297 55.1603 25.19L45.3153 35.737L49.0153 51.703C49.134 52.2149 49.1357 52.747 49.0202 53.2597C48.9047 53.7723 48.6749 54.2523 48.3481 54.6638C48.0213 55.0753 47.6058 55.4077 47.1326 55.6363C46.6595 55.8649 46.1408 55.9838 45.6153 55.984H45.6203ZM28.1603 38.524C28.1603 38.524 29.3603 39.153 29.8963 39.463L40.4073 45.483L37.6673 33.691L45.6363 25.153L34.3463 23.211L28.2523 11.401L22.5113 23.211L10.7053 25.18L18.6463 33.69L15.9083 45.483L26.4203 39.463C26.9643 39.152 28.1583 38.524 28.1583 38.524H28.1603Z" fill="white"/>
</svg>
