<svg width="96" height="88" viewBox="0 0 96 88" fill="none" xmlns="http://www.w3.org/2000/svg">
<path d="M88.4179 40.418V60.627H7.58195V6.736H47.9999V0H7.58195C5.79545 0 4.08212 0.709684 2.81888 1.97293C1.55563 3.23617 0.845947 4.9495 0.845947 6.736V60.626C0.845947 62.4125 1.55563 64.1258 2.81888 65.3891C4.08212 66.6523 5.79545 67.362 7.58195 67.362H34.5269V80.835H21.0549V87.571H74.9459V80.835H61.4729V67.363H88.4179C90.2044 67.363 91.9178 66.6533 93.181 65.3901C94.4443 64.1268 95.1539 62.4135 95.1539 60.627V40.418H88.4179ZM54.7359 80.835H41.2639V67.363H54.7359V80.835Z" fill="white"/>
<path d="M64.8412 37.0491L48.0002 20.3431L53.3552 15.0551L64.8402 26.4391L89.8002 1.68408L95.1552 7.00608L64.8412 37.0491Z" fill="white"/>
</svg>
