<svg width="86" height="87" viewBox="0 0 86 87" fill="none" xmlns="http://www.w3.org/2000/svg">
<path d="M84.901 13.3719L74.993 30.2999V81.3329C75.0096 82.0456 74.8816 82.7543 74.6167 83.4162C74.3519 84.078 73.9557 84.6794 73.452 85.1839C72.9626 85.6925 72.3732 86.0942 71.7209 86.3637C71.0687 86.6332 70.3676 86.7647 69.662 86.7499H16.343C15.6337 86.7635 14.9295 86.6273 14.2765 86.3502C13.6234 86.0731 13.0361 85.6614 12.553 85.1419C12.0564 84.6409 11.6644 84.0461 11.3998 83.3922C11.1353 82.7383 11.0034 82.0383 11.012 81.3329V30.2999L1.098 13.3719C0.718548 12.7906 0.469893 12.1338 0.369232 11.447C0.268571 10.7601 0.318307 10.0596 0.514998 9.3939C0.691612 8.71623 1.00435 8.08162 1.43415 7.52872C1.86396 6.97582 2.40183 6.51621 3.015 6.1779C3.61681 5.81883 4.28648 5.58831 4.98181 5.50087C5.67713 5.41344 6.38302 5.47099 7.055 5.6699C7.72685 5.84318 8.35699 6.14981 8.90793 6.57156C9.45888 6.99331 9.91936 7.52157 10.262 8.1249L18.176 21.6659H67.824L75.738 8.1249C76.0806 7.52157 76.5411 6.99331 77.0921 6.57156C77.643 6.14981 78.2731 5.84318 78.945 5.6699C79.617 5.47099 80.3229 5.41344 81.0182 5.50087C81.7135 5.58831 82.3832 5.81883 82.985 6.1779C83.5982 6.51621 84.136 6.97582 84.5658 7.52872C84.9956 8.08162 85.3084 8.71623 85.485 9.3939C85.6815 10.0597 85.7311 10.7603 85.6303 11.4471C85.5294 12.1339 85.2806 12.7907 84.901 13.3719ZM58.993 48.9189H57.993C57.3303 47.1356 56.373 45.4762 55.161 44.0099L55.661 43.1639C56.004 42.5641 56.2244 41.9022 56.3095 41.2165C56.3945 40.5308 56.3425 39.8351 56.1564 39.1697C55.9704 38.5043 55.654 37.8825 55.2256 37.3404C54.7972 36.7983 54.2654 36.3467 53.661 36.0119C53.054 35.6659 52.3848 35.4429 51.6916 35.3558C50.9983 35.2686 50.2947 35.3189 49.621 35.5039C48.9493 35.6637 48.3177 35.9604 47.7659 36.3754C47.2141 36.7904 46.7538 37.3149 46.414 37.9159L45.914 38.7619C43.9965 38.3106 42.0005 38.3106 40.083 38.7619L39.583 37.9159C39.2437 37.3142 38.7838 36.7891 38.2321 36.3733C37.6805 35.9576 37.0489 35.6603 36.377 35.4999C35.7033 35.3149 34.9997 35.2646 34.3064 35.3518C33.6132 35.4389 32.944 35.6619 32.337 36.0079C31.7326 36.3428 31.2008 36.7943 30.7724 37.3364C30.344 37.8785 30.0276 38.5003 29.8415 39.1657C29.6555 39.8311 29.6035 40.5268 29.6885 41.2125C29.7736 41.8982 29.994 42.5601 30.337 43.1599L30.92 44.0059C29.6637 45.4557 28.6762 47.1181 28.004 48.9149H27.004C26.3033 48.9053 25.6076 49.035 24.9574 49.2965C24.3072 49.558 23.7154 49.9461 23.2165 50.4382C22.7175 50.9303 22.3213 51.5167 22.0509 52.1632C21.7805 52.8098 21.6413 53.5036 21.6413 54.2044C21.6413 54.9052 21.7805 55.599 22.0509 56.2456C22.3213 56.8921 22.7175 57.4785 23.2165 57.9706C23.7154 58.4628 24.3072 58.8508 24.9574 59.1123C25.6076 59.3738 26.3033 59.5035 27.004 59.4939H28.004C28.6503 61.303 29.6405 62.9699 30.92 64.4029L30.337 65.2489C29.9826 65.8411 29.7552 66.5006 29.6691 67.1854C29.583 67.8702 29.6402 68.5654 29.837 69.2269C30.0136 69.9046 30.3263 70.5392 30.7562 71.0921C31.186 71.645 31.7238 72.1046 32.337 72.4429C32.9388 72.802 33.6085 73.0325 34.3038 73.1199C34.9991 73.2074 35.705 73.1498 36.377 72.9509C37.0485 72.7781 37.6784 72.4721 38.2294 72.051C38.7803 71.63 39.241 71.1025 39.584 70.4999L40.084 69.7379C42.0129 70.0764 43.9861 70.0764 45.915 69.7379L46.415 70.4999C46.7577 71.1031 47.2183 71.6311 47.7692 72.0527C48.3201 72.4743 48.9502 72.7807 49.622 72.9539C50.294 73.1528 50.9999 73.2104 51.6952 73.1229C52.3905 73.0355 53.0602 72.805 53.662 72.4459C54.2752 72.1076 54.813 71.648 55.2428 71.0951C55.6726 70.5422 55.9854 69.9076 56.162 69.2299C56.3588 68.5684 56.416 67.8732 56.3299 67.1884C56.2438 66.5036 56.0164 65.8441 55.662 65.2519L55.162 64.4059C56.3964 62.9565 57.3558 61.2939 57.993 59.4999H58.993C59.6937 59.5095 60.3894 59.3798 61.0396 59.1183C61.6898 58.8568 62.2816 58.4688 62.7805 57.9766C63.2795 57.4845 63.6757 56.8981 63.9461 56.2516C64.2165 55.605 64.3557 54.9112 64.3557 54.2104C64.3557 53.5096 64.2165 52.8158 63.9461 52.1692C63.6757 51.5227 63.2795 50.9363 62.7805 50.4442C62.2816 49.9521 61.6898 49.564 61.0396 49.3025C60.3894 49.041 59.6937 48.9113 58.993 48.9209V48.9189ZM43 59.6669C42.2979 59.6723 41.6024 59.5322 40.9571 59.2554C40.3119 58.9787 39.731 58.5713 39.251 58.0589C38.7494 57.5596 38.3514 56.9661 38.0798 56.3125C37.8083 55.6589 37.6685 54.9582 37.6685 54.2504C37.6685 53.5427 37.8083 52.8419 38.0798 52.1883C38.3514 51.5347 38.7494 50.9412 39.251 50.4419C39.7342 49.9333 40.3159 49.5284 40.9606 49.2517C41.6052 48.9749 42.2994 48.8322 43.001 48.8322C43.7025 48.8322 44.3968 48.9749 45.0414 49.2517C45.6861 49.5284 46.2677 49.9333 46.751 50.4419C47.2526 50.9412 47.6506 51.5347 47.9222 52.1883C48.1937 52.8419 48.3335 53.5427 48.3335 54.2504C48.3335 54.9582 48.1937 55.6589 47.9222 56.3125C47.6506 56.9661 47.2526 57.5596 46.751 58.0589C46.2708 58.5715 45.6895 58.9791 45.0439 59.2558C44.3983 59.5326 43.7024 59.6725 43 59.6669ZM16.343 5.4169C16.3264 4.7042 16.4544 3.99552 16.7193 3.33365C16.9841 2.67177 17.3803 2.07043 17.884 1.5659C18.3734 1.05734 18.9628 0.655648 19.6151 0.386128C20.2673 0.116608 20.9684 -0.0148955 21.674 -9.69605e-05H64.325C65.0343 -0.0136648 65.7385 0.122539 66.3915 0.399619C67.0446 0.6767 67.6319 1.08842 68.115 1.6079C68.6116 2.1089 69.0036 2.70367 69.2682 3.35759C69.5327 4.01152 69.6646 4.71154 69.656 5.4169V16.2499H16.343V5.4169Z" fill="white"/>
</svg>
