<svg width="100" height="99" viewBox="0 0 100 99" fill="none" xmlns="http://www.w3.org/2000/svg">
<mask id="mask0_10_2231" style="mask-type:luminance" maskUnits="userSpaceOnUse" x="0" y="0" width="100" height="99">
<path d="M100 0.356934H0.244995V98.3919H100V0.356934Z" fill="white"/>
</mask>
<g mask="url(#mask0_10_2231)">
<path d="M77.3717 17.5309H75.6337C56.9004 17.5309 38.167 17.5262 19.4337 17.5169C18.8007 17.5169 18.6417 17.7169 18.6677 18.3079C18.7097 19.2779 18.6847 20.2509 18.6677 21.2229C18.6891 21.4105 18.6709 21.6006 18.6142 21.7807C18.5574 21.9608 18.4634 22.127 18.3383 22.2684C18.2131 22.4099 18.0597 22.5235 17.8878 22.6017C17.7159 22.68 17.5295 22.7213 17.3407 22.7229C17.1509 22.7285 16.9623 22.6925 16.7879 22.6175C16.6136 22.5424 16.4578 22.43 16.3315 22.2883C16.2052 22.1466 16.1115 21.9789 16.0569 21.7971C16.0024 21.6153 15.9883 21.4237 16.0157 21.2359C16.0097 17.2359 15.9537 13.2359 16.0497 9.23589C16.0567 7.14937 16.7981 5.13194 18.1439 3.53744C19.4897 1.94295 21.354 0.873223 23.4097 0.515887C24.129 0.397433 24.8579 0.346877 25.5867 0.364887C40.6534 0.356887 55.72 0.356887 70.7867 0.364887C72.0118 0.336991 73.2298 0.5582 74.3669 1.0151C75.504 1.472 76.5365 2.15507 77.4017 3.0229C78.2669 3.89073 78.9468 4.92524 79.4003 6.06369C79.8538 7.20215 80.0713 8.42085 80.0397 9.64589C80.0557 13.4679 80.0527 17.2899 80.0597 21.1119C80.0597 21.2629 80.0747 21.4119 80.0867 21.6279C80.3187 21.6419 80.5307 21.6649 80.7427 21.6659C84.6307 21.6749 88.5197 21.6429 92.4077 21.7139C93.5326 21.699 94.6509 21.8891 95.7077 22.2749C96.8957 22.752 97.9234 23.5574 98.6708 24.5968C99.4182 25.6362 99.8545 26.8668 99.9287 28.1449C99.9955 28.9818 100.014 29.8219 99.9827 30.6609C99.9893 43.2322 99.9967 55.8036 100.005 68.3749C100.095 69.7395 99.7859 71.1009 99.1143 72.2922C98.4427 73.4836 97.4381 74.453 96.2237 75.0819C95.0482 75.6591 93.7459 75.9302 92.4377 75.8699C88.5717 75.8889 84.7047 75.8759 80.8377 75.8759H80.0377C80.0377 76.2479 80.0377 76.5489 80.0377 76.8499C80.0467 81.0919 80.0437 85.3339 80.0677 89.5759C80.0472 91.5944 79.3353 93.545 78.0507 95.1021C76.7661 96.6593 74.9865 97.729 73.0087 98.1329C72.9332 98.1369 72.8575 98.1305 72.7837 98.1139L72.5567 97.5529C72.5957 98.2299 72.1967 98.3429 71.6777 98.3449C71.2137 98.3449 70.7507 98.3779 70.2877 98.3779C55.421 98.3779 40.552 98.3829 25.6807 98.3929C23.3184 98.4996 21.0029 97.7111 19.1967 96.1849C18.2616 95.3705 17.5023 94.3742 16.965 93.2566C16.4277 92.1391 16.1238 90.9238 16.0717 89.6849C16.0407 89.2449 16.0307 88.8019 16.0307 88.3609C16.038 81.7769 16.0487 75.1932 16.0627 68.6099C16.063 68.3454 16.0905 68.0817 16.1447 67.8229C16.1994 67.5277 16.3615 67.2633 16.5997 67.0806C16.838 66.898 17.1354 66.8101 17.4347 66.8339C17.7363 66.8336 18.0278 66.9431 18.2545 67.1421C18.4813 67.341 18.6278 67.6157 18.6667 67.9149C18.7042 68.3328 18.7173 68.7525 18.7057 69.1719C18.7104 72.4639 18.7104 75.7559 18.7057 79.0479C18.7057 79.4829 18.7537 79.7349 19.3057 79.7339C38.1957 79.7232 57.0857 79.7212 75.9757 79.7279C77.3837 79.7279 77.3807 79.7109 77.3757 78.3119C77.3697 77.5409 77.3757 76.7699 77.3757 75.8809H76.5207C68.654 75.8809 60.7874 75.8809 52.9207 75.8809C51.3156 75.9072 49.7518 75.372 48.4994 74.3678C47.247 73.3635 46.3848 71.9533 46.0617 70.3809C45.9308 69.7092 45.8662 69.0262 45.8687 68.3419C45.858 55.2406 45.8554 42.1406 45.8607 29.0419C45.8039 28.0769 45.9494 27.1107 46.2879 26.2052C46.6264 25.2998 47.1505 24.4751 47.8265 23.784C48.5024 23.093 49.3154 22.5509 50.2131 22.1925C51.1109 21.8341 52.0737 21.6673 53.0397 21.7029C56.0397 21.6549 59.0497 21.6949 62.0537 21.6919C66.9584 21.6879 71.863 21.6846 76.7677 21.6819C77.1137 21.6819 77.3807 21.6819 77.3777 21.2239C77.3667 20.0339 77.3777 18.8449 77.3777 17.5299M72.9397 24.4109V24.4279C66.1807 24.4279 59.4207 24.4149 52.6617 24.4379C51.879 24.4067 51.1062 24.6214 50.4517 25.0518C49.7973 25.4823 49.2941 26.1069 49.0127 26.8379C48.6869 27.6539 48.5225 28.5253 48.5287 29.4039C48.4967 42.3712 48.487 55.3379 48.4997 68.3039C48.4997 68.5039 48.4997 68.7039 48.5187 68.9039C48.5421 69.6699 48.7657 70.4163 49.1673 71.069C49.5689 71.7217 50.1345 72.2578 50.8077 72.6239C51.6641 73.0435 52.6164 73.2288 53.5677 73.1609C60.5484 73.1556 67.529 73.1516 74.5097 73.1489C80.5177 73.1489 86.5267 73.1609 92.5357 73.1489C95.4487 73.1489 97.2827 71.3919 97.2837 68.6249C97.2877 55.3922 97.2877 42.1589 97.2837 28.9249C97.3093 28.3229 97.2096 27.7222 96.9909 27.1607C96.7722 26.5993 96.4393 26.0894 96.0132 25.6633C95.5872 25.2373 95.0773 24.9044 94.5158 24.6857C93.9544 24.467 93.3537 24.3673 92.7517 24.3929C86.1517 24.4519 79.5427 24.4119 72.9377 24.4119M48.0617 82.3979V82.3859H22.8847C21.6697 82.3859 20.4557 82.3969 19.2407 82.3859C18.8707 82.3859 18.6727 82.4489 18.6757 82.8859C18.6907 85.1599 18.6427 87.4359 18.6907 89.7089C18.716 91.1619 19.3051 92.5482 20.3337 93.5749C20.9695 94.2527 21.7417 94.7882 22.5993 95.1461C23.457 95.5041 24.3807 95.6765 25.3097 95.6519C37.125 95.6452 48.9404 95.6452 60.7557 95.6519C64.2897 95.6519 67.8227 95.6739 71.3557 95.6379C72.865 95.6352 74.3167 95.0579 75.4156 94.0232C76.5145 92.9886 77.1782 91.5743 77.2717 90.0679C77.3967 87.7329 77.2987 85.3879 77.3467 83.0479C77.3577 82.4999 77.1997 82.3899 76.6827 82.3899C67.142 82.4045 57.6013 82.4082 48.0607 82.4009M48.0197 14.7819V14.7749C57.5857 14.7749 67.1524 14.7789 76.7197 14.7869C77.2487 14.7869 77.4097 14.6449 77.3997 14.1199C77.3697 12.5959 77.4767 11.0639 77.3577 9.54889C77.3173 8.49552 77.0706 7.46031 76.6317 6.50189C76.1085 5.42028 75.2775 4.51728 74.243 3.90619C73.2085 3.29509 72.0165 3.00311 70.8167 3.06689C55.5947 3.08555 40.373 3.08555 25.1517 3.06689C24.6885 3.05472 24.2253 3.08821 23.7687 3.16689C22.356 3.43201 21.0777 4.17559 20.1489 5.27252C19.22 6.36945 18.6973 7.75281 18.6687 9.18989C18.6227 10.7569 18.6687 12.3259 18.6797 13.8899C18.6797 14.7609 18.6867 14.7669 19.5847 14.7669C29.062 14.7669 38.5397 14.7669 48.0177 14.7669" fill="white"/>
<path d="M28.8016 59.7549C27.9206 59.3549 27.1106 59.0289 26.3386 58.6279C26.0834 58.4809 25.7971 58.396 25.503 58.3802C25.2089 58.3644 24.9152 58.418 24.6456 58.5368C24.3761 58.6556 24.1383 58.8362 23.9516 59.064C23.7648 59.2917 23.6343 59.5603 23.5706 59.8479C23.4606 60.3652 23.308 60.8726 23.1146 61.3649C22.9414 61.8598 22.6277 62.2936 22.212 62.6133C21.7963 62.9329 21.2965 63.1246 20.7736 63.1649C19.6539 63.2756 18.5279 63.309 17.4036 63.2649C16.8575 63.2424 16.3284 63.0686 15.8755 62.7627C15.4225 62.4568 15.0635 62.031 14.8386 61.5329C14.6206 61.1249 14.4646 60.6868 14.3756 60.2329C14.3379 59.85 14.1772 59.4897 13.9177 59.2058C13.6581 58.9219 13.3136 58.7297 12.9356 58.6579C12.7147 58.565 12.4743 58.5278 12.2355 58.5496C11.9968 58.5714 11.7671 58.6515 11.5666 58.7829C11.1795 59.0372 10.7752 59.2644 10.3566 59.4629C9.82206 59.7655 9.20417 59.8879 8.5946 59.8117C7.98503 59.7355 7.41625 59.4648 6.97264 59.0399C6.1703 58.3434 5.41841 57.5908 4.72264 56.7879C4.32465 56.3676 4.06612 55.8346 3.98236 55.2619C3.8986 54.6892 3.99369 54.1045 4.25464 53.5879C4.3536 53.2949 4.49548 53.0182 4.67564 52.7669C5.50264 51.8559 5.10264 50.9779 4.62564 50.1199C4.4655 49.8955 4.2377 49.7283 3.97564 49.6429C3.46363 49.4429 2.91763 49.3359 2.40264 49.1429C1.76941 48.9285 1.22037 48.519 0.834297 47.9732C0.448219 47.4274 0.244944 46.7733 0.253635 46.1049C0.237635 45.3049 0.247635 44.5149 0.253635 43.7189C0.225655 43.0283 0.428506 42.3481 0.830154 41.7856C1.2318 41.2232 1.80936 40.8105 2.47164 40.6129C2.92964 40.4549 3.39564 40.3189 3.86364 40.1939C4.03844 40.1451 4.19991 40.0573 4.33588 39.9371C4.47185 39.8169 4.57879 39.6674 4.64863 39.4999C4.87047 39.1124 4.97382 38.6684 4.94592 38.2228C4.91801 37.7772 4.76007 37.3496 4.49164 36.9929C3.32164 34.9929 3.50664 33.9379 5.10564 32.2609C5.59364 31.7489 6.07864 31.2339 6.59764 30.7539C7.05579 30.3156 7.64211 30.0353 8.27091 29.954C8.89972 29.8726 9.53805 29.9945 10.0926 30.3019C10.3566 30.4143 10.6091 30.552 10.8466 30.7129C11.1704 30.9804 11.5727 31.1349 11.9924 31.153C12.412 31.171 12.8261 31.0516 13.1716 30.8129C13.3623 30.7393 13.5307 30.6179 13.6607 30.4602C13.7907 30.3025 13.8778 30.114 13.9136 29.9129C14.0113 29.4153 14.1433 28.9252 14.3086 28.4459C14.4651 27.8513 14.8065 27.3218 15.2836 26.9339C15.7606 26.546 16.3486 26.3198 16.9626 26.2879C18.0606 26.196 19.164 26.1917 20.2626 26.2749C20.8528 26.312 21.4177 26.528 21.8821 26.894C22.3465 27.26 22.6886 27.7587 22.8626 28.3239C22.9985 28.6495 23.0991 28.9888 23.1626 29.3359C23.1848 29.7215 23.3343 30.0888 23.5876 30.3804C23.841 30.6719 24.1839 30.8711 24.5626 30.9469C24.762 31.0295 24.9781 31.0636 25.1932 31.0462C25.4083 31.0288 25.6162 30.9605 25.7996 30.8469C26.2641 30.5491 26.7475 30.2819 27.2466 30.0469C27.7673 29.766 28.3618 29.6522 28.9494 29.7211C29.537 29.79 30.0891 30.0382 30.5306 30.4319C31.331 31.0924 32.0867 31.8053 32.7926 32.5659C33.2218 32.99 33.5005 33.5427 33.5865 34.1399C33.6724 34.7371 33.5608 35.346 33.2686 35.8739C33.0645 36.3387 32.8241 36.7868 32.5496 37.2139C32.4294 37.407 32.3597 37.6273 32.3469 37.8545C32.3341 38.0817 32.3788 38.3085 32.4766 38.5139C32.5789 38.9153 32.8009 39.276 33.1132 39.5482C33.4254 39.8205 33.813 39.9912 34.2246 40.0379C36.5816 40.5799 37.3586 41.6379 37.3636 44.0669C37.3636 44.6189 37.3756 45.1669 37.3636 45.7239C37.3905 46.3365 37.2264 46.9423 36.8939 47.4576C36.5614 47.9728 36.077 48.372 35.5076 48.5999C34.9026 48.8589 34.2596 49.0319 33.6336 49.2409C33.2029 49.4816 32.8712 49.8669 32.6972 50.3286C32.5231 50.7903 32.518 51.2987 32.6826 51.7639C32.9546 52.2429 33.2326 52.7209 33.4706 53.2179C33.7473 53.7287 33.8595 54.3125 33.7921 54.8895C33.7246 55.4665 33.4807 56.0086 33.0936 56.4419C32.3936 57.2955 31.6163 58.0829 30.7716 58.7939C30.1557 59.1888 29.4955 59.51 28.8046 59.7509M30.9936 34.6679C30.9578 34.5678 30.9076 34.4735 30.8446 34.3879C30.1916 33.7299 29.5446 33.0629 28.8586 32.4429C28.7586 32.3937 28.6486 32.3681 28.5371 32.3681C28.4257 32.3681 28.3157 32.3937 28.2156 32.4429C27.4686 32.8199 26.7686 33.2969 26.0046 33.6329C25.61 33.8031 25.1703 33.8382 24.7536 33.7329C23.8251 33.4516 22.9219 33.0926 22.0536 32.6599C21.6638 32.437 21.3555 32.0954 21.1736 31.6849C20.8591 30.9566 20.6127 30.2007 20.4376 29.4269C20.431 29.3459 20.4074 29.2672 20.3686 29.1958C20.3297 29.1244 20.2764 29.0619 20.212 29.0123C20.1477 28.9627 20.0736 28.9271 19.9947 28.9077C19.9158 28.8883 19.8337 28.8857 19.7536 28.8999C19.0036 28.8999 18.2536 28.9099 17.5016 28.8849C17.3153 28.8598 17.1266 28.9085 16.9756 29.0206C16.8247 29.1326 16.7235 29.2993 16.6936 29.4849C16.4816 30.2499 16.2496 31.0089 16.0316 31.7709C15.9678 32.0049 15.8477 32.2198 15.6818 32.3967C15.5158 32.5736 15.3091 32.7072 15.0796 32.7859C14.2226 33.1319 13.3736 33.5029 12.5416 33.9079C12.3503 34.0159 12.1336 34.0711 11.9139 34.0676C11.6942 34.064 11.4794 34.002 11.2916 33.8879C10.5616 33.4779 9.80964 33.1059 9.08264 32.6879C9.01959 32.6354 8.94668 32.5961 8.86821 32.5723C8.78973 32.5485 8.70728 32.5406 8.62572 32.5492C8.54416 32.5578 8.46515 32.5826 8.39334 32.6222C8.32153 32.6619 8.25839 32.7154 8.20763 32.7799C7.68063 33.3449 7.13764 33.8939 6.59064 34.4399C6.46336 34.5465 6.38251 34.6984 6.36515 34.8636C6.3478 35.0287 6.39531 35.1941 6.49763 35.3249C6.85463 35.9339 7.15264 36.5769 7.52363 37.1759C7.72381 37.4657 7.83614 37.8071 7.84714 38.1592C7.85813 38.5113 7.76734 38.8591 7.58564 39.1609C7.25274 39.8091 6.98315 40.4879 6.78063 41.1879C6.71557 41.4683 6.5755 41.7258 6.3754 41.9327C6.1753 42.1397 5.92271 42.2884 5.64464 42.3629C4.92864 42.5839 4.22264 42.8359 3.50064 43.0349C3.05264 43.1579 2.84364 43.3579 2.88064 43.8609C2.92941 44.544 2.92941 45.2297 2.88064 45.9129C2.86147 46.0209 2.86509 46.1318 2.89126 46.2384C2.91743 46.3449 2.96557 46.4449 3.0326 46.5318C3.09962 46.6187 3.18406 46.6906 3.2805 46.743C3.37694 46.7953 3.48326 46.827 3.59264 46.8359C4.29263 47.0159 4.99264 47.2359 5.69264 47.4139C5.96306 47.4635 6.21423 47.5878 6.41779 47.7726C6.62134 47.9574 6.76919 48.1955 6.84464 48.4599C7.14478 49.3113 7.4954 50.1441 7.89464 50.9539C8.00828 51.1548 8.06709 51.382 8.06516 51.6128C8.06323 51.8436 8.00063 52.0699 7.88364 52.2689C7.51264 52.9459 7.17764 53.6439 6.77764 54.3009C6.70772 54.3861 6.65617 54.4848 6.62622 54.5909C6.59627 54.697 6.58856 54.8081 6.60359 54.9173C6.61861 55.0265 6.65604 55.1314 6.71352 55.2255C6.77101 55.3195 6.84731 55.4007 6.93763 55.4639C7.4263 55.9105 7.90197 56.3712 8.36464 56.8459C8.49093 57.0004 8.67342 57.0985 8.87199 57.1185C9.07056 57.1386 9.26898 57.079 9.42364 56.9529C10.1128 56.5182 10.8297 56.129 11.5696 55.7879C11.9505 55.6437 12.3687 55.631 12.7576 55.7519C13.6576 56.0439 14.5126 56.4519 15.3956 56.7959C15.6372 56.8745 15.8557 57.0115 16.0315 57.1949C16.2074 57.3782 16.3352 57.6022 16.4036 57.8469C16.6276 58.6069 16.8356 59.3759 17.1236 60.1119C17.1875 60.2354 17.2788 60.3427 17.3907 60.4254C17.5025 60.5081 17.6318 60.564 17.7686 60.5889C18.5394 60.6451 19.3135 60.6357 20.0826 60.5609C20.23 60.5267 20.3676 60.4595 20.4852 60.3644C20.6028 60.2693 20.6973 60.1488 20.7616 60.0119C21.0456 59.2739 21.2306 58.4989 21.4536 57.7369C21.521 57.481 21.6525 57.2465 21.8357 57.0556C22.0189 56.8647 22.2478 56.7237 22.5006 56.6459C23.3066 56.3529 24.0946 56.0039 24.8696 55.6359C25.093 55.5149 25.3433 55.4527 25.5973 55.455C25.8513 55.4572 26.1005 55.524 26.3216 55.6489C27.0396 56.0359 27.7706 56.4009 28.4726 56.8139C28.5374 56.8647 28.6119 56.9019 28.6915 56.9231C28.771 56.9443 28.8541 56.9492 28.9356 56.9374C29.0171 56.9257 29.0954 56.8975 29.1657 56.8546C29.236 56.8117 29.2969 56.755 29.3446 56.6879C29.8596 56.1419 30.3726 55.5879 30.9176 55.0769C30.9872 55.0242 31.0454 54.9581 31.0889 54.8824C31.1323 54.8067 31.16 54.7231 31.1704 54.6365C31.1807 54.5498 31.1735 54.462 31.1492 54.3782C31.1248 54.2944 31.0838 54.2164 31.0286 54.1489C30.6286 53.4629 30.2766 52.7489 29.8776 52.0649C29.7307 51.8322 29.6479 51.5647 29.6377 51.2897C29.6275 51.0146 29.6903 50.7418 29.8196 50.4989C30.1646 49.7619 30.4646 48.9989 30.7396 48.2349C30.8167 47.9702 30.9578 47.7285 31.1506 47.5314C31.3433 47.3343 31.5817 47.1878 31.8446 47.1049C32.5786 46.8689 33.3056 46.6119 34.0446 46.3949C34.2297 46.3629 34.395 46.2602 34.5055 46.1084C34.616 45.9566 34.663 45.7677 34.6366 45.5819C34.6156 44.8759 34.6026 44.1689 34.6246 43.4629C34.6385 43.3766 34.6347 43.2883 34.6136 43.2035C34.5924 43.1187 34.5544 43.039 34.5017 42.9692C34.4491 42.8995 34.3828 42.8411 34.307 42.7975C34.2313 42.754 34.1474 42.7262 34.0606 42.7159C33.2926 42.5159 32.5346 42.2849 31.7706 42.0699C31.5241 42.0085 31.2969 41.8864 31.1096 41.7147C30.9224 41.543 30.7811 41.3272 30.6986 41.0869C30.3793 40.2662 30.0323 39.4569 29.6576 38.6589C29.5329 38.4253 29.4702 38.1637 29.4754 37.899C29.4807 37.6342 29.5537 37.3753 29.6876 37.1469C30.0516 36.4919 30.3986 35.8269 30.7506 35.1649C30.8326 35.0099 30.9046 34.8509 30.9946 34.6649" fill="white"/>
<path d="M73.018 28.3119C79.0687 28.3119 85.1193 28.3119 91.17 28.3119C91.5005 28.2999 91.8313 28.3162 92.159 28.3609C92.3209 28.3709 92.4792 28.4126 92.625 28.4838C92.7707 28.555 92.901 28.6542 93.0084 28.7758C93.1157 28.8973 93.1981 29.0389 93.2507 29.1923C93.3033 29.3457 93.3252 29.508 93.315 29.6699C93.333 32.9159 93.333 36.1619 93.315 39.4079C93.3265 39.586 93.3009 39.7646 93.2399 39.9324C93.1788 40.1001 93.0837 40.2533 92.9603 40.3824C92.837 40.5114 92.6883 40.6135 92.5235 40.6821C92.3587 40.7507 92.1815 40.7843 92.003 40.7809C91.7615 40.8066 91.5188 40.8189 91.276 40.8179C79.088 40.8179 66.8997 40.8179 54.711 40.8179H54.646C52.818 40.8119 52.491 40.4839 52.493 38.6529C52.493 35.9809 52.4957 33.3089 52.501 30.6369C52.501 28.6659 52.84 28.3099 54.801 28.3089C60.8737 28.3043 66.9463 28.3043 73.019 28.3089M72.936 38.0979V38.1069C78.636 38.1069 84.336 38.1009 90.036 38.1179C90.525 38.1179 90.69 38.0039 90.682 37.4979C90.6547 35.5766 90.6547 33.6549 90.682 31.7329C90.688 31.2099 90.571 31.0199 89.99 31.0219C82.236 31.0439 74.482 31.0359 66.728 31.0379C63.128 31.0379 59.528 31.0509 55.928 31.0379C55.388 31.0379 55.154 31.1159 55.172 31.7519C55.225 33.5619 55.208 35.3739 55.187 37.1849C55.176 38.1779 55.087 38.0999 56.111 38.1009C61.7223 38.1009 67.3337 38.1009 72.945 38.1009" fill="white"/>
<path d="M60.494 56.1239C58.44 56.1239 56.386 56.1239 54.332 56.1239C52.918 56.1239 52.507 55.7109 52.505 54.3119C52.501 51.3973 52.501 48.4823 52.505 45.5669C52.505 44.1149 52.938 43.6869 54.418 43.6839C58.548 43.6766 62.6777 43.6739 66.807 43.6759C67.926 43.6759 68.453 44.1689 68.457 45.2759C68.4717 48.3426 68.4717 51.4123 68.457 54.4849C68.451 55.6529 67.957 56.1199 66.787 56.1239C64.687 56.1289 62.588 56.1239 60.494 56.1239ZM55.232 46.4239C55.203 46.5061 55.1819 46.5908 55.169 46.6769C55.169 48.7769 55.169 50.8699 55.153 52.9669C55.153 53.3829 55.353 53.4419 55.68 53.4419C58.88 53.4419 62.08 53.4453 65.28 53.4519C65.626 53.4519 65.752 53.3519 65.751 53.0069C65.74 50.9319 65.751 48.8569 65.725 46.7819C65.6973 46.688 65.646 46.6028 65.576 46.5343C65.5059 46.4659 65.4195 46.4165 65.325 46.3909C62.169 46.3699 59.013 46.3749 55.856 46.3789C55.643 46.3789 55.429 46.4089 55.23 46.4239" fill="white"/>
<path d="M85.3317 56.1279C83.2557 56.1279 81.1787 56.1279 79.1017 56.1279C77.8017 56.1279 77.3847 55.7219 77.3827 54.4369C77.3773 51.3882 77.3793 48.3396 77.3887 45.2909C77.3887 44.1679 77.8217 43.6989 78.9477 43.6909C83.255 43.6689 87.5623 43.6642 91.8697 43.6769C92.0647 43.6564 92.2618 43.6797 92.4467 43.745C92.6316 43.8103 92.7996 43.916 92.9385 44.0544C93.0774 44.1928 93.1836 44.3604 93.2496 44.5451C93.3155 44.7298 93.3395 44.9268 93.3197 45.1219C93.3357 48.3026 93.3357 51.4836 93.3197 54.6649C93.3432 54.8656 93.3202 55.069 93.2524 55.2594C93.1847 55.4498 93.0739 55.622 92.9289 55.7627C92.7838 55.9034 92.6083 56.0088 92.416 56.0708C92.2236 56.1327 92.0196 56.1495 91.8197 56.1199C89.6547 56.1319 87.4897 56.1199 85.3257 56.1199L85.3317 56.1279ZM80.0777 53.3689C80.1904 53.4018 80.3059 53.4245 80.4227 53.4369C83.6877 53.4429 86.9527 53.4369 90.2227 53.4559C90.5907 53.4559 90.6717 53.3049 90.6707 52.9829C90.6613 50.9316 90.659 48.8799 90.6637 46.8279C90.6637 46.4949 90.5727 46.3689 90.2097 46.3709C87.0327 46.3869 83.8567 46.3809 80.6807 46.3849C80.4897 46.3849 80.2987 46.4189 80.0807 46.4389L80.0777 53.3689Z" fill="white"/>
<path d="M85.4253 59.256C87.3433 59.256 89.2623 59.256 91.1803 59.256C91.5549 59.2515 91.9289 59.2833 92.2973 59.351C92.5834 59.4087 92.8406 59.5637 93.0254 59.7895C93.2102 60.0154 93.3112 60.2982 93.3112 60.59C93.3112 60.8818 93.2102 61.1646 93.0254 61.3905C92.8406 61.6163 92.5834 61.7712 92.2973 61.829C91.9521 61.8988 91.6005 61.9323 91.2483 61.929C87.301 61.9357 83.3537 61.9357 79.4063 61.929C79.0761 61.9296 78.7467 61.8961 78.4233 61.829C78.1264 61.7778 77.8588 61.619 77.6717 61.3828C77.4846 61.1466 77.3912 60.8497 77.4093 60.549C77.4024 60.2588 77.5016 59.9762 77.6883 59.7539C77.875 59.5317 78.1364 59.3852 78.4233 59.342C78.8801 59.2678 79.3426 59.2343 79.8053 59.242C81.6793 59.232 83.5543 59.242 85.4283 59.242L85.4253 59.256Z" fill="white"/>
<path d="M60.4804 59.2579C62.4214 59.2579 64.3634 59.2579 66.3044 59.2579C66.6792 59.2522 67.0537 59.2837 67.4224 59.3519C67.7083 59.3989 67.967 59.5494 68.1491 59.7747C68.3313 60 68.4243 60.2845 68.4104 60.5739C68.4274 60.8637 68.3388 61.1498 68.161 61.3793C67.9832 61.6088 67.7283 61.766 67.4434 61.8219C67.0989 61.8977 66.747 61.9342 66.3944 61.9309C62.4231 61.9389 58.4521 61.9389 54.4814 61.9309C54.1067 61.936 53.733 61.8906 53.3704 61.7959C53.1094 61.7271 52.8803 61.5699 52.7224 61.351C52.5644 61.1322 52.4874 60.8653 52.5044 60.5959C52.4729 60.3277 52.542 60.0574 52.6983 59.8373C52.8545 59.6171 53.0869 59.4627 53.3504 59.4039C53.8226 59.302 54.3043 59.2507 54.7874 59.2509C56.6874 59.2339 58.5824 59.2439 60.4794 59.2439L60.4804 59.2579Z" fill="white"/>
<path d="M83.2326 65.107C84.7126 65.107 86.1936 65.077 87.6716 65.118C87.8827 65.1001 88.0949 65.1365 88.288 65.2239C88.4811 65.3113 88.6485 65.4466 88.7745 65.6171C88.9004 65.7875 88.9806 65.9874 89.0074 66.1976C89.0342 66.4078 89.0067 66.6214 88.9276 66.818C88.7469 67.1793 88.446 67.4664 88.0766 67.63C87.6993 67.7548 87.3004 67.801 86.9046 67.766C84.4306 67.776 81.9566 67.776 79.4826 67.766C79.1958 67.7693 78.9092 67.7496 78.6256 67.707C78.4543 67.6985 78.2865 67.6559 78.132 67.5816C77.9774 67.5074 77.8393 67.403 77.7256 67.2747C77.612 67.1463 77.5251 66.9965 77.4701 66.8341C77.4152 66.6717 77.3932 66.5 77.4056 66.329C77.4122 66.1624 77.4518 65.9988 77.5219 65.8476C77.5921 65.6964 77.6915 65.5605 77.8144 65.4479C77.9372 65.3352 78.0812 65.248 78.2379 65.1912C78.3946 65.1344 78.561 65.1092 78.7276 65.117C80.0736 65.077 81.4216 65.092 82.7686 65.085H83.2326V65.101" fill="white"/>
<path d="M58.321 65.0999C59.756 65.0999 61.191 65.0999 62.621 65.0999C62.8755 65.0742 63.1322 65.1203 63.3619 65.2328C63.5917 65.3454 63.7853 65.52 63.921 65.7369C64.0396 65.905 64.1143 66.1001 64.1383 66.3044C64.1623 66.5087 64.1347 66.7158 64.0582 66.9067C63.9816 67.0977 63.8585 67.2664 63.7001 67.3976C63.5416 67.5288 63.3529 67.6183 63.151 67.6579C62.7849 67.7381 62.4107 67.7754 62.036 67.7689C59.564 67.7782 57.092 67.7782 54.62 67.7689C54.2676 67.7698 53.9159 67.7363 53.57 67.6689C53.2628 67.6153 52.9856 67.4519 52.79 67.209C52.5945 66.9661 52.4939 66.6605 52.507 66.3489C52.5123 66.0347 52.6372 65.7342 52.8562 65.5089C53.0753 65.2835 53.372 65.1501 53.686 65.1359C54.942 65.0809 56.201 65.0989 57.459 65.0869C57.746 65.0869 58.033 65.0869 58.32 65.0869V65.0949" fill="white"/>
<path d="M52.4686 89.0711C52.4744 89.6587 52.363 90.2416 52.1408 90.7857C51.9187 91.3298 51.5903 91.8242 51.1749 92.2399C50.7594 92.6556 50.2653 92.9842 49.7213 93.2067C49.1773 93.4292 48.5945 93.5409 48.0068 93.5355C47.4192 93.53 46.8385 93.4075 46.2987 93.1749C45.759 92.9424 45.271 92.6046 44.8633 92.1813C44.4557 91.758 44.1365 91.2576 43.9245 90.7095C43.7125 90.1614 43.6119 89.5765 43.6286 88.9891C43.6395 87.8168 44.1156 86.6969 44.9522 85.8756C45.7888 85.0544 46.9174 84.5992 48.0896 84.6101C49.2619 84.6209 50.3818 85.097 51.203 85.9336C52.0242 86.7702 52.4795 87.8988 52.4686 89.0711ZM47.9686 90.7331C48.1992 90.7486 48.4305 90.7158 48.6477 90.6368C48.8649 90.5579 49.0633 90.4344 49.2301 90.2744C49.3968 90.1144 49.5284 89.9214 49.6163 89.7076C49.7042 89.4939 49.7466 89.2641 49.7406 89.0331C49.7372 88.5662 49.5487 88.1197 49.2165 87.7916C48.8843 87.4636 48.4355 87.2807 47.9686 87.2831C47.7427 87.2851 47.5194 87.3318 47.3115 87.4204C47.1036 87.5091 46.9153 87.6379 46.7574 87.7994C46.5994 87.961 46.4749 88.1522 46.3911 88.362C46.3072 88.5718 46.2656 88.7961 46.2686 89.0221C46.2628 89.2474 46.3026 89.4715 46.3859 89.681C46.4691 89.8904 46.5939 90.0808 46.7529 90.2407C46.9118 90.4005 47.1014 90.5265 47.3104 90.6109C47.5194 90.6954 47.7433 90.7376 47.9686 90.7331Z" fill="white"/>
<path d="M47.972 10.2499C46.006 10.2499 44.041 10.2559 42.072 10.2499C41.6978 10.2591 41.324 10.2198 40.96 10.1329C40.669 10.0497 40.4165 9.86702 40.2465 9.61669C40.0764 9.36637 39.9996 9.06429 40.0295 8.76315C40.0594 8.46201 40.194 8.18091 40.4099 7.96887C40.6259 7.75684 40.9093 7.62732 41.211 7.60291C41.4966 7.57188 41.7837 7.55686 42.071 7.55791C46.091 7.55791 50.111 7.55791 54.131 7.55791C55.342 7.55791 55.985 8.01691 56.008 8.85791C56.03 9.72691 55.342 10.2449 54.13 10.2489C52.077 10.2539 50.022 10.2489 47.969 10.2489" fill="white"/>
<path d="M18.7546 36.0778C21.0761 36.0574 23.3128 36.9492 24.9833 38.5613C26.6538 40.1735 27.6246 42.3771 27.6866 44.6978C27.7288 45.8778 27.5368 47.0544 27.1217 48.1597C26.7066 49.2651 26.0765 50.2772 25.268 51.1376C24.4594 51.998 23.4884 52.6897 22.411 53.1726C21.3336 53.6556 20.1711 53.9203 18.9908 53.9514C17.8105 53.9825 16.6358 53.7794 15.5344 53.3539C14.4331 52.9284 13.4269 52.2888 12.5742 51.4722C11.7214 50.6556 11.0389 49.6781 10.5661 48.5962C10.0933 47.5143 9.8396 46.3494 9.81961 45.1688C9.787 43.9793 9.99466 42.7954 10.4302 41.688C10.8657 40.5805 11.52 39.5723 12.3542 38.7236C13.1883 37.8749 14.1851 37.2031 15.2848 36.7486C16.3845 36.294 17.5647 36.0658 18.7546 36.0778ZM18.7826 38.7578C17.9585 38.748 17.1407 38.9024 16.3768 39.2119C15.613 39.5214 14.9184 39.9799 14.3336 40.5606C13.7487 41.1413 13.2854 41.8327 12.9705 42.5943C12.6556 43.356 12.4956 44.1727 12.4996 44.9968C12.5296 46.6593 13.2134 48.2431 14.4029 49.4049C15.5924 50.5667 17.1919 51.2131 18.8546 51.2038C20.505 51.1943 22.0841 50.5295 23.2444 49.3557C24.4047 48.1819 25.0512 46.5953 25.0416 44.9448C25.0321 43.2944 24.3673 41.7154 23.1935 40.5551C22.0197 39.3948 20.433 38.7483 18.7826 38.7578Z" fill="white"/>
<path d="M47.97 90.7339C47.7446 90.7385 47.5207 90.6973 47.3118 90.6128C47.1028 90.5284 46.9131 90.4024 46.7542 90.2426C46.5953 90.0827 46.4705 89.8923 46.3872 89.6829C46.304 89.4734 46.2641 89.2492 46.27 89.0239C46.2669 88.798 46.3085 88.5737 46.3924 88.3639C46.4763 88.1541 46.6008 87.9629 46.7587 87.8013C46.9167 87.6397 47.105 87.5109 47.3129 87.4223C47.5207 87.3337 47.744 87.287 47.97 87.2849C48.4369 87.2825 48.8856 87.4654 49.2178 87.7935C49.55 88.1216 49.7385 88.5681 49.742 89.0349C49.7479 89.266 49.7056 89.4957 49.6177 89.7095C49.5298 89.9232 49.3982 90.1163 49.2314 90.2763C49.0646 90.4363 48.8663 90.5597 48.6491 90.6387C48.4319 90.7177 48.2006 90.7505 47.97 90.7349" fill="white"/>
</g>
</svg>
