<svg width="98" height="80" viewBox="0 0 98 80" fill="none" xmlns="http://www.w3.org/2000/svg">
<path fill-rule="evenodd" clip-rule="evenodd" d="M57.8883 17.7781C56.7097 17.7781 55.5794 18.2463 54.746 19.0797C53.9125 19.9131 53.4443 21.0435 53.4443 22.2221V57.7781C53.4443 58.9567 53.9125 60.087 54.746 60.9205C55.5794 61.7539 56.7097 62.2221 57.8883 62.2221H75.6663C76.25 62.2222 76.828 62.1074 77.3673 61.8841C77.9066 61.6608 78.3966 61.3335 78.8094 60.9208C79.2221 60.5081 79.5496 60.0182 79.773 59.479C79.9964 58.9397 80.1113 58.3618 80.1113 57.7781V22.2221C80.1113 21.6384 79.9964 21.0604 79.773 20.5212C79.5496 19.982 79.2221 19.492 78.8094 19.0793C78.3966 18.6667 77.9066 18.3393 77.3673 18.1161C76.828 17.8928 76.25 17.7779 75.6663 17.7781H57.8883ZM71.2213 26.6671H62.3323V53.3341H71.2213V26.6671Z" fill="white"/>
<path d="M22.3333 17.7781C21.1546 17.7781 20.0241 18.2463 19.1906 19.0798C18.3571 19.9133 17.8888 21.0438 17.8888 22.2226C17.8888 23.4013 18.3571 24.5318 19.1906 25.3653C20.0241 26.1988 21.1546 26.6671 22.3333 26.6671H40.1113C41.2901 26.6671 42.4206 26.1988 43.2541 25.3653C44.0876 24.5318 44.5558 23.4013 44.5558 22.2226C44.5558 21.0438 44.0876 19.9133 43.2541 19.0798C42.4206 18.2463 41.2901 17.7781 40.1113 17.7781H22.3333Z" fill="white"/>
<path d="M22.3333 35.5559C21.1546 35.5559 20.0241 36.0242 19.1906 36.8577C18.3571 37.6912 17.8888 38.8217 17.8888 40.0004C17.8888 41.1792 18.3571 42.3096 19.1906 43.1431C20.0241 43.9766 21.1546 44.4449 22.3333 44.4449H40.1113C41.2901 44.4449 42.4206 43.9766 43.2541 43.1431C44.0876 42.3096 44.5558 41.1792 44.5558 40.0004C44.5558 38.8217 44.0876 37.6912 43.2541 36.8577C42.4206 36.0242 41.2901 35.5559 40.1113 35.5559H22.3333Z" fill="white"/>
<path d="M17.8896 57.777C17.8896 56.5984 18.3579 55.468 19.1913 54.6346C20.0247 53.8012 21.155 53.333 22.3336 53.333H40.1116C41.2904 53.333 42.4209 53.8013 43.2544 54.6348C44.0879 55.4683 44.5561 56.5988 44.5561 57.7775C44.5561 58.9563 44.0879 60.0867 43.2544 60.9202C42.4209 61.7537 41.2904 62.222 40.1116 62.222H22.3336C21.75 62.222 21.172 62.107 20.6328 61.8836C20.0935 61.6602 19.6036 61.3328 19.1909 60.92C18.7782 60.5073 18.4509 60.0172 18.2276 59.478C18.0044 58.9387 17.8895 58.3607 17.8896 57.777Z" fill="white"/>
<path fill-rule="evenodd" clip-rule="evenodd" d="M13.4443 0C9.9082 0 6.5169 1.40472 4.01647 3.90515C1.51605 6.40557 0.111328 9.79687 0.111328 13.333V66.667C0.111328 70.2031 1.51605 73.5944 4.01647 76.0949C6.5169 78.5953 9.9082 80 13.4443 80H84.5553C88.0915 80 91.4828 78.5953 93.9832 76.0949C96.4836 73.5944 97.8883 70.2031 97.8883 66.667V13.333C97.8883 9.79687 96.4836 6.40557 93.9832 3.90515C91.4828 1.40472 88.0915 0 84.5553 0H13.4443ZM84.5553 8.889H13.4443C12.2657 8.889 11.1354 9.3572 10.3019 10.1906C9.46853 11.024 9.00033 12.1544 9.00033 13.333V66.667C9.00033 67.8456 9.46853 68.976 10.3019 69.8094C11.1354 70.6428 12.2657 71.111 13.4443 71.111H84.5553C85.7339 71.111 86.8643 70.6428 87.6977 69.8094C88.5311 68.976 88.9993 67.8456 88.9993 66.667V13.333C88.9993 12.1544 88.5311 11.024 87.6977 10.1906C86.8643 9.3572 85.7339 8.889 84.5553 8.889Z" fill="white"/>
</svg>
