<svg width="74" height="107" viewBox="0 0 74 107" fill="none" xmlns="http://www.w3.org/2000/svg">
<mask id="mask0_10_2123" style="mask-type:luminance" maskUnits="userSpaceOnUse" x="0" y="0" width="74" height="107">
<path d="M73.174 0.545898H0.824997V106.696H73.174V0.545898Z" fill="white"/>
</mask>
<g mask="url(#mask0_10_2123)">
<path d="M0.824997 53.6619C1.05223 52.9464 1.34515 52.2535 1.7 51.5919C12.6793 35.0859 23.6737 18.5903 34.683 2.10493C36.078 0.0159309 38.112 0.0269309 39.525 2.13693C50.509 18.5923 61.4857 35.0526 72.455 51.5179C72.9283 52.1492 73.1825 52.9179 73.1787 53.707C73.1749 54.496 72.9134 55.2622 72.434 55.8889C61.5253 72.2389 50.6223 88.5913 39.725 104.946C38.182 107.259 36.025 107.286 34.498 104.999C23.5607 88.6183 12.639 72.2286 1.733 55.8299C1.36265 55.1375 1.05863 54.4116 0.824997 53.6619ZM7.625 51.9569C7.868 52.0949 7.976 52.1679 8.094 52.2219C17.508 56.4886 26.9273 60.7406 36.352 64.9779C36.9483 65.1708 37.5948 65.1374 38.168 64.8839C42.968 62.8509 47.739 60.7539 52.519 58.6769C57.178 56.6529 61.837 54.6319 66.599 52.5659L37.087 8.58993L7.625 51.9569ZM11.982 60.6399L11.818 60.8799L37.091 98.7879L62.547 60.6029C61.947 60.8149 61.672 60.8919 61.412 61.0099C53.631 64.5539 45.858 68.1099 38.061 71.6209C37.4845 71.8707 36.8351 71.8943 36.242 71.6869C31.205 69.4459 26.203 67.1229 21.189 64.8299C18.1223 63.4299 15.052 62.0333 11.978 60.6399" fill="white"/>
</g>
</svg>
