<svg width="104" height="109" viewBox="0 0 104 109" fill="none" xmlns="http://www.w3.org/2000/svg">
<mask id="mask0_10_2101" style="mask-type:luminance" maskUnits="userSpaceOnUse" x="0" y="0" width="104" height="109">
<path d="M103.597 0.946777H0V108.347H103.597V0.946777Z" fill="white"/>
</mask>
<g mask="url(#mask0_10_2101)">
<path d="M1.271 108.351C0.82738 108.048 0.474677 107.63 0.250754 107.141C0.0268309 106.653 -0.0598564 106.113 -1.69687e-06 105.579C0.026665 79.9215 0.0333316 54.2638 0.0199983 28.6058V27.3888H55.164C57.223 27.3888 57.885 28.0348 57.885 30.0578C57.885 55.2611 57.891 80.4645 57.903 105.668C57.9403 106.184 57.8445 106.702 57.6248 107.171C57.4051 107.64 57.0688 108.045 56.648 108.347L1.271 108.351ZM28.051 73.6168C31.8557 73.6168 35.5749 72.4888 38.7386 70.3755C41.9024 68.2621 44.3686 65.2583 45.8254 61.7436C47.2823 58.229 47.6645 54.3613 46.9237 50.6294C46.1829 46.8976 44.3524 43.4691 41.6635 40.7774C38.9746 38.0857 35.548 36.2516 31.817 35.5069C28.0859 34.7623 24.2178 35.1405 20.7016 36.5937C17.1855 38.0469 14.179 40.51 12.0624 43.6715C9.94578 46.8331 8.81395 50.5511 8.81 54.3558C8.8042 56.8848 9.29778 59.3902 10.2624 61.728C11.2271 64.0659 12.6438 66.1904 14.4313 67.9795C16.2188 69.7686 18.342 71.1872 20.679 72.1539C23.016 73.1206 25.5209 73.6164 28.05 73.6128M43.391 89.1568H12.7V92.8228H43.392L43.391 89.1568ZM16.591 100.542H39.551V96.8768H16.587L16.591 100.542ZM22.197 81.4758H18.539V85.1568H22.194L22.197 81.4758ZM26.236 85.1328H29.936V81.4668H26.236V85.1328ZM37.588 85.2118V81.4728H33.848C33.848 82.5818 33.819 83.6168 33.874 84.6478C33.9109 84.7761 33.98 84.8929 34.0746 84.987C34.1693 85.0812 34.2865 85.1496 34.415 85.1858C35.446 85.2408 36.481 85.2118 37.588 85.2118Z" fill="white"/>
<path d="M76.636 90.1348L68.313 87.1858C66.342 86.4858 64.363 85.8088 62.405 85.0768C62.119 84.9698 61.723 84.6128 61.721 84.3688C61.681 79.4788 61.691 74.5888 61.691 69.7178C62.1624 69.4438 62.7206 69.3601 63.2517 69.4839C63.7827 69.6077 64.2464 69.9296 64.548 70.3838C65.764 71.8228 67.135 73.1308 68.457 74.4838C69.971 76.0278 71.457 75.6978 72.185 73.6688C72.702 72.2248 73.17 70.7628 73.731 69.3368C73.9399 68.9312 74.0376 68.4774 74.0141 68.0217C73.9906 67.566 73.8466 67.1247 73.597 66.7428C71.766 64.2428 71.907 61.7118 73.233 59.0548C73.7209 57.9234 74.1442 56.7652 74.501 55.5858C76.085 56.9708 77.647 58.1958 79.041 59.5858C81.175 61.7168 82.909 61.4948 83.726 58.4048C84.0564 57.2665 84.4523 56.1483 84.912 55.0558C85.1277 54.5604 85.2114 54.0176 85.1548 53.4802C85.0981 52.9429 84.9032 52.4294 84.589 51.9898C82.83 49.2608 81.16 46.4748 79.417 43.7348C79.2453 43.5012 79.1387 43.2262 79.1081 42.9378C79.0775 42.6495 79.1241 42.3582 79.243 42.0938C79.876 40.4338 80.413 38.7368 81.025 37.0678C81.1866 36.6631 81.2575 36.228 81.2328 35.7929C81.2081 35.3579 81.0883 34.9336 80.882 34.5498C80.204 33.2128 79.593 31.8418 78.924 30.4998C78.8339 30.2036 78.6755 29.9327 78.4617 29.7088C78.2478 29.4849 77.9845 29.3142 77.6927 29.2106C77.401 29.1069 77.089 29.0731 76.7818 29.1119C76.4746 29.1506 76.1808 29.2609 75.924 29.4338C74.496 30.0848 73.043 30.7018 71.689 31.4868C71.0502 31.8762 70.5448 32.4506 70.24 33.1338C69.522 34.8338 69.013 36.6168 68.335 38.3338C68.1349 38.7843 67.7741 39.1441 67.323 39.3428C65.513 40.0428 63.665 40.6488 61.69 41.3428C61.69 39.4478 61.704 37.7118 61.69 35.9748C61.665 33.4958 61.676 31.0148 61.554 28.5398C61.501 27.8215 61.2902 27.1237 60.9367 26.4961C60.5833 25.8685 60.0958 25.3265 59.509 24.9088C59.3114 24.8088 59.161 24.6351 59.0903 24.4252C59.0195 24.2153 59.0342 23.986 59.131 23.7868C61.793 16.3368 64.4347 8.87948 67.056 1.41481C67.102 1.28581 67.172 1.16681 67.273 0.955811L103.601 13.7898L76.636 90.1348ZM85.251 23.6348L88.521 24.7878L89.767 21.1878L86.512 20.0588L85.251 23.6348ZM66.701 13.0508L65.429 16.6508L68.689 17.7838L69.945 14.2198L66.701 13.0498M91.863 25.9798L95.125 27.1058L96.387 23.5278L93.128 22.3948L91.863 25.9798ZM75.3 20.1258L76.557 16.5328L73.303 15.3818L72.042 18.9668L75.3 20.1248M78.638 21.3038L81.907 22.4458L83.164 18.8628L79.92 17.7128L78.636 21.3078" fill="white"/>
<path d="M47.372 23.5398H13.587L13.544 23.4008C15.034 22.9948 16.52 22.5778 18.013 22.1848C26.7037 19.8955 35.395 17.6085 44.087 15.3238C46.371 14.7238 47.368 15.4928 47.372 17.8828C47.372 19.7288 47.372 21.5748 47.372 23.5398Z" fill="white"/>
<path d="M69.5095 69.6746C68.4417 68.8048 67.4303 67.8679 66.4815 66.8696C66.0428 66.3029 65.4459 65.8789 64.7664 65.6513C64.0868 65.4236 63.355 65.4025 62.6635 65.5906C62.3935 65.6456 62.1175 65.6756 61.6905 65.7406C61.6582 65.004 61.6679 64.2661 61.7195 63.5306C61.761 63.3773 61.8365 63.2354 61.9404 63.1153C62.0443 62.9951 62.1738 62.8999 62.3195 62.8366C62.917 62.601 63.4492 62.2253 63.8714 61.7412C64.2936 61.2571 64.5933 60.6787 64.7454 60.0546C67.4634 52.2266 70.3125 44.4426 72.9675 36.5936C73.1716 35.8571 73.5775 35.1922 74.1394 34.6741C74.7013 34.1561 75.3968 33.8054 76.1475 33.6616C76.5929 34.2149 76.8888 34.8732 77.0068 35.5736C77.1248 36.274 77.061 36.993 76.8215 37.6616C73.8875 45.6336 71.1364 53.6736 68.2804 61.6756C68.0636 62.1682 67.9632 62.7041 67.9871 63.2417C68.0111 63.7794 68.1587 64.3043 68.4184 64.7756C68.8264 65.5036 69.0795 66.3236 69.5265 67.0236C69.8042 67.4112 69.952 67.8769 69.9485 68.3537C69.9451 68.8305 69.7907 69.294 69.5075 69.6776" fill="white"/>
<path d="M80.699 55.9059C79.054 54.4689 77.634 53.2499 76.251 51.9909C76.1606 51.8808 76.0967 51.7514 76.0643 51.6127C76.0319 51.4739 76.0317 51.3296 76.064 51.1909C76.425 50.0439 76.854 48.9169 77.33 47.5839C78.654 49.7059 79.951 51.6329 81.051 53.6669C81.301 54.1289 80.868 54.9589 80.699 55.9059Z" fill="white"/>
<path d="M66.4384 43.7456C65.9484 45.1366 65.5574 46.3086 65.1094 47.4586C65.0467 47.5699 64.9591 47.6652 64.8534 47.737C64.7478 47.8089 64.6269 47.8553 64.5003 47.8726C63.6063 47.9196 62.7094 47.8926 61.8314 47.8926C61.7794 47.8016 61.7214 47.7456 61.7174 47.6866C61.5914 45.4186 61.5914 45.4166 63.7174 44.6716C64.5344 44.3866 65.3554 44.1126 66.4334 43.7456" fill="white"/>
<path d="M61.7393 56.5978V51.8208H63.5872L61.8923 56.6388L61.7393 56.5978Z" fill="white"/>
<path d="M23.6494 58.7968V50.0068H32.4174C32.4784 51.4958 32.5714 52.9068 32.5844 54.3208C32.5954 55.5408 32.5564 56.7658 32.4464 57.9798C32.4204 58.2688 32.0234 58.7548 31.7894 58.7588C29.1464 58.8148 26.5024 58.7938 23.6494 58.7938" fill="white"/>
<path d="M36.3574 58.2547V50.5137C38.5764 50.9957 40.7574 51.4627 42.9384 51.9577C43.0894 51.9917 43.2444 52.2167 43.3044 52.3867C43.3701 52.6214 43.4038 52.8639 43.4044 53.1077C43.6434 56.6367 43.6434 56.6407 40.2254 57.4137C38.9744 57.6967 37.7184 57.9597 36.3614 58.2537" fill="white"/>
<path d="M31.918 62.7098C31.455 64.8748 31.034 66.9528 30.543 69.0148C30.4804 69.176 30.3795 69.3195 30.249 69.4329C30.1185 69.5463 29.9623 69.6262 29.794 69.6658C28.6468 69.7369 27.4962 69.7369 26.349 69.6658C26.1833 69.6298 26.0289 69.554 25.8991 69.4449C25.7693 69.3358 25.668 69.1968 25.604 69.0398C25.092 66.9508 24.648 64.8398 24.174 62.7058L31.918 62.7098Z" fill="white"/>
<path d="M31.9194 46.0559H24.1924L25.6714 39.1309C27.1264 39.1309 28.5714 39.1129 30.0174 39.1539C30.1974 39.1589 30.4784 39.4539 30.5254 39.6609C31.0054 41.7609 31.4474 43.8609 31.9184 46.0549" fill="white"/>
<path d="M12.79 51.9988L19.732 50.5198V58.2558C17.515 57.7728 15.378 57.3228 13.253 56.8188C13.1307 56.751 13.0266 56.6547 12.9494 56.538C12.8723 56.4214 12.8245 56.2879 12.81 56.1488C12.768 54.7998 12.79 53.4478 12.79 51.9988Z" fill="white"/>
<path d="M14.285 47.7318C15.193 45.0478 18.47 41.7498 21.396 40.5848C21.026 42.5418 20.675 44.4368 20.296 46.3268C20.265 46.4034 20.2166 46.4717 20.1546 46.5264C20.0927 46.5811 20.0189 46.6206 19.939 46.6418C18.071 47.0148 16.2 47.3658 14.283 47.7318" fill="white"/>
<path d="M34.6865 68.2817C35.0545 66.3127 35.3755 64.5067 35.7495 62.7117C35.79 62.5716 35.8623 62.4427 35.9608 62.3351C36.0594 62.2276 36.1815 62.1443 36.3175 62.0917C38.1425 61.7077 39.9785 61.3817 41.9465 61.0117C40.4279 64.1932 37.8659 66.7588 34.6865 68.2817Z" fill="white"/>
<path d="M21.4293 68.2929C18.2535 66.761 15.6898 64.1994 14.1553 61.0249C16.1843 61.4059 18.0363 61.7429 19.8813 62.1179C19.9872 62.1574 20.0826 62.2209 20.1598 62.3035C20.2371 62.3861 20.294 62.4855 20.3263 62.5939C20.7023 64.4269 21.0433 66.2669 21.4263 68.2939" fill="white"/>
<path d="M34.6826 40.4819C37.8534 42.018 40.4144 44.5772 41.9526 47.7469C39.9106 47.3589 38.0256 47.0169 36.1526 46.6209C35.9706 46.5829 35.7756 46.2319 35.7286 45.9969C35.3736 44.2339 35.0546 42.4639 34.6846 40.4819" fill="white"/>
</g>
</svg>
