<svg width="93" height="119" viewBox="0 0 93 119" fill="none" xmlns="http://www.w3.org/2000/svg">
<mask id="mask0_10_2091" style="mask-type:luminance" maskUnits="userSpaceOnUse" x="0" y="0" width="93" height="119">
<path d="M93 0.440918H0V118.799H93V0.440918Z" fill="white"/>
</mask>
<g mask="url(#mask0_10_2091)">
<path d="M34.9535 0.440918C39.9605 2.05292 44.9635 3.67692 49.9755 5.27592C62.1021 9.14258 74.2298 13.0076 86.3585 16.8709C91.7495 18.5999 94.1714 23.3409 92.4585 28.7119C85.4738 50.5939 78.4878 72.4749 71.5005 94.3549C71.3038 94.9751 71.201 95.6213 71.1954 96.2719C71.1684 100.663 71.2064 105.054 71.1734 109.445C71.1364 114.29 68.3165 117.781 63.7575 118.675C63.1872 118.77 62.6092 118.809 62.0315 118.793C44.4314 118.799 26.8315 118.799 9.23145 118.793C8.01353 118.833 6.80033 118.623 5.6665 118.177C4.53267 117.73 3.50221 117.056 2.63854 116.197C1.77486 115.337 1.09625 114.31 0.644449 113.178C0.192652 112.046 -0.0227658 110.834 0.0114531 109.616C-0.00121354 81.8439 -0.00121354 54.0716 0.0114531 26.2989C-0.0124265 25.0896 0.207935 23.888 0.659347 22.7658C1.11076 21.6437 1.78394 20.6242 2.63859 19.7683C3.49325 18.9125 4.5118 18.2378 5.63329 17.7848C6.75478 17.3318 7.95613 17.1098 9.16545 17.1319C13.2165 17.0989 17.2655 17.1249 21.4465 17.1249C21.8525 15.9019 22.2675 14.6809 22.6635 13.4529C23.3345 11.3699 24.0135 9.28792 24.6535 7.19492C25.0701 5.58055 25.9262 4.11333 27.1266 2.95632C28.3271 1.7993 29.8248 0.99781 31.4535 0.640918C31.5535 0.616918 31.6255 0.506918 31.7105 0.440918H34.9535ZM67.9005 68.0329C67.9005 54.2829 67.8364 40.5329 67.9435 26.7829C67.9951 25.92 67.8626 25.056 67.5546 24.2483C67.2465 23.4406 66.7701 22.7077 66.157 22.0983C65.5438 21.489 64.808 21.0171 63.9984 20.7141C63.1888 20.4111 62.324 20.2839 61.4615 20.3409C44.2115 20.3989 26.9615 20.3619 9.71145 20.3679C5.57745 20.3679 3.24545 22.6979 3.24545 26.8049C3.24545 54.2663 3.24545 81.7279 3.24545 109.19C3.24545 113.26 5.56545 115.576 9.61845 115.576C26.8685 115.576 44.1185 115.515 61.3685 115.628C62.2465 115.681 63.1257 115.547 63.9483 115.235C64.7708 114.924 65.5179 114.441 66.1402 113.82C66.7626 113.198 67.2461 112.451 67.5588 111.629C67.8715 110.807 68.0064 109.928 67.9545 109.05C67.8195 95.3779 67.9044 81.7039 67.9044 68.0309M71.1785 84.0239C71.3855 83.7589 71.4855 83.6819 71.5164 83.5839C77.5204 64.8172 83.5145 46.0472 89.4985 27.2739C89.7397 26.5045 89.816 25.6928 89.7225 24.8919C89.3804 22.1749 87.6895 20.6549 85.1355 19.8509C76.2545 17.0509 67.3895 14.2029 58.5175 11.3769C50.8181 8.92625 43.1171 6.48092 35.4145 4.04092C34.6642 3.75076 33.861 3.62232 33.0577 3.66402C32.2543 3.70571 31.4688 3.9166 30.7526 4.28288C30.0364 4.64916 29.4056 5.16257 28.9015 5.7895C28.3974 6.41643 28.0314 7.14275 27.8275 7.92092C27.1865 9.85292 26.5775 11.7959 25.9615 13.7369C25.6175 14.8209 25.2905 15.9089 24.9145 17.1289H26.4475C38.1808 17.1289 49.9141 17.1289 61.6475 17.1289C67.2975 17.1289 71.0984 20.8609 71.1694 26.4909C71.2045 29.3029 71.1765 32.1159 71.1765 34.9269V84.0269" fill="white"/>
<path d="M56.988 50.9769C56.9922 55.2249 55.7329 59.3781 53.3702 62.9084C51.0075 66.4387 47.6482 69.1866 43.7195 70.8024C39.7909 72.4183 35.4704 72.8291 31.3075 71.9828C27.1447 71.1364 23.3277 69.0711 20.3419 66.0494C17.3561 63.0277 15.3365 59.1863 14.5399 55.0136C13.7433 50.841 14.2058 46.5257 15.8684 42.6167C17.5311 38.7076 20.3189 35.3813 23.8771 33.061C27.4354 30.7406 31.6034 29.531 35.851 29.5859C41.4819 29.6473 46.8609 31.9287 50.8189 35.9343C54.7769 39.9398 56.9939 45.3457 56.988 50.9769ZM26.348 46.9469C25.7927 49.5879 25.804 52.3166 26.381 54.9529H33.94V46.9469H26.348ZM37.332 46.8909V55.0199C39.575 55.0199 41.732 55.0439 43.885 54.9889C44.16 54.9819 44.652 54.5659 44.658 54.3299C44.715 52.0719 44.71 49.8109 44.658 47.5529C44.606 47.3971 44.5151 47.2571 44.3938 47.1464C44.2725 47.0356 44.1249 46.9576 43.965 46.9199C41.775 46.8699 39.584 46.8909 37.334 46.8909M53.268 46.9829H48.049V55.0139C49.575 55.0139 51.185 55.0339 52.793 54.9899C52.9286 54.9597 53.0545 54.8962 53.1593 54.805C53.264 54.7139 53.3444 54.598 53.393 54.4679C53.935 51.9959 53.8925 49.4316 53.269 46.9789M17.908 54.9239H22.826V46.9729H17.908C17.3004 49.5884 17.3004 52.3084 17.908 54.9239ZM33.953 58.3139H27.253C28.5711 61.9776 30.8928 65.1968 33.953 67.6039V58.3139ZM33.936 34.2679C30.8921 36.6909 28.5917 39.9218 27.298 43.5909H33.936V34.2679ZM52.225 58.2579C50.691 58.2579 49.386 58.3059 48.086 58.2389C47.9391 58.2116 47.7881 58.214 47.6421 58.2459C47.496 58.2777 47.3578 58.3384 47.2355 58.4244C47.1132 58.5103 47.0093 58.6199 46.9299 58.7465C46.8505 58.8731 46.7971 59.0144 46.773 59.1619C45.8525 61.9061 44.424 64.4527 42.562 66.6689C42.235 67.0689 41.9 67.4549 41.569 67.8479C43.9246 67.0979 46.0933 65.8547 47.9307 64.2009C49.7682 62.5471 51.2321 60.5218 52.225 58.2579ZM41.662 34.0139C44.0238 36.7126 45.8357 39.8466 46.996 43.2399C47.0537 43.3475 47.1361 43.4398 47.2364 43.5094C47.3367 43.5789 47.4521 43.6237 47.573 43.6399C49.056 43.6739 50.541 43.6579 52.221 43.6579C51.2257 41.4063 49.773 39.3862 47.9553 37.726C46.1375 36.0657 43.9944 34.8016 41.662 34.0139ZM37.275 67.3839C40.1645 65.0015 42.3552 61.8816 43.615 58.3549H37.275V67.3839ZM43.64 43.6229C42.3858 40.1 40.2062 36.9798 37.33 34.5899V43.6229H43.64ZM19.15 58.2919C20.25 62.0699 25.557 67.0219 29.285 67.7689C26.7833 65.0492 24.908 61.8144 23.791 58.2919H19.15ZM29.081 34.2679C26.8448 35.0596 24.7947 36.3016 23.0575 37.917C21.3203 39.5324 19.9329 41.487 18.981 43.6599C20.452 43.6599 21.715 43.6149 22.973 43.6779C23.654 43.7119 23.853 43.3969 24.108 42.8449C24.991 40.9309 25.894 39.0189 26.923 37.1799C27.5774 36.162 28.2993 35.1891 29.084 34.2679" fill="white"/>
<path d="M35.5976 97.5588H16.4976C16.1506 97.5588 15.7976 97.5648 15.4566 97.5418C15.2616 97.5519 15.0666 97.5202 14.8849 97.4486C14.7032 97.377 14.5389 97.2673 14.4032 97.1268C14.2675 96.9864 14.1635 96.8184 14.0982 96.6344C14.0328 96.4503 14.0078 96.2544 14.0246 96.0598C14.2278 95.4054 14.642 94.8368 15.2026 94.4428C15.4576 94.2238 16.0166 94.3338 16.4386 94.3338C29.2093 94.3291 41.9803 94.3291 54.7516 94.3338C55.0978 94.3078 55.4457 94.3186 55.7896 94.3658C55.993 94.3832 56.1908 94.4409 56.3717 94.5354C56.5525 94.63 56.7127 94.7596 56.843 94.9167C56.9733 95.0738 57.071 95.2552 57.1305 95.4504C57.19 95.6456 57.2101 95.8507 57.1896 96.0538C57.197 96.2584 57.1609 96.4623 57.0836 96.652C57.0063 96.8416 56.8897 97.0127 56.7414 97.1539C56.5931 97.2952 56.4165 97.4033 56.2233 97.4712C56.0301 97.5391 55.8247 97.5652 55.6206 97.5478C54.2316 97.5758 52.8426 97.5608 51.4536 97.5618H35.5976" fill="white"/>
<path d="M35.654 86.3039H16.788C16.441 86.3039 16.088 86.3159 15.747 86.2919C15.2993 86.3155 14.8603 86.162 14.5249 85.8644C14.1896 85.5669 13.9848 85.1493 13.955 84.7019C13.9711 84.2528 14.1618 83.8278 14.4866 83.5172C14.8114 83.2066 15.2446 83.035 15.694 83.0389C16 83.0109 16.311 83.0279 16.62 83.0279C29.2746 83.0279 41.9293 83.0296 54.584 83.0329C55.0825 83.0146 55.5812 83.0607 56.068 83.1699C56.2523 83.194 56.4294 83.2576 56.587 83.3563C56.7446 83.4549 56.8791 83.5865 56.9813 83.7418C57.0835 83.8972 57.1511 84.0727 57.1793 84.2565C57.2075 84.4403 57.1958 84.6281 57.145 84.8069C56.884 85.3942 56.4417 85.8825 55.883 86.1999C55.546 86.4159 54.983 86.2999 54.522 86.2999C48.2333 86.3046 41.9446 86.3046 35.656 86.2999" fill="white"/>
<path d="M35.651 108.858C32.1383 108.858 28.6256 108.858 25.113 108.858C23.751 108.858 23.055 108.284 23.083 107.217C23.109 106.209 23.805 105.643 25.083 105.642C32.1083 105.636 39.1336 105.636 46.159 105.642C47.403 105.642 48.135 106.256 48.144 107.242C48.154 108.248 47.439 108.85 46.188 108.853C42.6753 108.86 39.1626 108.86 35.65 108.853" fill="white"/>
</g>
</svg>
