<svg width="112" height="89" viewBox="0 0 112 89" fill="none" xmlns="http://www.w3.org/2000/svg">
<mask id="mask0_10_2134" style="mask-type:luminance" maskUnits="userSpaceOnUse" x="0" y="0" width="112" height="89">
<path d="M111.174 0.365234H0.478516V88.9292H111.174V0.365234Z" fill="white"/>
</mask>
<g mask="url(#mask0_10_2134)">
<path d="M55.8525 88.8832C39.4525 88.8832 23.0425 88.8252 6.63854 88.9302C5.82169 88.9524 5.00892 88.8075 4.25008 88.5044C3.49123 88.2013 2.80229 87.7464 2.22551 87.1675C1.64873 86.5887 1.19627 85.8981 0.895865 85.1382C0.595461 84.3783 0.453449 83.565 0.478537 82.7482C0.564537 57.3152 0.523537 31.8822 0.524537 6.44823C0.524537 2.57823 2.72454 0.365234 6.57254 0.365234H105.118C108.974 0.365234 111.173 2.57123 111.173 6.44023C111.173 31.9122 111.173 57.3839 111.173 82.8552C111.173 86.6482 108.954 88.8802 105.183 88.8812C88.7392 88.8812 72.2959 88.8812 55.8525 88.8812M55.7205 85.2012H104.694C106.941 85.2012 107.494 84.6552 107.494 82.4302C107.494 57.2302 107.494 32.0329 107.494 6.83823C107.494 4.59323 106.95 4.04523 104.72 4.04523H7.00254C4.75154 4.04523 4.20254 4.58523 4.20254 6.81423C4.20254 32.0142 4.20254 57.2116 4.20254 82.4062C4.20254 84.6522 4.74754 85.2062 6.97454 85.2062H55.7195" fill="white"/>
<path d="M52.1565 44.6333C52.1565 52.4279 52.1565 60.2229 52.1565 68.0183C52.1565 69.8593 51.5875 70.4383 49.7755 70.4383C36.6042 70.4383 23.4332 70.4383 10.2625 70.4383C8.49554 70.4383 7.90454 69.8563 7.90454 68.1123C7.90454 52.4456 7.90454 36.7789 7.90454 21.1123C7.90454 19.4203 8.50454 18.8123 10.1685 18.8123C23.4165 18.8123 36.6642 18.8123 49.9115 18.8123C51.5625 18.8123 52.1555 19.4313 52.1565 21.1353C52.1565 28.9693 52.1565 36.8026 52.1565 44.6353M11.6795 22.5123V66.6823H15.2795V65.3553C15.2795 60.5553 15.4305 55.7473 15.2305 50.9553C15.0765 47.2713 17.7625 44.2413 21.6615 44.6163C22.5675 44.7033 23.4885 44.6293 24.6725 44.6293C24.4485 43.7973 24.2795 43.1243 24.0855 42.4583C23.4996 40.8958 23.0421 39.2881 22.7175 37.6513C22.5664 35.6213 22.5483 33.5836 22.6635 31.5513C22.6873 30.135 23.2615 28.7835 24.2644 27.7832C25.2673 26.7829 26.6202 26.2123 28.0365 26.1923C30.4555 26.1653 32.8765 26.1773 35.2955 26.1923C36.7465 26.1993 37.3955 26.8493 37.3955 28.3083C37.4075 30.9963 37.3365 33.6873 37.4185 36.3733C37.4821 38.4882 36.993 40.5831 35.9995 42.4513C35.7233 43.1554 35.5137 43.884 35.3735 44.6273C36.7845 44.6273 37.9275 44.6273 39.0735 44.6273C39.834 44.5926 40.5933 44.7172 41.3028 44.9932C42.0122 45.2692 42.6562 45.6904 43.1933 46.2298C43.7305 46.7692 44.149 47.4149 44.4219 48.1255C44.6949 48.8361 44.8164 49.596 44.7785 50.3563C44.7865 55.3876 44.7865 60.4193 44.7785 65.4513V66.6753H48.3845V22.5123H11.6795ZM41.0905 66.7123C41.0905 61.1323 41.1095 55.6483 41.0745 50.1643C41.0812 49.9204 41.038 49.6778 40.9475 49.4513C40.8571 49.2248 40.7213 49.0191 40.5486 48.8469C40.3758 48.6747 40.1697 48.5396 39.9429 48.4499C39.7161 48.3602 39.4733 48.3178 39.2295 48.3253C37.819 48.1562 36.3921 48.1784 34.9875 48.3913C34.0278 48.8116 33.1933 49.4734 32.5655 50.3123C32.1708 50.7418 31.9357 51.294 31.8995 51.8763C31.8365 54.8703 31.8695 57.8663 31.8695 60.8613V63.0033H28.1895C28.1895 59.5033 28.1305 56.0553 28.2205 52.6123C28.2404 52.0711 28.1434 51.532 27.9364 51.0316C27.7293 50.5312 27.417 50.0812 27.0205 49.7123C26.6146 49.1873 26.077 48.7789 25.4623 48.5287C24.8477 48.2784 24.1778 48.1951 23.5205 48.2873C22.8313 48.3375 22.1395 48.3431 21.4495 48.3043C19.6015 48.3143 18.9615 48.9473 18.9605 50.8043C18.9559 55.7956 18.9559 60.7873 18.9605 65.7793C18.9605 66.0793 18.9915 66.3703 19.0105 66.7093L41.0905 66.7123ZM30.0545 47.3613C31.8765 45.9533 31.8395 45.9523 31.8965 43.7963C31.849 43.002 31.9992 42.2083 32.3335 41.4863C34.6025 37.8113 33.3965 33.8083 33.7565 29.8703C31.8065 29.8703 30.0455 29.8363 28.2855 29.8823C28.0237 29.8706 27.7623 29.9145 27.5186 30.0109C27.2749 30.1074 27.0544 30.2544 26.8715 30.4421C26.6885 30.6298 26.5474 30.8541 26.4573 31.1003C26.3671 31.3464 26.3301 31.6088 26.3485 31.8703C26.3085 33.1363 26.3965 34.4073 26.3235 35.6703C26.2002 37.5948 26.6438 39.5132 27.5995 41.1883C27.9904 41.8835 28.1779 42.6746 28.1405 43.4713C27.9938 44.2398 28.1014 45.0352 28.4472 45.7371C28.7929 46.439 29.3578 47.0091 30.0565 47.3613" fill="white"/>
<path d="M103.733 42.8491H57.7441V46.3791H103.733V42.8491Z" fill="white"/>
<path d="M41.0345 9.66418H19.0605V13.2112H41.0345V9.66418Z" fill="white"/>
<path d="M101.374 54.6382C103.059 56.9308 103.92 59.7255 103.816 62.5688C103.713 65.412 102.652 68.1369 100.805 70.3012C99.2057 71.9777 97.5225 73.5724 95.7622 75.0792L93.3242 72.5322C94.2242 71.6752 95.2682 70.6072 96.3862 69.6182C100.044 66.3802 101.463 61.8522 98.4762 56.7182L101.376 54.6372" fill="white"/>
<path d="M75.8785 72.4712L72.5785 73.9712C70.7535 69.2922 71.0065 64.8892 74.0215 60.9652C75.9827 58.6466 78.0639 56.4322 80.2565 54.3312L82.8725 57.1012C81.4235 58.5472 79.9245 60.0802 78.3855 61.5722C76.9189 62.8317 75.8847 64.5198 75.4286 66.3984C74.9726 68.277 75.1177 70.2514 75.8435 72.0432C75.8701 72.1826 75.8818 72.3243 75.8785 72.4662" fill="white"/>
<path d="M96.3295 26.2393H78.0535V29.7923H96.3295V26.2393Z" fill="white"/>
<path d="M85.7575 64.6843L83.1915 62.1783C84.6205 60.6783 85.9185 59.1053 87.4385 57.7853C88.5231 56.9143 89.8974 56.4866 91.2847 56.5884C92.672 56.6901 93.9692 57.3137 94.9151 58.3337C95.8609 59.3536 96.3852 60.694 96.3824 62.085C96.3795 63.476 95.8496 64.8143 94.8995 65.8303L92.3995 63.1422C92.4375 63.0272 92.7775 62.5423 92.6765 62.1873C92.5234 61.5475 92.1817 60.9685 91.6955 60.5253C91.3579 60.2917 90.943 60.1977 90.5377 60.2629C90.1323 60.3282 89.7679 60.5475 89.5205 60.8752C88.2695 62.1163 87.0415 63.3813 85.7575 64.6843Z" fill="white"/>
<path d="M80.4418 64.7124L82.8938 67.2004C82.7828 67.8164 82.4828 68.4324 82.6388 68.9004C82.732 69.1945 82.8857 69.4659 83.0899 69.6972C83.2941 69.9284 83.5444 70.1145 83.8248 70.2434C84.1442 70.3068 84.4736 70.3008 84.7906 70.2257C85.1075 70.1507 85.4046 70.0083 85.6618 69.8084C86.9878 68.6084 88.1708 67.2414 89.4348 65.9134L91.9468 68.4274C90.5724 70.0773 89.0961 71.6397 87.5268 73.1054C86.4405 73.9214 85.0849 74.2943 83.7341 74.1487C82.3833 74.0032 81.1383 73.35 80.2508 72.3214C79.317 71.2646 78.8177 69.8935 78.8533 68.4837C78.889 67.0738 79.4568 65.7297 80.4428 64.7214" fill="white"/>
<path d="M74.2015 26.2762H57.7635V29.8182H74.2015V26.2762Z" fill="white"/>
<path d="M72.3958 35.4922H57.7568V39.0222H72.3958V35.4922Z" fill="white"/>
<path d="M72.388 50.2393H57.79V53.7843H72.388V50.2393Z" fill="white"/>
<path d="M79.1005 80.2692L80.5195 77.1133C84.6465 78.2133 85.8055 78.0302 89.5345 76.3542L91.4775 79.2702C88.4775 81.7572 82.4455 82.2542 79.1005 80.2702" fill="white"/>
<path d="M68.681 18.8481H57.793V22.4281H68.681V18.8481Z" fill="white"/>
<path d="M68.7039 59.4644H57.7529V63.0024H68.7039V59.4644Z" fill="white"/>
<path d="M86.5655 49.8753C88.3351 49.2732 90.2119 49.0516 92.0731 49.2252C93.9342 49.3987 95.7377 49.9634 97.3655 50.8823L95.5195 54.0873C94.3519 53.4429 93.0632 53.048 91.735 52.9275C90.4068 52.807 89.0681 52.9636 87.8035 53.3873L86.5615 49.8703" fill="white"/>
<path d="M65.0012 66.8081H57.7812V70.3481H65.0012V66.8081Z" fill="white"/>
</g>
</svg>
