<svg width="44" height="44" viewBox="0 0 44 44" fill="none" xmlns="http://www.w3.org/2000/svg">
<path d="M36.542 0H7.307C6.3473 0.000131313 5.39702 0.189288 4.51043 0.556671C3.62383 0.924054 2.81827 1.46247 2.13976 2.14117C1.46124 2.81987 0.923046 3.62558 0.555906 4.51227C0.188766 5.39897 -0.000131262 6.3493 6.84339e-08 7.309V36.541C-0.000131265 37.5008 0.188799 38.4512 0.556001 39.338C0.923204 40.2247 1.46149 41.0305 2.14011 41.7092C2.81873 42.3879 3.62441 42.9263 4.51112 43.2936C5.39783 43.6609 6.34822 43.85 7.308 43.85H21.929V24.666H16.443V19.184H21.929V15.072C21.929 13.2547 22.6509 11.5119 23.9359 10.2269C25.2209 8.94191 26.9637 8.22 28.781 8.22H35.629V13.701H28.776C28.596 13.701 28.4178 13.7365 28.2515 13.8054C28.0852 13.8743 27.9341 13.9753 27.8069 14.1026C27.6797 14.2299 27.5788 14.3811 27.51 14.5474C27.4412 14.7137 27.4059 14.892 27.406 15.072V19.183H34.943L33.573 24.664H27.406V43.85H36.542C37.5018 43.85 38.4522 43.6609 39.3389 43.2936C40.2256 42.9263 41.0313 42.3879 41.7099 41.7092C42.3885 41.0305 42.9268 40.2247 43.294 39.338C43.6612 38.4512 43.8501 37.5008 43.85 36.541V7.309C43.8501 6.34922 43.6612 5.39881 43.294 4.51204C42.9268 3.62528 42.3885 2.81953 41.7099 2.14082C41.0313 1.4621 40.2256 0.923708 39.3389 0.556384C38.4522 0.18906 37.5018 -8.98559e-09 36.542 0Z" fill="#1FBEF9"/>
</svg>
