<svg width="17" height="17" viewBox="0 0 17 17" fill="none" xmlns="http://www.w3.org/2000/svg">
<path d="M8.50175 4.32117C7.67483 4.32117 6.86647 4.56638 6.17891 5.0258C5.49135 5.48521 4.95546 6.13819 4.63901 6.90217C4.32256 7.66615 4.23976 8.50681 4.40109 9.31784C4.56241 10.1289 4.96061 10.8739 5.54534 11.4586C6.13006 12.0433 6.87504 12.4415 7.68608 12.6028C8.49711 12.7642 9.33777 12.6814 10.1017 12.3649C10.8657 12.0485 11.5187 11.5126 11.9781 10.825C12.4375 10.1374 12.6827 9.32909 12.6827 8.50217C12.6835 7.95289 12.5759 7.40885 12.3661 6.90123C12.1563 6.39362 11.8483 5.93239 11.4599 5.54399C11.0715 5.15559 10.6103 4.84765 10.1027 4.63782C9.59506 4.42798 9.05103 4.32038 8.50175 4.32117ZM8.50175 11.2212C7.96427 11.2214 7.43879 11.0622 6.99175 10.7638C6.54471 10.4654 6.19618 10.0411 5.99022 9.54469C5.78426 9.04823 5.73012 8.50185 5.83464 7.97463C5.93916 7.44741 6.19764 6.963 6.57742 6.58267C6.9572 6.20233 7.44122 5.94313 7.96829 5.83783C8.49536 5.73254 9.04182 5.78588 9.53858 5.99111C10.0353 6.19634 10.4601 6.54424 10.7592 6.99084C11.0582 7.43744 11.2182 7.96268 11.2188 8.50017C11.2182 9.22097 10.9319 9.91215 10.4226 10.4222C9.91331 10.9323 9.22255 11.2196 8.50175 11.2212ZM13.8287 4.15117C13.8287 4.34401 13.7716 4.53251 13.6644 4.69285C13.5573 4.85319 13.405 4.97815 13.2269 5.05195C13.0487 5.12574 12.8527 5.14505 12.6635 5.10743C12.4744 5.06981 12.3007 4.97695 12.1643 4.8406C12.028 4.70424 11.9351 4.53051 11.8975 4.34138C11.8599 4.15225 11.8792 3.95621 11.953 3.77805C12.0268 3.5999 12.1517 3.44762 12.3121 3.34049C12.4724 3.23335 12.6609 3.17617 12.8538 3.17617C12.9816 3.1759 13.1083 3.20084 13.2265 3.24956C13.3447 3.29828 13.4522 3.36982 13.5427 3.46009C13.6333 3.55036 13.7051 3.6576 13.7542 3.77566C13.8033 3.89373 13.8286 4.02031 13.8287 4.14817V4.15117ZM16.5978 5.14117C16.6255 3.87234 16.1524 2.64365 15.2808 1.72117C14.3572 0.853245 13.1309 0.380629 11.8637 0.404168C10.5177 0.328168 6.48175 0.328168 5.13575 0.404168C3.86843 0.379882 2.64194 0.852603 1.71875 1.72117C0.849969 2.64269 0.376822 3.86791 0.40075 5.13417C0.32475 6.48017 0.32475 10.5162 0.40075 11.8622C0.374044 13.1301 0.847509 14.3576 1.71875 15.2792C2.64269 16.1465 3.86867 16.6191 5.13575 16.5962C6.48175 16.6722 10.5177 16.6722 11.8637 16.5962C13.1315 16.6231 14.359 16.15 15.2808 15.2792C16.1487 14.3556 16.6213 13.1294 16.5978 11.8622C16.6738 10.5162 16.6738 6.48417 16.5978 5.13717V5.14117ZM14.8587 13.3072C14.7204 13.6579 14.5114 13.9765 14.2447 14.2432C13.9781 14.5098 13.6595 14.7188 13.3088 14.8572C12.2358 15.2832 9.68775 15.1842 8.50175 15.1842C7.31575 15.1842 4.76475 15.2792 3.69475 14.8572C3.34398 14.7188 3.0254 14.5098 2.75876 14.2432C2.49213 13.9765 2.28314 13.6579 2.14475 13.3072C1.71875 12.2332 1.81875 9.68617 1.81875 8.50017C1.81875 7.31417 1.72375 4.76317 2.14675 3.69317C2.28514 3.3424 2.49413 3.02382 2.76076 2.75718C3.0274 2.49055 3.34598 2.28156 3.69675 2.14317C4.76975 1.71717 7.31775 1.81517 8.50375 1.81517C9.68975 1.81517 12.2408 1.72017 13.3108 2.14317C13.6615 2.28156 13.9801 2.49055 14.2467 2.75718C14.5134 3.02382 14.7224 3.3424 14.8608 3.69317C15.2867 4.76617 15.1888 7.31417 15.1888 8.50017C15.1888 9.68617 15.2847 12.2372 14.8587 13.3072Z" fill="white"/>
</svg>
