<svg width="44" height="44" viewBox="0 0 44 44" fill="none" xmlns="http://www.w3.org/2000/svg">
<path d="M36.484 0.0742188H7.365C5.41347 0.0800222 3.54352 0.857839 2.16357 2.23779C0.78362 3.61774 0.00580347 5.48768 0 7.43922V36.5592C0.00580347 38.5107 0.78362 40.3807 2.16357 41.7606C3.54352 43.1406 5.41347 43.9184 7.365 43.9242H36.484C38.4355 43.9184 40.3055 43.1406 41.6854 41.7606C43.0654 40.3807 43.8432 38.5107 43.849 36.5592V7.43922C43.8432 5.48768 43.0654 3.61774 41.6854 2.23779C40.3055 0.857839 38.4355 0.0800222 36.484 0.0742188ZM16.443 35.7022H10.962V16.5182H16.443V35.7022ZM13.703 13.7772C13.1609 13.7772 12.6309 13.6165 12.1802 13.3153C11.7294 13.0141 11.3781 12.586 11.1706 12.0852C10.9632 11.5843 10.9089 11.0332 11.0147 10.5015C11.1204 9.96977 11.3815 9.48138 11.7648 9.09804C12.1482 8.7147 12.6366 8.45365 13.1683 8.34789C13.7 8.24212 14.2511 8.2964 14.7519 8.50386C15.2528 8.71132 15.6809 9.06265 15.9821 9.5134C16.2832 9.96416 16.444 10.4941 16.444 11.0362C16.444 11.7632 16.1552 12.4604 15.6412 12.9744C15.1271 13.4884 14.43 13.7772 13.703 13.7772ZM35.629 35.7022H30.147V24.7402C30.1333 24.0225 29.8385 23.3387 29.3261 22.836C28.8136 22.3332 28.1244 22.0516 27.4065 22.0516C26.6886 22.0516 25.9994 22.3332 25.4869 22.836C24.9745 23.3387 24.6797 24.0225 24.666 24.7402V35.7022H19.184V16.5182H24.665V19.9182C25.795 18.3652 27.523 16.5182 29.465 16.5182C32.871 16.5182 35.631 19.5862 35.631 23.3702V35.7022H35.629Z" fill="#1FBEF9"/>
</svg>
