<svg width="19" height="17" viewBox="0 0 19 17" fill="none" xmlns="http://www.w3.org/2000/svg">
<path d="M16.8996 4.70699C16.9116 4.87299 16.9116 5.03799 16.9116 5.20699C16.921 6.63617 16.6464 8.05298 16.1038 9.37515C15.5611 10.6973 14.7612 11.8985 13.7505 12.909C12.7397 13.9194 11.5383 14.719 10.216 15.2613C8.89365 15.8036 7.47677 16.0778 6.04759 16.068C3.96863 16.0735 1.93234 15.4783 0.183594 14.354C0.489748 14.3876 0.797607 14.4033 1.10559 14.401C2.82431 14.4056 4.49446 13.831 5.84659 12.77C5.04985 12.7555 4.27752 12.4925 3.63749 12.0178C2.99745 11.543 2.52167 10.8803 2.27659 10.122C2.51511 10.1597 2.75612 10.1794 2.99759 10.181C3.33505 10.1796 3.671 10.1359 3.99759 10.051C3.13375 9.87509 2.35736 9.40575 1.80016 8.7226C1.24295 8.03945 0.939257 7.18456 0.940594 6.30299V6.25399C1.46969 6.54937 2.06109 6.71555 2.66659 6.73899C1.85622 6.19863 1.28259 5.36941 1.06274 4.42054C0.8429 3.47167 0.993423 2.47467 1.48359 1.63299C2.44228 2.81424 3.63859 3.78077 4.99491 4.46987C6.35122 5.15896 7.83725 5.55524 9.35659 5.63299C9.29516 5.34533 9.26333 5.05213 9.26159 4.75799C9.26229 3.99215 9.49304 3.24418 9.92393 2.61106C10.3548 1.97794 10.966 1.48886 11.6782 1.20724C12.3903 0.925626 13.1707 0.864454 13.9181 1.03166C14.6654 1.19887 15.3453 1.58674 15.8696 2.14499C16.7246 1.98029 17.5444 1.66831 18.2926 1.22299C18.0069 2.10386 17.41 2.85043 16.6136 3.32299C17.3723 3.23682 18.1138 3.03761 18.8136 2.73199C18.2912 3.49329 17.6441 4.16099 16.8996 4.70699Z" fill="white"/>
</svg>
