<svg width="83" height="94" viewBox="0 0 83 94" fill="none" xmlns="http://www.w3.org/2000/svg">
<path d="M76.3194 23.92L64.6394 88.16C64.3783 89.6569 63.698 91.0491 62.6774 92.175C62.2082 92.7493 61.6163 93.2112 60.9453 93.527C60.2742 93.8428 59.541 94.0044 58.7994 94H23.7594C23.0178 94.0044 22.2846 93.8428 21.6136 93.527C20.9426 93.2112 20.3507 92.7493 19.8814 92.175C18.8609 91.0491 18.1806 89.6569 17.9194 88.16L6.23944 23.92C5.46482 23.9357 4.69543 23.7897 3.98049 23.4911C3.26554 23.1925 2.62078 22.748 2.08744 22.186C1.54207 21.6424 1.11159 20.9948 0.821601 20.2815C0.531614 19.5682 0.388048 18.8039 0.399442 18.034C0.385413 17.2706 0.527955 16.5124 0.818274 15.8062C1.10859 15.1 1.54053 14.4608 2.08744 13.928C2.62752 13.378 3.27457 12.9444 3.98867 12.6541C4.70277 12.3638 5.46877 12.2228 6.23944 12.24V6.39999C6.22229 5.62932 6.36323 4.86331 6.65354 4.14921C6.94386 3.43512 7.37741 2.78807 7.92744 2.24799C8.46752 1.69796 9.11457 1.26441 9.82867 0.974092C10.5428 0.683774 11.3088 0.542842 12.0794 0.55999H70.4794C71.2421 0.551712 71.9986 0.696882 72.7039 0.986866C73.4093 1.27685 74.0492 1.70573 74.5854 2.24799C75.1474 2.78133 75.5919 3.42609 75.8905 4.14103C76.1891 4.85598 76.3352 5.62536 76.3194 6.39999V12.24C77.0821 12.2317 77.8386 12.3769 78.5439 12.6669C79.2493 12.9569 79.8892 13.3857 80.4254 13.928C80.9842 14.4541 81.4271 15.091 81.7256 15.798C82.0242 16.5051 82.172 17.2666 82.1594 18.034C82.1694 18.8078 82.0207 19.5755 81.7224 20.2896C81.4242 21.0037 80.9828 21.6491 80.4254 22.186C79.8958 22.7401 79.2582 23.1799 78.552 23.4781C77.8458 23.7763 77.086 23.9267 76.3194 23.92Z" fill="white"/>
</svg>
