<svg width="110" height="110" viewBox="0 0 110 110" fill="none" xmlns="http://www.w3.org/2000/svg">
<path d="M84.5425 76.6562H39.1625L29.8425 84.6122L20.5225 76.6562H0.893478V82.1112C0.893478 89.0642 5.69348 94.7292 11.6365 94.8402C12.115 98.1246 13.4613 101.222 15.5365 103.812C17.0197 105.593 18.8838 107.019 20.9912 107.984C23.0987 108.949 25.3959 109.429 27.7135 109.388H57.7135C60.0318 109.43 62.3298 108.95 64.4378 107.984C66.5458 107.018 68.4099 105.591 69.8925 103.808C71.9676 101.218 73.3139 98.1206 73.7925 94.8362C75.3525 94.778 76.8791 94.3666 78.2572 93.633C79.6353 92.8995 80.829 91.8629 81.7485 90.6012C83.5849 88.1542 84.5644 85.1705 84.5355 82.1112L84.5425 76.6562Z" fill="white"/>
<path d="M21.1235 69.3822L29.8365 75.7902L38.6265 69.3822H84.5425V67.5642C84.5398 65.469 83.8149 63.4387 82.4899 61.8157C81.1649 60.1927 79.3208 59.0761 77.2685 58.6542C77.263 55.4908 76.5325 52.3708 75.1332 49.5337C73.7339 46.6966 71.703 44.218 69.1965 42.2882C64.4635 38.5972 58.1405 36.6512 50.8965 36.6512H34.5345C19.0275 36.6512 8.52347 45.4642 8.16647 58.6512C6.11417 59.0731 4.27008 60.1897 2.94506 61.8127C1.62003 63.4357 0.895104 65.466 0.892471 67.5612V69.3792L21.1235 69.3822Z" fill="white"/>
<path d="M102.518 18.4662H85.5631L87.5911 10.3603L97.7271 6.87325L95.4531 0.28125L81.3601 4.82725L78.0661 18.4662H44.5361V25.7402H48.7961L49.2191 29.3772H50.8961C59.7611 29.3772 67.6391 31.8553 73.6541 36.5423C76.9993 39.12 79.7111 42.4282 81.5821 46.2142C82.7353 48.5632 83.5561 51.0611 84.0211 53.6363C87.4099 55.7209 89.9232 58.9687 91.091 62.7721C92.2588 66.5755 92.0011 70.6741 90.3661 74.3012C91.3238 76.7955 91.8153 79.4445 91.8161 82.1162C91.8536 87.0902 90.1306 91.9172 86.9521 95.7432C85.011 98.0559 82.5245 99.8489 79.7171 100.96C78.7603 103.686 77.3349 106.224 75.5051 108.46C75.2371 108.783 74.9621 109.099 74.6801 109.403H91.8161C95.4531 109.403 97.0441 107.585 97.4991 104.175L105.773 25.7542H109.996V18.4662H102.518Z" fill="white"/>
</svg>
