<svg width="79" height="117" viewBox="0 0 79 117" fill="none" xmlns="http://www.w3.org/2000/svg">
<mask id="mask0_10_2018" style="mask-type:luminance" maskUnits="userSpaceOnUse" x="0" y="0" width="79" height="117">
<path d="M78.8555 0.560059H0.144531V116.56H78.8555V0.560059Z" fill="white"/>
</mask>
<g mask="url(#mask0_10_2018)">
<path d="M16.3271 25.3929C15.8271 23.6559 15.3501 21.9799 14.8701 20.3029C13.5941 15.8363 12.3211 11.3673 11.0511 6.89593C11.0291 6.75795 10.9617 6.63126 10.8595 6.53596C10.7573 6.44067 10.6262 6.38223 10.4871 6.36993C7.64405 5.81693 4.79705 5.24193 1.95105 4.67893C1.45521 4.61184 0.99997 4.36884 0.668289 3.99421C0.336608 3.61958 0.150562 3.13825 0.144051 2.63793C0.125482 2.15423 0.282972 1.6802 0.587311 1.30377C0.89165 0.92735 1.32218 0.674077 1.79905 0.590932C2.18348 0.538894 2.57417 0.557192 2.95205 0.644932C6.23505 1.28993 9.51305 1.95993 12.7961 2.60693C13.2286 2.66629 13.6331 2.85491 13.9566 3.14808C14.2801 3.44126 14.5075 3.82531 14.6091 4.24993C16.5791 11.1546 18.5484 18.0579 20.517 24.9599C20.5236 25.0283 20.5444 25.0945 20.578 25.1544C20.6117 25.2142 20.6574 25.2664 20.7124 25.3076C20.7674 25.3487 20.8304 25.3779 20.8973 25.3933C20.9642 25.4087 21.0336 25.4099 21.1011 25.3969C25.0421 25.3829 28.982 25.3879 32.923 25.3879H33.3231C34.3551 17.3389 38.2901 11.2169 45.444 7.32893C50.1527 4.74591 55.6474 3.98663 60.8801 5.19593C66.2008 6.33679 70.9361 9.3478 74.2262 13.6823C77.5163 18.0168 79.143 23.3873 78.8111 28.8189C78.6661 31.8833 77.8847 34.8839 76.5167 37.6298C75.1487 40.3756 73.224 42.8066 70.8651 44.7679C68.5524 46.779 65.8526 48.2955 62.932 49.2241C60.0113 50.1528 56.9315 50.474 53.882 50.1679C53.7411 51.0349 53.5951 51.8859 53.4671 52.7389C53.0671 55.4089 52.6561 58.0779 52.2821 60.7519C51.958 63.0739 51.6641 65.4009 51.382 67.7289C51.066 70.3543 50.7661 72.9819 50.4821 75.6119C50.2941 77.3579 50.1341 79.1119 49.9761 80.8569C49.7941 82.8719 49.618 84.8879 49.459 86.9049C49.326 88.6049 49.2181 90.2989 49.1091 91.9979C48.9741 94.0839 48.8361 96.1699 48.7251 98.2579C48.6321 100.002 48.57 101.747 48.507 103.493C48.416 105.993 48.3411 108.493 48.2521 110.999C48.2667 111.776 48.2182 112.553 48.1071 113.323C47.9189 114.154 47.4768 114.906 46.8421 115.474C46.2075 116.043 45.4117 116.4 44.5651 116.496C44.2445 116.535 43.9219 116.554 43.5991 116.555C35.3724 116.555 27.146 116.555 18.92 116.555C18.0847 116.6 17.2544 116.401 16.5308 115.981C15.8071 115.561 15.2217 114.939 14.8461 114.192C14.4887 113.469 14.3497 112.658 14.4461 111.857C14.5611 110.383 14.6931 108.909 14.7831 107.432C14.9271 105.032 15.0831 102.632 15.1591 100.232C15.2371 97.6739 15.2591 95.1119 15.2431 92.5519C15.2301 90.0599 15.1871 87.5659 15.0771 85.0759C14.9551 82.3209 14.7921 79.5659 14.5571 76.8189C14.3044 73.8629 13.9937 70.9119 13.6251 67.9659C13.0431 63.2559 12.2571 58.5779 11.3251 53.9229C10.0441 47.5129 8.47305 41.1719 6.56505 34.9169C5.89105 32.7059 5.16505 30.5099 4.44405 28.3169C4.29917 27.9851 4.24288 27.6214 4.28068 27.2614C4.31848 26.9013 4.44908 26.5572 4.65971 26.2627C4.87033 25.9683 5.15377 25.7335 5.48231 25.5814C5.81085 25.4293 6.17324 25.365 6.53405 25.3949H16.3281L16.3271 25.3929ZM44.2271 104.08C45.0309 84.8058 47.0452 65.6013 50.258 46.5799C49.466 46.3889 48.724 46.2449 48.001 46.0319C46.2321 45.4977 44.344 45.5029 42.578 46.0469C40.1346 46.7963 37.5229 46.7987 35.078 46.0539C33.3133 45.5055 31.4248 45.4985 29.656 46.0339C27.1271 46.8081 24.4229 46.7976 21.9001 46.0039C20.5875 45.597 19.196 45.5132 17.8441 45.7599C16.9491 45.9219 16.0751 46.1929 15.1861 46.3939C14.8101 46.4789 14.4221 46.5109 14.0041 46.5709C18.4048 65.4051 20.1473 84.7626 19.1811 104.08H44.2271ZM53.465 29.5519H21.8441C21.8861 29.7129 21.9211 29.8519 21.9591 29.9869C22.2661 31.0779 22.6031 32.1619 22.8751 33.2619C22.9918 33.7786 22.9026 34.3204 22.6262 34.7723C22.3498 35.2242 21.9082 35.5505 21.3951 35.6819C21.1341 35.7548 20.8613 35.7754 20.5924 35.7426C20.3235 35.7097 20.0637 35.6241 19.828 35.4906C19.5922 35.357 19.3852 35.1783 19.2188 34.9645C19.0523 34.7507 18.9297 34.5062 18.8581 34.2449C18.4261 32.7849 18.0084 31.3206 17.6051 29.8519C17.6001 29.8015 17.5847 29.7527 17.5599 29.7085C17.535 29.6644 17.5012 29.6259 17.4607 29.5955C17.4201 29.5651 17.3737 29.5435 17.3244 29.5321C17.275 29.5206 17.2238 29.5195 17.1741 29.5289C14.6471 29.5389 12.1211 29.5349 9.59405 29.5359C9.48805 29.5359 9.38205 29.5459 9.25405 29.5519C9.27605 29.6379 9.28705 29.6909 9.30405 29.7429C10.6321 33.8599 11.8441 38.0079 12.9141 42.1999C12.9631 42.3929 13.0561 42.4589 13.2401 42.4269C14.0481 42.2849 14.8721 42.2069 15.6591 41.9899C17.99 41.3037 20.4677 41.2919 22.805 41.9559C24.6237 42.5521 26.5791 42.5911 28.42 42.0679C30.9656 41.2738 33.6925 41.2738 36.2381 42.0679C37.6292 42.4881 39.1022 42.5609 40.528 42.2799C41.2141 42.1519 41.876 41.8999 42.5611 41.7599C44.7714 41.295 47.0635 41.3982 49.223 42.0599C49.789 42.2319 50.3791 42.3239 50.9541 42.4519C51.8011 38.1049 52.6311 33.8419 53.465 29.5519ZM44.0441 108.274H18.9331C18.8241 109.646 18.7181 110.992 18.6101 112.357H43.9021C43.951 110.99 44.0021 109.647 44.0471 108.274M67.6021 42.1029L57.244 31.7399C56.344 36.4789 55.444 41.2399 54.5251 46.0499C59.2255 46.4334 63.8969 45.0233 67.6001 42.1029M58.1551 22.3029L67.6131 12.8469C64.8887 10.6854 61.6112 9.33394 58.1551 8.94693V22.3029ZM41.4551 15.9079C39.2911 18.6349 37.9364 21.9147 37.5451 25.3739H50.9261L41.459 15.9079M61.1991 29.5489L70.674 39.0319C72.8459 36.3027 74.2027 33.0155 74.5881 29.5489H61.1991ZM61.154 25.3739H74.5441C74.7191 23.2019 72.1441 17.0339 70.618 15.9129L61.154 25.3739ZM44.5541 12.8209L53.9711 22.2469V8.94593C50.5315 9.33172 47.269 10.6742 44.5541 12.8209Z" fill="white"/>
</g>
</svg>
