<svg width="101" height="102" viewBox="0 0 101 102" fill="none" xmlns="http://www.w3.org/2000/svg">
<path d="M94.2755 101.4H43.9955C43.1668 101.412 42.344 101.257 41.576 100.946C40.8079 100.634 40.1102 100.172 39.5239 99.5856C38.9377 98.9997 38.4749 98.3021 38.1629 97.5342C37.8509 96.7663 37.6961 95.9437 37.7075 95.1149V88.8299H31.4255C30.5919 88.8468 29.764 88.6896 28.9947 88.3683C28.2253 88.047 27.5315 87.5687 26.9575 86.9639C26.3732 86.3862 25.9112 85.6968 25.5991 84.9367C25.2869 84.1766 25.131 83.3615 25.1405 82.5399V76.2599H18.8555C18.0219 76.2768 17.194 76.1196 16.4247 75.7983C15.6553 75.477 14.9615 74.9987 14.3875 74.3939C13.8038 73.8168 13.3422 73.1282 13.0301 72.369C12.7179 71.6098 12.5616 70.7957 12.5705 69.9749V63.6899H6.28553C5.45195 63.7068 4.62401 63.5496 3.85465 63.2283C3.0853 62.907 2.39147 62.4286 1.81753 61.8239C1.23385 61.2468 0.772198 60.5582 0.46005 59.799C0.147902 59.0398 -0.00836983 58.2257 0.000531358 57.4049V7.12489C-0.0179515 6.2956 0.133646 5.47132 0.445976 4.70288C0.758306 3.93444 1.22475 3.23813 1.81653 2.65689C2.3978 2.0648 3.09424 1.5981 3.86287 1.28559C4.6315 0.973085 5.45601 0.821397 6.28553 0.839887H56.5655C57.3949 0.821534 58.2192 0.973289 58.9877 1.28579C59.7561 1.5983 60.4524 2.06492 61.0335 2.65689C61.6255 3.23804 62.0921 3.93432 62.4046 4.70276C62.7171 5.47121 62.8689 6.29553 62.8505 7.12489V13.4099H69.1355C69.9641 13.3984 70.7865 13.5532 71.5542 13.865C72.3219 14.1768 73.0193 14.6393 73.6052 15.2252C74.1911 15.8111 74.6536 16.5086 74.9654 17.2763C75.2772 18.044 75.432 18.8664 75.4205 19.6949V25.9799H81.7075C82.5283 25.971 83.3425 26.1273 84.1016 26.4394C84.8608 26.7516 85.5494 27.2132 86.1265 27.7969C86.7313 28.3708 87.2096 29.0647 87.5309 29.834C87.8522 30.6034 88.0095 31.4313 87.9925 32.2649V38.5499H94.2775C95.1061 38.5384 95.9285 38.6932 96.6962 39.005C97.4639 39.3168 98.1613 39.7793 98.7472 40.3652C99.3331 40.9511 99.7956 41.6486 100.107 42.4163C100.419 43.184 100.574 44.0064 100.563 44.8349V95.1149C100.571 95.9357 100.415 96.7498 100.103 97.509C99.7909 98.2682 99.3292 98.9568 98.7455 99.5339C98.1716 100.139 97.4778 100.617 96.7084 100.938C95.9391 101.26 95.1111 101.417 94.2775 101.4H94.2755ZM56.5655 7.12489H6.28553V57.4049H12.5705V19.6949C12.5591 18.8664 12.7138 18.044 13.0256 17.2763C13.3374 16.5086 13.8 15.8111 14.3859 15.2252C14.9718 14.6393 15.6692 14.1768 16.4369 13.865C17.2046 13.5532 18.027 13.3984 18.8555 13.4099H56.5655V7.12489ZM69.1355 19.6949H18.8555V69.9749H25.1405V32.2649C25.1291 31.4364 25.2838 30.614 25.5956 29.8463C25.9074 29.0786 26.37 28.3811 26.9559 27.7952C27.5418 27.2093 28.2392 26.7468 29.0069 26.435C29.7746 26.1232 30.597 25.9684 31.4255 25.9799H69.1355V19.6949ZM81.7075 32.2649H31.4255V82.5399H37.7075V44.8349C37.6961 44.0064 37.8508 43.184 38.1626 42.4163C38.4744 41.6486 38.937 40.9511 39.5229 40.3652C40.1088 39.7793 40.8062 39.3168 41.5739 39.005C42.3416 38.6932 43.164 38.5384 43.9925 38.5499H81.7075V32.2649ZM94.2775 44.8349H43.9955V95.1149H94.2755L94.2775 44.8349Z" fill="white"/>
</svg>
