<svg width="102" height="102" viewBox="0 0 102 102" fill="none" xmlns="http://www.w3.org/2000/svg">
<path d="M67.7236 82.9815H34.8356C31.6701 80.7498 28.7185 78.2294 26.0186 75.4525C23.9554 76.212 21.7779 76.6141 19.5796 76.6415C17.0695 76.6844 14.5776 76.2092 12.2594 75.2457C9.94129 74.2822 7.84672 72.851 6.10657 71.0415C2.90834 67.8378 0.960874 63.5961 0.615752 59.0824C0.27063 54.5687 1.55059 50.0803 4.22457 46.4275C6.5557 43.2072 9.85205 40.8131 13.6356 39.5925C13.6893 39.2646 13.7227 38.9336 13.7356 38.6015H51.2796V53.1615L38.5996 60.4945L47.9116 76.6415L63.9596 67.3295L57.6196 56.3295V38.6015H88.8196C89.2385 42.8145 89.4054 47.0487 89.3196 51.2815C89.2671 54.4947 88.5593 57.6634 87.2396 60.5935C85.8491 63.836 84.0156 66.8699 81.7916 69.6085C79.6659 72.2523 77.3658 74.7509 74.9066 77.0875C72.6568 79.222 70.2562 81.1918 67.7236 82.9815ZM13.2396 51.2815C13.2396 50.3569 13.2729 48.8049 13.3396 46.6255C11.3903 47.7166 9.76622 49.3062 8.63357 51.2315C7.21852 53.6495 6.64535 56.4685 7.00382 59.2471C7.3623 62.0257 8.63217 64.6069 10.6146 66.5865C11.7759 67.7853 13.1705 68.7334 14.7124 69.3724C16.2543 70.0113 17.9107 70.3275 19.5796 70.3015C20.1117 70.2697 20.6412 70.2029 21.1646 70.1015C15.8812 63.4329 13.2396 57.1595 13.2396 51.2815ZM57.6196 19.5815C57.6714 21.4293 57.9715 23.2617 58.5116 25.0295C61.03 26.7337 62.8282 29.31 63.5596 32.2615H57.2196C57.1115 31.4577 56.9444 30.6629 56.7196 29.8835C55.0027 28.7798 53.5994 27.252 52.6451 25.4478C51.6908 23.6436 51.2178 21.6239 51.2716 19.5835C51.2456 17.9147 51.5618 16.2582 52.2008 14.7164C52.8397 13.1745 53.7878 11.7798 54.9866 10.6185C56.1486 9.41842 57.5445 8.46937 59.0878 7.83004C60.6312 7.19072 62.2893 6.87471 63.9596 6.90154C65.0276 6.92009 66.0904 7.0542 67.1296 7.30154C64.4192 7.98685 62.0143 9.5554 60.2946 11.7595C58.5213 13.9769 57.5755 16.7426 57.6196 19.5815ZM38.5996 13.2415C38.6514 15.0893 38.9515 16.9217 39.4916 18.6895C41.6626 20.1223 43.3159 22.2146 44.2077 24.6582C45.0994 27.1018 45.1825 29.7672 44.4446 32.2615H38.1046C38.4123 31.232 38.5805 30.1658 38.6046 29.0915C38.5586 27.2105 38.2586 25.3442 37.7126 23.5435C35.9945 22.4402 34.5901 20.9124 33.6348 19.1078C32.6796 17.3031 32.206 15.2827 32.2596 13.2415C32.2336 11.5727 32.5498 9.91625 33.1888 8.37436C33.8277 6.83246 34.7758 5.43785 35.9746 4.27654C37.1359 3.07777 38.5305 2.12967 40.0724 1.49072C41.6143 0.85178 43.2707 0.535549 44.9396 0.56154C46.0081 0.572304 47.0718 0.706528 48.1096 0.96154C45.3992 1.64685 42.9943 3.2154 41.2746 5.41954C39.5013 7.63694 38.5555 10.4026 38.5996 13.2415ZM76.6396 102.002H25.9196C21.9961 101.949 18.1103 101.228 14.4286 99.8715C10.8584 98.6918 7.49796 96.9532 4.47257 94.7205C1.8639 92.7065 0.55957 90.9069 0.55957 89.3215H102C102 90.9069 100.695 92.7069 98.0866 94.7215C95.0612 96.9542 91.7008 98.6928 88.1306 99.8725C84.4488 101.229 80.563 101.949 76.6396 102.002Z" fill="white"/>
</svg>
