<svg width="47" height="46" viewBox="0 0 47 46" fill="none" xmlns="http://www.w3.org/2000/svg">
<g filter="url(#filter0_d_10_896)">
<path d="M32.772 9.18623H34.317V10.7312C34.317 11.1411 34.4798 11.5342 34.7696 11.8241C35.0595 12.1139 35.4526 12.2767 35.8625 12.2767C36.2724 12.2767 36.6655 12.1139 36.9553 11.8241C37.2451 11.5342 37.408 11.1411 37.408 10.7312V9.18623H38.953C39.3629 9.18623 39.756 9.02341 40.0458 8.73357C40.3356 8.44373 40.4985 8.05063 40.4985 7.64073C40.4985 7.23084 40.3356 6.83774 40.0458 6.5479C39.756 6.25806 39.3629 6.09523 38.953 6.09523H37.408V4.55023C37.408 4.14034 37.2451 3.74724 36.9553 3.4574C36.6655 3.16756 36.2724 3.00474 35.8625 3.00474C35.4526 3.00474 35.0595 3.16756 34.7696 3.4574C34.4798 3.74724 34.317 4.14034 34.317 4.55023V6.09523H32.772C32.3621 6.09523 31.969 6.25806 31.6791 6.5479C31.3893 6.83774 31.2265 7.23084 31.2265 7.64073C31.2265 8.05063 31.3893 8.44373 31.6791 8.73357C31.969 9.02341 32.3621 9.18623 32.772 9.18623ZM21.955 15.3672C21.955 15.5702 21.9949 15.7712 22.0726 15.9587C22.1503 16.1462 22.2641 16.3166 22.4076 16.4601C22.5511 16.6036 22.7215 16.7174 22.909 16.7951C23.0965 16.8728 23.2975 16.9127 23.5005 16.9127C23.7034 16.9127 23.9044 16.8728 24.0919 16.7951C24.2794 16.7174 24.4498 16.6036 24.5933 16.4601C24.7368 16.3166 24.8506 16.1462 24.9283 15.9587C25.006 15.7712 25.046 15.5702 25.046 15.3672C25.046 14.9575 25.2087 14.5645 25.4985 14.2748C25.7882 13.985 26.1812 13.8222 26.591 13.8222H28.136C28.5457 13.8222 28.9387 13.985 29.2284 14.2748C29.5182 14.5645 29.681 14.9575 29.681 15.3672V16.9122C29.681 17.322 29.5182 17.715 29.2284 18.0047C28.9387 18.2945 28.5457 18.4572 28.136 18.4572H27.363C26.9531 18.4572 26.56 18.6201 26.2701 18.9099C25.9803 19.1997 25.8175 19.5928 25.8175 20.0027C25.8175 20.4126 25.9803 20.8057 26.2701 21.0956C26.56 21.3854 26.9531 21.5482 27.363 21.5482H28.136C28.5457 21.5482 28.9387 21.711 29.2284 22.0008C29.5182 22.2905 29.681 22.6835 29.681 23.0932V24.6382C29.681 25.048 29.5182 25.441 29.2284 25.7307C28.9387 26.0205 28.5457 26.1832 28.136 26.1832H26.591C26.1812 26.1832 25.7882 26.0205 25.4985 25.7307C25.2087 25.441 25.046 25.048 25.046 24.6382C25.046 24.2283 24.8831 23.8352 24.5933 23.5454C24.3035 23.2556 23.9104 23.0927 23.5005 23.0927C23.0906 23.0927 22.6975 23.2556 22.4076 23.5454C22.1178 23.8352 21.955 24.2283 21.955 24.6382C21.955 25.247 22.0749 25.8499 22.3079 26.4124C22.5408 26.9748 22.8823 27.4859 23.3128 27.9164C23.7433 28.3469 24.2544 28.6884 24.8168 28.9213C25.3793 29.1543 25.9822 29.2742 26.591 29.2742H28.136C29.3655 29.2742 30.5447 28.7858 31.4141 27.9164C32.2835 27.047 32.772 25.8678 32.772 24.6382V23.0932C32.7653 21.9495 32.3362 20.8487 31.567 20.0022C32.3359 19.1561 32.7651 18.0556 32.772 16.9122V15.3672C32.772 14.1377 32.2835 12.9585 31.4141 12.0891C30.5447 11.2197 29.3655 10.7312 28.136 10.7312H26.591C25.3614 10.7312 24.1822 11.2197 23.3128 12.0891C22.4434 12.9585 21.955 14.1377 21.955 15.3672ZM15.774 12.2762V27.7292C15.774 28.1391 15.9368 28.5322 16.2266 28.8221C16.5165 29.1119 16.9096 29.2747 17.3195 29.2747C17.7294 29.2747 18.1225 29.1119 18.4123 28.8221C18.7021 28.5322 18.865 28.1391 18.865 27.7292V12.2762C18.865 11.8663 18.7021 11.4732 18.4123 11.1834C18.1225 10.8936 17.7294 10.7307 17.3195 10.7307C16.9096 10.7307 16.5165 10.8936 16.2266 11.1834C15.9368 11.4732 15.774 11.8663 15.774 12.2762ZM38.335 15.3672C38.1361 15.4078 37.9472 15.4871 37.7791 15.6007C37.6109 15.7143 37.4667 15.8598 37.3548 16.0291C37.2429 16.1984 37.1655 16.3881 37.1269 16.5873C37.0883 16.7865 37.0894 16.9914 37.13 17.1902C37.7332 20.1202 37.3756 23.1667 36.1103 25.8773C34.8449 28.588 32.7392 30.8184 30.1058 32.2374C27.4723 33.6565 24.4515 34.1886 21.4916 33.7547C18.5318 33.3208 15.7908 31.9441 13.6754 29.829C11.56 27.7138 10.1831 24.9729 9.74892 22.0131C9.31477 19.0533 9.84658 16.0324 11.2654 13.3988C12.6842 10.7652 14.9144 8.65933 17.625 7.39372C20.3355 6.12811 23.3819 5.77024 26.312 6.37323C26.5149 6.41381 26.7239 6.41402 26.9269 6.37384C27.13 6.33366 27.3231 6.25388 27.4953 6.13906C27.6675 6.02425 27.8154 5.87663 27.9306 5.70465C28.0457 5.53267 28.1259 5.33969 28.1665 5.13673C28.207 4.93378 28.2072 4.72481 28.1671 4.52178C28.1269 4.31874 28.0471 4.1256 27.9323 3.9534C27.8175 3.78119 27.6699 3.63329 27.4979 3.51813C27.3259 3.40297 27.1329 3.32281 26.93 3.28224C25.7999 3.0721 24.6511 2.97927 23.502 3.00523C20.1397 3.00523 16.8529 4.00227 14.0573 5.87025C11.2616 7.73824 9.0827 10.3933 7.79601 13.4996C6.50932 16.606 6.17266 20.0241 6.82861 23.3218C7.48456 26.6194 9.10365 29.6486 11.4811 32.0261C13.8586 34.4035 16.8877 36.0226 20.1854 36.6786C23.4831 37.3345 26.9012 36.9979 30.0076 35.7112C33.1139 34.4245 35.769 32.2456 37.6369 29.4499C39.5049 26.6543 40.502 23.3675 40.502 20.0052C40.5053 18.8633 40.3913 17.7239 40.162 16.6052C40.125 16.4036 40.0482 16.2114 39.9362 16.0397C39.8241 15.8681 39.679 15.7204 39.5094 15.6054C39.3397 15.4903 39.1488 15.4102 38.9479 15.3697C38.747 15.3291 38.54 15.329 38.339 15.3692L38.335 15.3672Z" fill="white"/>
</g>
<defs>
<filter id="filter0_d_10_896" x="0.501953" y="0.000976562" width="46" height="46.0044" filterUnits="userSpaceOnUse" color-interpolation-filters="sRGB">
<feFlood flood-opacity="0" result="BackgroundImageFix"/>
<feColorMatrix in="SourceAlpha" type="matrix" values="0 0 0 0 0 0 0 0 0 0 0 0 0 0 0 0 0 0 127 0" result="hardAlpha"/>
<feOffset dy="3"/>
<feGaussianBlur stdDeviation="3"/>
<feColorMatrix type="matrix" values="0 0 0 0 0 0 0 0 0 0 0 0 0 0 0 0 0 0 0.161 0"/>
<feBlend mode="normal" in2="BackgroundImageFix" result="effect1_dropShadow_10_896"/>
<feBlend mode="normal" in="SourceGraphic" in2="effect1_dropShadow_10_896" result="shape"/>
</filter>
</defs>
</svg>
