<svg width="42" height="56" viewBox="0 0 42 56" fill="none" xmlns="http://www.w3.org/2000/svg">
<path d="M11.0371 39.564C10.1121 38.639 10.5941 38.9 8.3631 38.303C7.37489 38.0165 6.45434 37.5343 5.6561 36.885L0.826101 48.726C0.718093 48.9897 0.678084 49.2763 0.709752 49.5594C0.741421 49.8426 0.843749 50.1132 1.00733 50.3465C1.17092 50.5798 1.39052 50.7682 1.64594 50.8945C1.90136 51.0207 2.18442 51.0807 2.4691 51.069L8.0781 50.855L11.9361 54.93C12.1316 55.1374 12.376 55.2924 12.647 55.3806C12.918 55.4689 13.2068 55.4875 13.4869 55.435C13.767 55.3824 14.0294 55.2602 14.25 55.0797C14.4705 54.8992 14.6422 54.6662 14.7491 54.402L20.2891 40.819C18.8251 41.6626 17.1228 41.997 15.4485 41.7699C13.7742 41.5428 12.2235 40.7671 11.0371 39.564ZM41.4481 48.726L36.6181 36.884C35.8201 37.5336 34.8995 38.0159 33.9111 38.302C31.6681 38.902 32.1601 38.641 31.2371 39.563C30.0505 40.766 28.4986 41.5417 26.8241 41.7688C25.1497 41.9959 23.4473 41.6615 21.9831 40.818L27.5241 54.403C27.631 54.6672 27.8027 54.9002 28.0232 55.0807C28.2438 55.2612 28.5062 55.3834 28.7863 55.436C29.0664 55.4885 29.3552 55.4699 29.6262 55.3816C29.8972 55.2934 30.1416 55.1384 30.3371 54.931L34.2001 50.857L39.8001 51.069C40.0851 51.0814 40.3687 51.0219 40.6246 50.896C40.8806 50.77 41.1008 50.5817 41.2648 50.3483C41.4289 50.1149 41.5316 49.844 41.5634 49.5605C41.5953 49.277 41.5563 48.99 41.4481 48.726ZM28.6951 37.155C30.3221 35.5 30.5081 35.642 32.8241 35.011C33.5556 34.808 34.2207 34.416 34.7528 33.8745C35.2848 33.333 35.665 32.661 35.8551 31.926C36.6551 28.903 36.4451 29.268 38.6171 27.056C39.1504 26.5096 39.5329 25.8342 39.7273 25.0958C39.9217 24.3574 39.9212 23.5812 39.7261 22.843C38.9261 19.822 38.9261 20.243 39.7261 17.219C39.9212 16.4808 39.9217 15.7047 39.7273 14.9663C39.5329 14.2279 39.1504 13.5525 38.6171 13.006C36.4441 10.794 36.6511 11.158 35.8551 8.13603C35.665 7.40108 35.2848 6.7291 34.7528 6.18758C34.2207 5.64607 33.5556 5.25409 32.8241 5.05103C29.8561 4.24103 30.2141 4.45103 28.0391 2.24003C27.5123 1.70024 26.8509 1.31091 26.1232 1.11225C25.3956 0.913598 24.6281 0.912832 23.9001 1.11003C20.9331 1.91903 21.3471 1.92003 18.3751 1.11003C17.647 0.912198 16.8793 0.912547 16.1514 1.11105C15.4235 1.30954 14.7619 1.69898 14.2351 2.23903C12.0621 4.45103 12.4201 4.23903 9.4511 5.05003C8.71962 5.25309 8.05445 5.64507 7.52242 6.18658C6.99038 6.7281 6.61021 7.40008 6.4201 8.13503C5.6201 11.157 5.8301 10.793 3.6581 13.005C3.1242 13.5513 2.74124 14.2268 2.54667 14.9655C2.3521 15.7041 2.3526 16.4806 2.5481 17.219C3.3481 20.238 3.3481 19.819 2.5481 22.842C2.35307 23.5804 2.35272 24.3567 2.54708 25.0952C2.74144 25.8338 3.12388 26.5093 3.6571 27.056C5.8301 29.269 5.6241 28.903 6.4201 31.926C6.61021 32.661 6.99038 33.333 7.52242 33.8745C8.05445 34.416 8.71962 34.808 9.4511 35.011C11.8331 35.66 12.0111 35.558 13.5791 37.155C14.2567 37.8501 15.1526 38.291 16.1167 38.4039C17.0807 38.5168 18.0543 38.2947 18.8741 37.775C19.5509 37.3455 20.336 37.1174 21.1376 37.1174C21.9392 37.1174 22.7243 37.3455 23.4011 37.775C24.2207 38.2948 25.1941 38.517 26.1581 38.4041C27.122 38.2912 28.0178 37.8502 28.6951 37.155ZM11.0951 19.693C11.13 17.7143 11.7486 15.79 12.8733 14.1617C13.9981 12.5334 15.5787 11.2736 17.417 10.5406C19.2552 9.80748 21.269 9.63377 23.2056 10.0412C25.1422 10.4487 26.9152 11.4192 28.3022 12.8309C29.6891 14.2425 30.6281 16.0325 31.0013 17.976C31.3745 19.9195 31.1653 21.9299 30.3998 23.7549C29.6344 25.5798 28.3469 27.138 26.699 28.2338C25.051 29.3296 23.1161 29.9141 21.1371 29.914C18.45 29.8903 15.8823 28.8001 13.9989 26.8833C12.1155 24.9666 11.0707 22.3802 11.0941 19.693H11.0951Z" fill="#1FBEF9"/>
</svg>
