<svg width="21" height="20" viewBox="0 0 21 20" fill="none" xmlns="http://www.w3.org/2000/svg">
<path d="M2.52065 19.06H3.52065V6.019H2.52065C1.98862 6.019 1.47839 6.23035 1.10219 6.60654C0.725994 6.98274 0.514649 7.49298 0.514649 8.025V17.053C0.514517 17.3165 0.566307 17.5775 0.667059 17.821C0.767811 18.0645 0.915552 18.2857 1.10184 18.4721C1.28813 18.6585 1.50931 18.8063 1.75275 18.9072C1.9962 19.0081 2.25713 19.06 2.52065 19.06ZM18.5706 6.019H11.5486L12.6746 2.64C12.775 2.33872 12.8024 2.01792 12.7546 1.70399C12.7068 1.39005 12.5851 1.09195 12.3996 0.834208C12.2141 0.576464 11.9701 0.366441 11.6876 0.221415C11.4051 0.0763884 11.0922 0.000502683 10.7746 0H10.5486L5.53265 5.455V19.055H16.5646L20.4886 10.432L20.5766 10.027V8.025C20.5766 7.49298 20.3653 6.98274 19.9891 6.60654C19.6129 6.23035 19.1027 6.019 18.5706 6.019Z" fill="#FBFBFB"/>
</svg>
