<svg width="30" height="30" viewBox="0 0 30 30" fill="none" xmlns="http://www.w3.org/2000/svg">
<path d="M14.985 1.61448e-05C12.0189 0.00298223 9.12031 0.885237 6.65554 2.53526C4.19078 4.18528 2.27053 6.529 1.13751 9.27015C0.00449836 12.0113 -0.290412 15.0268 0.290059 17.9356C0.87053 20.8443 2.30032 23.5156 4.39871 25.6119C6.49709 27.7082 9.16986 29.1353 12.0792 29.7129C14.9885 30.2904 18.0037 29.9925 20.7437 28.8568C23.4837 27.721 25.8255 25.7984 27.4731 23.332C29.1206 20.8656 30 17.9661 30 15C30.0009 13.0287 29.6131 11.0765 28.8586 9.25521C28.1042 7.43393 26.998 5.77931 25.6034 4.38605C24.2087 2.99279 22.553 1.88825 20.731 1.13564C18.9089 0.383026 16.9564 -0.00287674 14.985 1.61448e-05ZM25.385 9.00002H20.955C20.4855 7.1422 19.7904 5.34886 18.885 3.66002C21.6212 4.60194 23.9268 6.49754 25.38 9.00002H25.385ZM15 3.06002C16.26 4.87786 17.2268 6.88227 17.865 9.00002H12.135C12.7732 6.88227 13.74 4.87786 15 3.06002ZM3.39001 18C2.86999 16.0338 2.86999 13.9662 3.39001 12H8.46001C8.32932 12.9948 8.25919 13.9967 8.25001 15C8.25919 16.0033 8.32932 17.0052 8.46001 18H3.39001ZM4.62001 21H9.04501C9.51447 22.8578 10.2096 24.6512 11.115 26.34C8.37594 25.4032 6.06872 23.5063 4.62001 21ZM9.04501 9.00002H4.62001C6.06872 6.49375 8.37594 4.59683 11.115 3.66002C10.2096 5.34886 9.51447 7.1422 9.04501 9.00002ZM15 26.94C13.74 25.1222 12.7732 23.1178 12.135 21H17.865C17.2268 23.1178 16.26 25.1222 15 26.94ZM18.51 18H11.49C11.3418 17.0066 11.2616 16.0043 11.25 15C11.261 13.9957 11.3412 12.9933 11.49 12H18.51C18.6588 12.9933 18.739 13.9957 18.75 15C18.7384 16.0043 18.6582 17.0066 18.51 18ZM18.885 26.34C19.7904 24.6512 20.4855 22.8578 20.955 21H25.38C23.9256 23.5034 21.6181 25.3991 18.88 26.34H18.885ZM21.54 18C21.6707 17.0052 21.7408 16.0033 21.75 15C21.7408 13.9967 21.6707 12.9948 21.54 12H26.61C27.13 13.9662 27.13 16.0338 26.61 18H21.54Z" fill="white"/>
</svg>
