<svg width="22" height="24" viewBox="0 0 22 24" fill="none" xmlns="http://www.w3.org/2000/svg">
<path d="M1.73462 23.1192C1.48876 23.1192 1.25297 23.0215 1.07913 22.8477C0.905282 22.6738 0.807617 22.438 0.807617 22.1922V1.80818C0.807731 1.64721 0.849757 1.48905 0.929558 1.34926C1.00936 1.20947 1.12418 1.09287 1.26273 1.01093C1.40128 0.928992 1.55878 0.884542 1.71972 0.881956C1.88066 0.879369 2.03951 0.918734 2.18062 0.996177L20.7076 11.1892C20.8527 11.2693 20.9736 11.3868 21.0579 11.5295C21.1421 11.6723 21.1865 11.835 21.1865 12.0007C21.1865 12.1664 21.1421 12.3291 21.0579 12.4718C20.9736 12.6145 20.8527 12.7321 20.7076 12.8122L2.18062 23.0042C2.04401 23.0795 1.89059 23.119 1.73462 23.1192Z" fill="white"/>
</svg>
