<svg width="18" height="18" viewBox="0 0 18 18" fill="none" xmlns="http://www.w3.org/2000/svg">
<path d="M13.36 7.43C13.36 8.60284 13.0122 9.74935 12.3606 10.7245C11.709 11.6997 10.7829 12.4598 9.69932 12.9086C8.61575 13.3574 7.42342 13.4749 6.27312 13.2461C5.12281 13.0172 4.06619 12.4525 3.23686 11.6231C2.40753 10.7938 1.84276 9.73719 1.61395 8.58689C1.38514 7.43658 1.50257 6.24425 1.9514 5.16069C2.40022 4.07712 3.16029 3.15098 4.13547 2.49939C5.11065 1.84779 6.25716 1.5 7.43 1.5C9.00274 1.5 10.5111 2.12477 11.6231 3.23686C12.7352 4.34895 13.36 5.85727 13.36 7.43Z" stroke="#1FBEF9" stroke-width="2" stroke-linecap="round" stroke-linejoin="round"/>
<path d="M16.5002 16.5002L11.9482 11.9482" stroke="#1FBEF9" stroke-width="2" stroke-linecap="round" stroke-linejoin="round"/>
</svg>
