<svg width="22" height="16" viewBox="0 0 22 16" fill="none" xmlns="http://www.w3.org/2000/svg">
<path d="M11.0137 11.1554C12.7865 11.1554 14.2237 9.71819 14.2237 7.94535C14.2237 6.17252 12.7865 4.73535 11.0137 4.73535C9.24088 4.73535 7.80371 6.17252 7.80371 7.94535C7.80371 9.71819 9.24088 11.1554 11.0137 11.1554Z" fill="#FBFBFB"/>
<path d="M21.8018 7.7C20.9523 5.50247 19.4775 3.60202 17.5597 2.23354C15.6419 0.86507 13.3651 0.0885646 11.0108 0C8.65659 0.0887567 6.38003 0.865354 4.46241 2.23381C2.54478 3.60227 1.07015 5.50262 0.220754 7.7C0.163394 7.85864 0.163394 8.03236 0.220754 8.191C1.07022 10.3885 2.545 12.289 4.46282 13.6575C6.38064 15.0259 8.65742 15.8024 11.0118 15.891C13.3661 15.8024 15.6429 15.0259 17.5607 13.6575C19.4785 12.289 20.9533 10.3885 21.8028 8.191C21.8601 8.03236 21.8591 7.85864 21.8018 7.7ZM11.0108 12.64C10.0822 12.64 9.17444 12.3646 8.40235 11.8488C7.63026 11.3329 7.02849 10.5996 6.67314 9.7417C6.31779 8.8838 6.22481 7.93979 6.40597 7.02905C6.58713 6.11831 7.03428 5.28174 7.69089 4.62513C8.3475 3.96853 9.18406 3.52137 10.0948 3.34021C11.0055 3.15906 11.9496 3.25203 12.8075 3.60738C13.6654 3.96274 14.3986 4.56451 14.9145 5.3366C15.4304 6.10869 15.7058 7.01642 15.7058 7.945C15.7058 9.19019 15.2111 10.3844 14.3306 11.2649C13.4501 12.1453 12.2559 12.64 11.0108 12.64Z" fill="#FBFBFB"/>
</svg>
