<svg width="26" height="19" viewBox="0 0 26 19" fill="none" xmlns="http://www.w3.org/2000/svg">
<path d="M24.7822 6.54605C24.8248 6.51307 24.8757 6.49264 24.9293 6.48706C24.9829 6.48148 25.0369 6.49098 25.0854 6.51448C25.1338 6.53797 25.1747 6.57454 25.2035 6.62005C25.2323 6.66556 25.2478 6.71821 25.2482 6.77206V16.5941C25.2482 17.2056 25.0053 17.7922 24.5728 18.2246C24.1404 18.6571 23.5538 18.9001 22.9422 18.9001H2.96225C2.35083 18.9001 1.76445 18.6572 1.33202 18.225C0.899585 17.7928 0.656515 17.2065 0.65625 16.5951L0.65625 6.77706C0.656872 6.72331 0.672575 6.67082 0.70157 6.62556C0.730564 6.5803 0.771686 6.5441 0.82025 6.52107C0.868815 6.49804 0.922872 6.4891 0.976264 6.49529C1.02966 6.50147 1.08024 6.52253 1.12225 6.55606C2.19825 7.39206 3.62225 8.45606 8.52225 12.0121C9.53525 12.7521 11.2452 14.3121 12.9513 14.2981C14.6663 14.3121 16.4093 12.7231 17.3843 12.0121C22.2853 8.44806 23.7062 7.38205 24.7822 6.54605ZM12.9563 12.7561C14.0703 12.7751 15.6753 11.3561 16.4823 10.7671C22.8563 6.14206 23.3413 5.73806 24.8113 4.58506C24.9492 4.47737 25.0608 4.33959 25.1374 4.18222C25.214 4.02486 25.2536 3.85208 25.2533 3.67706V2.76406C25.2535 2.46072 25.1939 2.16032 25.0779 1.88005C24.9619 1.59979 24.7917 1.34516 24.5771 1.13076C24.3626 0.916367 24.1078 0.746411 23.8274 0.630634C23.547 0.514857 23.2466 0.455532 22.9433 0.456058H2.96225C2.35066 0.456058 1.76412 0.699014 1.33166 1.13147C0.899203 1.56393 0.65625 2.15047 0.65625 2.76206L0.65625 3.67506C0.656423 3.84999 0.696293 4.02259 0.772855 4.17987C0.849418 4.33716 0.960677 4.47501 1.09825 4.58306C2.56825 5.73106 3.05325 6.13906 9.42725 10.7651C10.2343 11.3511 11.8383 12.7731 12.9532 12.7531L12.9563 12.7561Z" fill="#1FBEF9"/>
</svg>
