<svg width="20" height="27" viewBox="0 0 20 27" fill="none" xmlns="http://www.w3.org/2000/svg">
<path d="M8.94197 26.073C1.49797 15.284 0.115967 14.173 0.115967 10.21C0.115967 7.60111 1.15236 5.09903 2.99716 3.25424C4.84195 1.40944 7.34403 0.373047 9.95297 0.373047C12.5619 0.373047 15.064 1.40944 16.9088 3.25424C18.7536 5.09903 19.79 7.60111 19.79 10.21C19.79 14.176 18.408 15.284 10.964 26.076C10.8505 26.2392 10.6992 26.3725 10.523 26.4645C10.3468 26.5564 10.1509 26.6043 9.95218 26.604C9.75343 26.6037 9.5577 26.5552 9.38177 26.4628C9.20583 26.3703 9.05493 26.2366 8.94197 26.073ZM9.95297 14.309C10.7639 14.309 11.5566 14.0686 12.2308 13.6181C12.905 13.1676 13.4306 12.5272 13.7409 11.778C14.0512 11.0289 14.1324 10.2045 13.9742 9.40918C13.816 8.61385 13.4255 7.8833 12.8521 7.30991C12.2787 6.73651 11.5482 6.34603 10.7528 6.18783C9.95751 6.02963 9.13314 6.11082 8.38396 6.42114C7.63479 6.73146 6.99446 7.25697 6.54394 7.93121C6.09343 8.60545 5.85297 9.39814 5.85297 10.209C5.85297 11.2964 6.28493 12.3393 7.05383 13.1082C7.82273 13.8771 8.86558 14.309 9.95297 14.309Z" fill="#1FBEF9"/>
</svg>
