<svg width="26" height="26" viewBox="0 0 26 26" fill="none" xmlns="http://www.w3.org/2000/svg">
<path d="M24.355 1.96709L19.355 0.814085C19.0915 0.754105 18.8153 0.788024 18.5741 0.909984C18.3329 1.03194 18.1419 1.23429 18.034 1.48208L15.728 6.86208C15.6302 7.09241 15.6102 7.34836 15.671 7.59109C15.7318 7.83382 15.8702 8.05009 16.065 8.20708L18.975 10.5891C17.2119 14.3266 14.2032 17.3343 10.465 19.0961L8.08101 16.1901C7.92304 15.9965 7.70642 15.8596 7.46381 15.7999C7.22121 15.7402 6.96577 15.7609 6.73601 15.8591L1.35601 18.1641C1.10733 18.2725 0.904206 18.4642 0.781564 18.7062C0.658922 18.9482 0.624428 19.2254 0.684011 19.4901L1.83701 24.4901C1.89564 24.7442 2.03874 24.9709 2.24291 25.1331C2.44708 25.2953 2.70025 25.3834 2.96101 25.3831C5.88786 25.3833 8.78609 24.8071 11.4902 23.6871C14.1943 22.5672 16.6513 20.9256 18.7209 18.856C20.7905 16.7864 22.4321 14.3294 23.552 11.6253C24.672 8.92116 25.2483 6.02293 25.248 3.09608C25.2497 2.83442 25.1621 2.58 24.9998 2.37476C24.8374 2.16953 24.61 2.02573 24.355 1.96709Z" fill="#1FBEF9"/>
</svg>
